<?xml version="1.0" encoding="UTF-8" standalone="no"?>
<!-- Created with Inkscape (http://www.inkscape.org/) -->

<svg
   xmlns:dc="http://purl.org/dc/elements/1.1/"
   xmlns:cc="http://creativecommons.org/ns#"
   xmlns:rdf="http://www.w3.org/1999/02/22-rdf-syntax-ns#"
   xmlns:svg="http://www.w3.org/2000/svg"
   xmlns="http://www.w3.org/2000/svg"
   xmlns:sodipodi="http://sodipodi.sourceforge.net/DTD/sodipodi-0.dtd"
   xmlns:inkscape="http://www.inkscape.org/namespaces/inkscape"
   width="95.49012mm"
   height="97.957283mm"
   viewBox="0 0 95.49012 97.957283"
   version="1.1"
   id="svg847"
   inkscape:version="0.92.4 (5da689c313, 2019-01-14)"
   sodipodi:docname="addiction-services.svg">
  <defs
     id="defs841" />
  <sodipodi:namedview
     id="base"
     pagecolor="#ffffff"
     bordercolor="#666666"
     borderopacity="1.0"
     inkscape:pageopacity="0.0"
     inkscape:pageshadow="2"
     inkscape:zoom="1.4"
     inkscape:cx="132.45216"
     inkscape:cy="241.58911"
     inkscape:document-units="mm"
     inkscape:current-layer="svg847"
     showgrid="false"
     fit-margin-top="0"
     fit-margin-left="0"
     fit-margin-right="0"
     fit-margin-bottom="0"
     inkscape:window-width="1920"
     inkscape:window-height="1017"
     inkscape:window-x="-8"
     inkscape:window-y="-8"
     inkscape:window-maximized="1" />
  <metadata
     id="metadata844">
    <rdf:RDF>
      <cc:Work
         rdf:about="">
        <dc:format>image/svg+xml</dc:format>
        <dc:type
           rdf:resource="http://purl.org/dc/dcmitype/StillImage" />
        <dc:title></dc:title>
      </cc:Work>
    </rdf:RDF>
  </metadata>
  <path
     sodipodi:type="star"
     style="fill:#bc9055;fill-opacity:1;stroke:none;stroke-width:0.26458332;stroke-miterlimit:4;stroke-dasharray:none;stroke-opacity:1"
     id="path1063"
     sodipodi:sides="3"
     sodipodi:cx="145.14285"
     sodipodi:cy="62.654762"
     sodipodi:r1="32.237679"
     sodipodi:r2="16.118837"
     sodipodi:arg1="2.1516843"
     sodipodi:arg2="3.1988819"
     inkscape:flatsided="true"
     inkscape:rounded="1"
     inkscape:randomized="0.5"
     d="M 112.22558,80.979712 C 62.073299,39.32846 90.711032,63.072227 127.65571,29.064956 c 36.94468,-34.007272 50.35357,-29.48329301 44.43445,26.988045 -5.91912,56.471339 -9.71229,66.577959 -59.86458,24.926711 z"
     inkscape:transform-center-x="-23.537174"
     inkscape:transform-center-y="8.3039782"
     transform="rotate(41.294087,102.30911,-74.947801)" />
  <g
     inkscape:label="Layer 1"
     inkscape:groupmode="layer"
     id="layer1"
     transform="translate(-65.5211,-45.429145)">
    <g
       id="g1170">
      <path
         inkscape:connector-curvature="0"
         id="path518"
         style="fill:#000000;fill-opacity:1;fill-rule:nonzero;stroke:none;stroke-width:0.03527778"
         d="m 65.564804,107.75791 c 0.216958,-0.92745 1.016,-1.11619 2.102556,-0.98213 0.927099,0.21696 2.076449,0.92181 3.625144,1.68099 l 1.628069,1.45626 c 0.130528,1.03999 -0.08043,1.89089 -0.470605,2.62679 -0.630767,0.3309 -1.36137,0.45508 -1.938514,0.14605 l -1.889125,-1.37725 -0.08079,-0.33796 c -1.628775,-0.5722 -3.315053,-1.76706 -2.976739,-3.21275" />
      <path
         inkscape:connector-curvature="0"
         id="path520"
         style="fill:#000000;fill-opacity:1;fill-rule:nonzero;stroke:none;stroke-width:0.03527778"
         d="m 83.66689,108.15549 c 0,-0.77717 0.69603,-0.91122 1.735313,-0.99201 1.876778,0 1.956506,0.9398 3.683706,0.89923 l 1.696508,1.03117 c 0.347133,0.99519 0.276931,2.05634 0.07338,2.85468 -0.513997,0.44767 -1.297517,0.54751 -1.887714,0.45896 L 87.22395,111.382 87.075783,111.06626 c -1.637947,-0.24377 -3.408891,-1.4605 -3.408891,-2.91077" />
      <path
         inkscape:connector-curvature="0"
         id="path522"
         style="fill:#000000;fill-opacity:1;fill-rule:nonzero;stroke:none;stroke-width:0.03527778"
         d="m 87.315317,82.166365 c 0.212372,3.28118 1.163814,5.89668 1.408289,10.84862 l 0.667808,2.16993 c 1.901825,4.00615 2.054931,8.398575 1.613606,13.966115 -1.056922,1.27953 -4.172656,1.00154 -4.450997,-1.05727 l -1.001889,-9.625895 -0.667456,-1.9184 -3.672416,-8.65364 6.103055,-5.72946" />
      <path
         inkscape:connector-curvature="0"
         id="path524"
         style="fill:#3c3c3b;fill-opacity:1;fill-rule:nonzero;stroke:none;stroke-width:0.03527778"
         d="m 69.207234,107.35927 c -0.679802,2.0881 2.424995,3.80542 3.971573,2.56681 1.863724,-4.9149 2.841624,-7.78933 3.279069,-12.166945 2.422525,-2.95381 4.799189,-6.73876 5.552016,-9.25547 l 1.764948,-0.54046 0.811388,-0.19438 c 4.1783,-1.31516 2.73297,-6.79097 2.211917,-8.48113 l -8.626828,1.84432 -0.814563,1.98085 -0.243064,0.5902 c -1.836209,3.45651 -3.726392,6.8707 -4.73322,10.47538 l -0.752475,1.899 c -2.198863,7.530035 -2.117372,9.624475 -2.420761,11.281825" />
      <path
         inkscape:connector-curvature="0"
         id="path526"
         style="fill:#798280;fill-opacity:1;fill-rule:nonzero;stroke:none;stroke-width:0.03527778"
         d="m 69.766387,103.58773 c -7.14e-4,-8e-4 -0.0014,-0.002 -0.0021,-0.003 0.0074,-0.0349 0.01482,-0.0699 0.02187,-0.10443 -0.0067,0.036 -0.01305,0.0716 -0.01976,0.10725" />
      <path
         inkscape:connector-curvature="0"
         id="path528"
         style="fill:#212120;fill-opacity:1;fill-rule:nonzero;stroke:none;stroke-width:0.03527778"
         d="m 69.769562,103.58914 c -0.0011,0 -0.0021,-2.7e-4 -0.0032,-0.001 0.0067,-0.0356 0.01305,-0.0713 0.01976,-0.10725 0.521754,-2.48357 1.098193,-4.855995 1.841849,-7.403055 l 0.752475,-1.899 c 0.954969,-3.41948 2.7051,-6.66715 4.449585,-9.94234 0.238478,0.0727 0.522112,0.10654 0.84067,0.10654 0.56903,0 1.24848,-0.10865 1.976966,-0.29915 3.44e-4,-0.001 0.0011,-0.002 0.0014,-0.002 0.07197,-0.0187 0.143933,-0.0381 0.216605,-0.0586 -2.436283,2.63631 -4.561769,5.98135 -6.529211,9.69468 l -1.344781,3.11379 c 0,0 -2.077155,6.798725 -2.222147,6.798025" />
      <path
         inkscape:connector-curvature="0"
         id="path530"
         style="fill:#ffbb7d;fill-opacity:1;fill-rule:nonzero;stroke:none;stroke-width:0.03527778"
         d="m 93.063832,79.519115 -0.02752,0.7052 c 0.159454,0.55492 0.104775,1.50707 0.0078,2.53859 l 0.07549,0.97508 -0.278693,1.15782 c -0.07338,0.16439 -0.171802,0.24059 -0.334082,0.0942 l -0.149928,0.50941 c -0.127355,0.34925 -0.512235,0.22048 -0.492479,-0.096 l 0.228599,-2.17206 -0.651933,2.01754 c -0.104422,0.28575 -0.488597,0.12171 -0.39758,-0.19297 l 0.437444,-2.11984 -0.147461,-0.18733 -0.965906,1.49649 c -0.198966,0.34748 -0.553861,0.0377 -0.403225,-0.37501 l 0.88512,-1.80057 -0.103364,-0.63712 -0.354542,-0.17851 c -0.430741,0.39582 -0.8636,0.64665 -1.30175,0.7165 -0.276577,-0.008 -0.401461,-0.18945 -0.277283,-0.36795 0.418394,-0.17569 0.797983,-0.54469 1.163108,-0.98496 l 1.560689,-0.93486 -0.01834,-0.72778 1.545872,0.56409" />
      <path
         inkscape:connector-curvature="0"
         id="path532"
         style="fill:#444e94;fill-opacity:1;fill-rule:nonzero;stroke:none;stroke-width:0.03527778"
         d="m 86.878226,68.387215 c 0.0078,0.2547 0.04057,0.51576 0.103011,0.77893 0.563386,2.40065 3.244144,4.99886 3.244144,4.99886 l 1.264003,5.42749 c 0.03034,0.0628 0.0635,0.12241 0.09913,0.17533 0.330906,0.51259 0.855487,0.63641 1.552576,0.42721 0.589492,-2.70827 0.618771,-5.3407 -0.152754,-7.86518 -1.580797,-3.41983 -3.163005,-7.02874 -4.722636,-7.74911 0,0 -1.465791,1.73249 -1.387474,3.80647" />
      <path
         inkscape:connector-curvature="0"
         id="path534"
         style="fill:#2b3375;fill-opacity:1;fill-rule:nonzero;stroke:none;stroke-width:0.03527778"
         d="m 91.588514,79.767825 c -0.03563,-0.0529 -0.06879,-0.11254 -0.09913,-0.17533 l -1.264003,-5.42749 c 0,0 -0.6223,-0.60325 -1.330678,-1.49719 0.330906,-0.96202 0.594078,-1.88877 0.701322,-2.8268 0.522112,1.24742 0.8763,2.44827 1.549048,3.26742 l 0.438502,6.51828 0.0049,0.14111" />
      <path
         inkscape:connector-curvature="0"
         id="path536"
         style="fill:#444e94;fill-opacity:1;fill-rule:nonzero;stroke:none;stroke-width:0.03527778"
         d="m 89.62072,69.590895 c -0.165806,1.98402 -1.061508,3.89784 -1.857022,6.18348 -0.379942,1.07915 -0.725311,2.23309 -0.965553,3.51332 -0.131233,1.70003 -4.072819,3.95499 -7.153628,4.75438 -1.180041,0.31045 -2.233083,0.40217 -2.89313,0.16616 l -0.05256,-5.15655 -0.0042,-0.30586 -0.0088,-0.75141 -0.06068,-6.39763 c 0.03034,-0.36724 0.196145,-0.74754 0.475897,-1.14088 0.105128,-0.1397 0.205317,-0.26635 0.318912,-0.393 l 0.03069,-0.0349 c 0.358422,-0.4064 0.835025,-0.82197 1.398411,-1.24989 0.249061,-0.18803 0.515761,-0.37571 0.795514,-0.57256 0.06562,-0.0437 0.130881,-0.0871 0.196497,-0.13123 0.384881,-0.2533 0.799748,-0.51541 1.236839,-0.77788 0.04375,-0.0261 0.08749,-0.0522 0.135114,-0.0783 0,0 0.686506,-0.45473 2.115256,-1.22801 0.725311,-0.35419 1.319741,-0.647 1.82633,-0.87384 0.08749,-0.0395 0.174978,-0.0787 0.258234,-0.11394 0.301272,-0.13088 0.572558,-0.23601 0.817033,-0.31891 0.113594,-0.0438 0.222955,-0.0741 0.32773,-0.10478 0.668514,-0.18803 1.15817,-0.17921 1.708856,0 1.817864,0.58985 1.734961,2.94499 1.354314,5.01227" />
      <path
         inkscape:connector-curvature="0"
         id="path538"
         style="fill:#ffbb7d;fill-opacity:1;fill-rule:nonzero;stroke:none;stroke-width:0.03527778"
         d="m 80.686976,63.639885 0.3175,3.75355 c 1.743427,0.38241 4.85528,-1.19309 4.477455,-2.21438 l -1.010003,-1.93781 -3.784952,0.39864" />
      <path
         inkscape:connector-curvature="0"
         id="path540"
         style="fill:#ffbb7d;fill-opacity:1;fill-rule:nonzero;stroke:none;stroke-width:0.03527778"
         d="m 85.258623,64.675995 c -0.762,0.86748 -1.911703,0.75071 -3.08222,0.44097 -1.710266,-0.79022 -2.941813,-1.96074 -2.773186,-4.18677 -0.136172,-1.61607 0.596195,-3.30905 3.352095,-3.22086 1.752953,0.0557 3.247319,0.69286 3.351741,2.56611 0,0 0.09278,3.53695 -0.84843,4.40055" />
      <path
         inkscape:connector-curvature="0"
         id="path542"
         style="fill:#000000;fill-opacity:1;fill-rule:nonzero;stroke:none;stroke-width:0.03527778"
         d="m 86.096823,59.813655 c -0.13582,0.64664 -0.549981,1.14018 -1.117247,1.56281 0,0 0.132291,1.4545 0.05398,1.4806 -0.07902,0.0261 -0.8382,0.68122 -0.8382,0.68122 l -0.392995,1.09961 c -1.309511,0.94473 -3.25755,0.22577 -3.849864,-0.62865 -0.350308,-0.44168 -0.724605,-2.2225 -0.628297,-3.92818 0.207786,-1.4277 1.23437,-2.81376 3.430764,-2.90689 2.172053,-0.0921 3.525308,1.17298 3.341864,2.63948" />
      <path
         inkscape:connector-curvature="0"
         id="path544"
         style="fill:#ffbb7d;fill-opacity:1;fill-rule:nonzero;stroke:none;stroke-width:0.03527778"
         d="m 84.796131,63.069795 c 0.209903,-0.23495 -0.112536,-0.77929 -0.348897,-0.85584 -0.328436,-0.10724 -0.508353,0.36901 -0.542572,0.6283 -0.04586,0.34784 -0.0021,0.61912 0.193322,0.90769 0.224014,0.33056 0.574322,0.006 0.684742,-0.26105 0.07867,-0.19121 -0.119945,-0.26988 0.01341,-0.4191" />
      <path
         inkscape:connector-curvature="0"
         id="path546"
         style="fill:#a1a6c9;fill-opacity:1;fill-rule:nonzero;stroke:none;stroke-width:0.03527778"
         d="m 76.830056,84.236105 c -0.02646,-0.008 -0.05256,-0.0169 -0.07796,-0.0257 v -0.002 c 0.02575,0.009 0.05186,0.018 0.07902,0.0261 -3.44e-4,8e-4 -7.15e-4,0.001 -0.0011,0.002" />
      <path
         inkscape:connector-curvature="0"
         id="path548"
         style="fill:#151519;fill-opacity:1;fill-rule:nonzero;stroke:none;stroke-width:0.03527778"
         d="m 77.670726,84.342645 c -0.318558,0 -0.602192,-0.0339 -0.84067,-0.10654 3.44e-4,-7.9e-4 7.15e-4,-10e-4 0.0011,-0.002 0.238478,0.0727 0.522816,0.10689 0.841727,0.10689 0.56762,0 1.245659,-0.1083 1.971675,-0.29915 0.0014,-2.7e-4 0.0032,-8e-4 0.0046,-10e-4 -3.44e-4,7.9e-4 -0.0011,10e-4 -0.0014,0.002 -0.728486,0.1905 -1.407936,0.29915 -1.976966,0.29915" />
      <path
         inkscape:connector-curvature="0"
         id="path550"
         style="fill:#a1a6c9;fill-opacity:1;fill-rule:nonzero;stroke:none;stroke-width:0.03527778"
         d="m 76.718931,81.011015 -0.02152,-2.05599 0.0014,0.0967 0.02011,1.95933" />
      <path
         inkscape:connector-curvature="0"
         id="path552"
         style="fill:#2b3375;fill-opacity:1;fill-rule:nonzero;stroke:none;stroke-width:0.03527778"
         d="m 77.672842,84.341235 c -0.318911,0 -0.603249,-0.0342 -0.841727,-0.10689 v 0 c -0.02716,-0.008 -0.05327,-0.0169 -0.07902,-0.0261 l -0.03316,-3.19723 -0.02011,-1.95932 -0.0014,-0.0967 -0.0099,-0.95885 0.663222,-2.71287 3.237442,-0.53234 c 0.389466,3.59869 -0.635706,6.55991 -0.860425,9.1567 -0.02611,0.0438 -0.05221,0.0896 -0.07867,0.13335 -0.0014,2.7e-4 -0.0032,8e-4 -0.0046,10e-4 -0.726017,0.19086 -1.404055,0.29916 -1.971675,0.29916" />
      <path
         inkscape:connector-curvature="0"
         id="path554"
         style="fill:#ffbb7d;fill-opacity:1;fill-rule:nonzero;stroke:none;stroke-width:0.03527778"
         d="m 73.985257,87.417105 -0.09596,0.87983 -0.623006,2.37878 -0.148872,0.67768 -0.336197,0.72249 c -0.186619,0.46743 -0.476603,0.39476 -0.389114,-0.11465 l -0.556683,1.09291 c -0.247297,0.46249 -0.591961,0.32385 -0.459317,-0.17181 l 0.444147,-1.4739 -1.124302,1.67216 c -0.360539,0.46638 -0.714728,0.27552 -0.428625,-0.36159 l 0.820208,-1.73673 -1.380772,1.27388 c -0.502003,0.52458 -0.855134,0.15946 -0.503767,-0.35913 l 1.20262,-1.38853 0.281869,-0.96132 -0.257528,-0.43638 -1.226608,0.53587 c -0.550686,0.22401 -0.813506,-0.36301 -0.168981,-0.69639 l 1.273528,-0.69568 0.535517,-0.42756 1.3081,-0.34008 0.513644,-0.44415 1.320095,0.3743" />
      <path
         inkscape:connector-curvature="0"
         id="path556"
         style="fill:#444e94;fill-opacity:1;fill-rule:nonzero;stroke:none;stroke-width:0.03527778"
         d="m 72.151518,87.486955 c 0.108302,0.75283 1.244247,1.15006 2.124427,1.3529 1.89865,-2.23943 3.555295,-4.74274 4.475339,-6.67349 l 1.567392,-6.35741 c 1.397352,-5.16326 -3.502025,-7.05662 -4.029781,-3.50697 l -1.282347,8.14882 -2.85503,7.03615" />
      <path
         inkscape:connector-curvature="0"
         id="path558"
         style="fill:#4d4d4d;fill-opacity:1;fill-rule:nonzero;stroke:none;stroke-width:0.03527778"
         d="m 86.391039,107.31694 c 0.122767,-0.19932 0.319264,-0.38629 0.595489,-0.54575 0.989895,-0.5715 2.589036,-0.5715 3.572581,2.7e-4 0.267405,0.15522 0.459316,0.33761 0.580672,0.53163 -0.122767,0.19862 -0.319264,0.38594 -0.595136,0.5454 -0.990247,0.57185 -2.589036,0.57185 -3.572581,0 -0.268111,-0.15558 -0.459669,-0.33796 -0.581025,-0.53164 z m 4.812242,0.50729 0.08573,-0.0762 z m 0.09031,-0.0797 0.04974,-0.0444 -0.04974,0.0452 z m -5.536141,-0.92216 0.0028,0.99237 c 0.0014,0.44273 0.292453,0.88476 0.874183,1.22273 1.040695,0.60466 2.659592,0.67027 3.833283,0.20002 l 0.531284,0.30868 0.733777,-0.42369 -0.0028,-0.99236 c 0.02187,-0.11571 0.04198,-0.22507 0.04163,-0.33514 l -0.0028,-0.99201 c 0.0035,-0.43321 -0.285397,-0.87983 -0.872066,-1.22026 -1.17087,-0.68051 -3.073047,-0.68051 -4.251325,0 -0.630414,0.36372 -0.921809,0.84843 -0.880534,1.32468 l -0.0074,-0.085" />
      <path
         inkscape:connector-curvature="0"
         id="path560"
         style="fill:#808080;fill-opacity:1;fill-rule:nonzero;stroke:none;stroke-width:0.03527778"
         d="m 90.9962,108.55413 0.0028,0.99201 0.733777,-0.42368 -0.0028,-0.99237 -0.733778,0.42404" />
      <path
         inkscape:connector-curvature="0"
         id="path562"
         style="fill:#4d4d4d;fill-opacity:1;fill-rule:nonzero;stroke:none;stroke-width:0.03527778"
         d="m 90.464917,108.24545 0.0028,0.99201 0.531284,0.30868 -0.0028,-0.99201 -0.531283,-0.30868" />
      <path
         inkscape:connector-curvature="0"
         id="path564"
         style="fill:#cccccc;fill-opacity:1;fill-rule:nonzero;stroke:none;stroke-width:0.03527778"
         d="m 90.545703,107.84928 c -0.992011,0.57221 -2.590447,0.57221 -3.573639,0 -0.204258,-0.11924 -0.367594,-0.25365 -0.484363,-0.39687 -0.288925,-0.34678 -0.326673,-0.74648 -0.113948,-1.10808 0.122414,-0.20708 0.326673,-0.40287 0.609953,-0.56621 0.988836,-0.57185 2.587625,-0.57185 3.573639,0 0.294569,0.17251 0.498828,0.3736 0.615244,0.58914 0.172156,0.31221 0.154517,0.65088 -0.04339,0.95991 -0.125942,0.19262 -0.318206,0.37077 -0.583495,0.52211 z m 0.647347,-2.06516 c -0.09031,-0.0699 -0.186619,-0.13723 -0.297391,-0.20108 -1.170164,-0.67981 -3.071989,-0.67981 -4.25062,0 -0.122413,0.0698 -0.233186,0.14569 -0.329847,0.22437 -0.813505,0.65934 -0.737658,1.57232 0.227895,2.1851 l 0.08749,0.0526 c 1.0414,0.6036 2.660649,0.67098 3.833283,0.20108 l 0.53093,0.30657 0.05821,-0.0321 0.67698,-0.39123 -0.528108,-0.30622 c 0.758472,-0.6096 0.758472,-1.4351 -0.0088,-2.03905" />
      <path
         inkscape:connector-curvature="0"
         id="path566"
         style="fill:#000000;fill-opacity:1;fill-rule:nonzero;stroke:none;stroke-width:0.03527778"
         d="m 91.207514,104.19697 h -5.058127 l 0.165805,1.61044 0.05856,0.53692 0.113948,1.10808 c 0.116769,0.14322 0.280105,0.27763 0.484363,0.39687 0.983192,0.57221 2.581628,0.57221 3.573639,0 0.265289,-0.15134 0.457553,-0.32949 0.583495,-0.52211 0.01728,-0.32385 0.03457,-0.64452 0.04339,-0.95991 0.0088,-0.19508 0.01764,-0.39052 0.02046,-0.58314 0.01446,-0.53975 0.02046,-1.0675 0.01446,-1.58715" />
      <path
         inkscape:connector-curvature="0"
         id="path568"
         style="fill:#666666;fill-opacity:1;fill-rule:nonzero;stroke:none;stroke-width:0.03527778"
         d="m 92.652492,111.01793 c 0.231069,-0.1651 0.296334,-0.48754 0.144992,-0.71896 l -0.24624,-0.37641 -0.245885,-0.37571 c -0.151694,-0.23142 -0.470959,-0.29704 -0.712259,-0.14605 -0.240947,0.15063 -0.309738,0.46813 -0.1524,0.70767 l 0.253295,0.38735 0.253647,0.38735 c 0.156986,0.23954 0.473075,0.30021 0.70485,0.13476 z m 0.371475,0.48684 c -0.494593,0.36724 -1.247069,0.27657 -1.586089,-0.27129 l -0.258586,-0.3937 -0.25788,-0.39405 c -0.352073,-0.53834 -0.200731,-1.2372 0.336197,-1.55752 0.53728,-0.32032 1.240367,-0.17639 1.566685,0.32174 l 0.241655,0.369 0.241652,0.36936 c 0.31115,0.508 0.226483,1.17828 -0.283634,1.55646" />
      <path
         inkscape:connector-curvature="0"
         id="path570"
         style="fill:#4d4d4d;fill-opacity:1;fill-rule:nonzero;stroke:none;stroke-width:0.03527778"
         d="m 92.100394,109.6107 -0.617007,-0.94192 -0.530225,0.31892 0.627944,0.9592 c 0.09349,0.14287 0.285044,0.18203 0.427568,0.0882 0.142168,-0.0945 0.183795,-0.28469 0.09172,-0.42439" />
      <path
         inkscape:connector-curvature="0"
         id="path572"
         style="fill:#4d4d4d;fill-opacity:1;fill-rule:nonzero;stroke:none;stroke-width:0.03527778"
         d="m 93.316774,111.37812 c -0.229307,-0.29739 -0.461082,-0.59337 -0.657225,-0.9137 -0.09172,-0.14005 -0.280813,-0.17603 -0.42263,-0.0808 -0.141462,0.096 -0.180268,0.28893 -0.08678,0.43216 0.200379,0.32596 0.435681,0.62688 0.668515,0.92956 l 0.498123,-0.36724" />
      <path
         inkscape:connector-curvature="0"
         id="path574"
         style="fill:#666666;fill-opacity:1;fill-rule:nonzero;stroke:none;stroke-width:0.03527778"
         d="m 94.691901,113.61332 c 0.216606,-0.1845 0.244123,-0.50412 0.06138,-0.71261 -0.101952,-0.11078 -0.192617,-0.23072 -0.282575,-0.34996 l -0.27305,-0.35807 c -0.167923,-0.22013 -0.488598,-0.25894 -0.714727,-0.0868 -0.226131,0.17216 -0.269171,0.49742 -0.0956,0.72496 l 0.280812,0.36724 c 0.09313,0.12312 0.185913,0.24624 0.290336,0.35948 0.188031,0.21484 0.516818,0.24024 0.733425,0.0557 z m 0.403225,0.46108 c -0.468842,0.41416 -1.193094,0.35948 -1.613607,-0.12277 -0.105833,-0.115 -0.200729,-0.23953 -0.29492,-0.36512 l -0.285398,-0.37289 c -0.389115,-0.50976 -0.294923,-1.2252 0.209902,-1.59455 0.505179,-0.36936 1.210733,-0.28399 1.572683,0.19085 l 0.268465,0.35207 c 0.08855,0.11783 0.177448,0.23566 0.277989,0.34431 0.394404,0.4505 0.333727,1.15429 -0.135114,1.5681" />
      <path
         inkscape:connector-curvature="0"
         id="path576"
         style="fill:#4d4d4d;fill-opacity:1;fill-rule:nonzero;stroke:none;stroke-width:0.03527778"
         d="m 94.000457,112.27382 -0.683683,-0.8957 -0.498123,0.36724 0.695325,0.91052 c 0.103364,0.13582 0.295275,0.15945 0.428977,0.0526 0.13335,-0.10654 0.159104,-0.30127 0.0575,-0.43462" />
      <path
         inkscape:connector-curvature="0"
         id="path578"
         style="fill:#4d4d4d;fill-opacity:1;fill-rule:nonzero;stroke:none;stroke-width:0.03527778"
         d="m 95.374878,113.92447 -0.742596,-0.84879 c -0.111125,-0.12523 -0.305858,-0.14181 -0.436388,-0.0356 -0.13476,0.10972 -0.152752,0.30304 -0.03951,0.43039 l 0.753533,0.86184 0.464961,-0.40781" />
      <path
         inkscape:connector-curvature="0"
         id="path580"
         style="fill:#666666;fill-opacity:1;fill-rule:nonzero;stroke:none;stroke-width:0.03527778"
         d="m 96.927807,116.04078 c 0.201787,-0.20037 0.206727,-0.52422 0.01164,-0.72178 l -0.317148,-0.32068 -0.31609,-0.32138 c -0.182385,-0.20884 -0.502354,-0.22366 -0.713669,-0.0332 -0.210608,0.1905 -0.229306,0.5207 -0.04127,0.73554 l 0.323498,0.32915 0.324202,0.32808 c 0.200377,0.20355 0.527757,0.20532 0.72884,0.004 z m 0.430742,0.43604 c -0.435682,0.44873 -1.155348,0.4445 -1.60373,-0.009 l -0.328787,-0.33303 -0.327731,-0.33372 c -0.421569,-0.48119 -0.380294,-1.20721 0.09137,-1.6182 0.471665,-0.41098 1.176163,-0.37853 1.569509,0.0727 l 0.311856,0.3168 0.31256,0.31609 c 0.422275,0.42721 0.410634,1.13982 -0.02506,1.58856" />
      <path
         inkscape:connector-curvature="0"
         id="path582"
         style="fill:#4d4d4d;fill-opacity:1;fill-rule:nonzero;stroke:none;stroke-width:0.03527778"
         d="m 96.117124,114.77361 -0.742246,-0.84914 -0.464961,0.40781 0.753182,0.86219 c 0.113593,0.1277 0.316087,0.12629 0.439208,0.0106 0.125587,-0.11854 0.125587,-0.30586 0.01482,-0.43145" />
      <path
         inkscape:connector-curvature="0"
         id="path584"
         style="fill:#4d4d4d;fill-opacity:1;fill-rule:nonzero;stroke:none;stroke-width:0.03527778"
         d="m 97.625249,116.30642 -0.793046,-0.80256 c -0.117827,-0.11924 -0.313619,-0.1203 -0.437092,-0.002 -0.123471,0.11817 -0.126294,0.3122 -0.0067,0.43321 l 0.804333,0.81421 0.432507,-0.44274" />
      <path
         inkscape:connector-curvature="0"
         id="path586"
         style="fill:#666666;fill-opacity:1;fill-rule:nonzero;stroke:none;stroke-width:0.03527778"
         d="m 99.331282,118.30385 c 0.186267,-0.21449 0.170744,-0.54081 -0.03528,-0.72707 l -0.334785,-0.30304 -0.334433,-0.30233 c -0.206023,-0.18627 -0.5334,-0.17074 -0.729544,0.0353 -0.195791,0.20602 -0.183091,0.52917 0.02787,0.72037 l 0.342194,0.30939 0.341841,0.30938 c 0.211667,0.19121 0.535517,0.17251 0.722137,-0.042 z m 0.460375,0.40393 c -0.409223,0.48437 -1.123598,0.52882 -1.594556,0.0998 l -0.346075,-0.31327 -0.346427,-0.31326 c -0.479073,-0.41945 -0.485423,-1.15429 -0.04516,-1.60196 0.43674,-0.4445 1.133827,-0.4572 1.587852,-0.0614 l 0.330555,0.29845 0.329845,0.2988 c 0.444859,0.40569 0.481539,1.12112 0.08396,1.59279" />
      <path
         inkscape:connector-curvature="0"
         id="path588"
         style="fill:#4d4d4d;fill-opacity:1;fill-rule:nonzero;stroke:none;stroke-width:0.03527778"
         d="m 98.442986,117.08324 c -0.281162,-0.25012 -0.559152,-0.50306 -0.817737,-0.77682 l -0.432507,0.44274 c 0.262467,0.27693 0.543984,0.53411 0.829027,0.7874 0.126296,0.1143 0.32244,0.10477 0.437798,-0.0212 0.115359,-0.12594 0.108302,-0.31926 -0.01659,-0.43215" />
      <path
         inkscape:connector-curvature="0"
         id="path590"
         style="fill:#4d4d4d;fill-opacity:1;fill-rule:nonzero;stroke:none;stroke-width:0.03527778"
         d="m 100.04707,118.51763 c -0.295984,-0.23318 -0.562684,-0.49988 -0.845259,-0.74788 -0.124529,-0.11289 -0.318558,-0.10125 -0.432858,0.0254 -0.114652,0.12664 -0.105127,0.32243 0.02151,0.43673 0.286102,0.25118 0.557035,0.52141 0.856192,0.75742 l 0.400405,-0.47167" />
      <path
         inkscape:connector-curvature="0"
         id="path592"
         style="fill:#666666;fill-opacity:1;fill-rule:nonzero;stroke:none;stroke-width:0.03527778"
         d="m 101.8861,120.39406 c 0.17462,-0.2286 0.12523,-0.53763 -0.0885,-0.71614 l -0.34996,-0.2854 -0.34995,-0.28504 c -0.21555,-0.17568 -0.53869,-0.14076 -0.72002,0.078 -0.18168,0.21872 -0.14958,0.54328 0.0713,0.7232 l 0.35701,0.29104 0.35736,0.29104 c 0.21872,0.18238 0.55281,0.12665 0.72284,-0.0967 z m 0.49283,0.36407 c -0.37042,0.49953 -1.09608,0.61136 -1.59632,0.22048 l -0.3616,-0.29457 -0.36159,-0.29457 c -0.492484,-0.4011 -0.562686,-1.11513 -0.156638,-1.59067 0.406048,-0.4759 1.116898,-0.55351 1.583968,-0.17251 l 0.34608,0.28187 0.34537,0.28222 c 0.47589,0.37113 0.57538,1.06257 0.20073,1.56775" />
      <path
         inkscape:connector-curvature="0"
         id="path594"
         style="fill:#4d4d4d;fill-opacity:1;fill-rule:nonzero;stroke:none;stroke-width:0.03527778"
         d="m 100.92301,119.2306 -0.87594,-0.71297 -0.400405,0.47167 0.886175,0.72178 c 0.13194,0.1076 0.32561,0.0871 0.43251,-0.0466 0.10654,-0.13335 0.0875,-0.32773 -0.0423,-0.43392" />
      <path
         inkscape:connector-curvature="0"
         id="path596"
         style="fill:#4d4d4d;fill-opacity:1;fill-rule:nonzero;stroke:none;stroke-width:0.03527778"
         d="m 102.62129,120.55246 c -0.30128,-0.22508 -0.60925,-0.44309 -0.90523,-0.67522 -0.13053,-0.10618 -0.32173,-0.0833 -0.42757,0.0508 -0.10583,0.13406 -0.085,0.32985 0.0473,0.43744 0.29987,0.23495 0.61102,0.45509 0.91582,0.68334 l 0.36971,-0.49636" />
      <path
         inkscape:connector-curvature="0"
         id="path598"
         style="fill:#666666;fill-opacity:1;fill-rule:nonzero;stroke:none;stroke-width:0.03527778"
         d="m 104.57179,122.31388 c 0.15875,-0.23601 0.0995,-0.55422 -0.13194,-0.70944 l -0.375,-0.25223 c -0.127,-0.0818 -0.2473,-0.17181 -0.3683,-0.26177 -0.22366,-0.16545 -0.54186,-0.11288 -0.70943,0.11713 -0.16722,0.22965 -0.11748,0.55421 0.11183,0.72284 0.12312,0.0917 0.24624,0.1838 0.375,0.26705 l 0.38206,0.25682 c 0.23636,0.15875 0.55739,0.0956 0.71578,-0.1404 z m 0.50871,0.34149 c -0.3422,0.52422 -1.04881,0.66251 -1.5748,0.30868 l -0.38629,-0.25929 c -0.13018,-0.0843 -0.25471,-0.17745 -0.37924,-0.26988 -0.51047,-0.37677 -0.62089,-1.09079 -0.24588,-1.59173 0.375,-0.50024 1.07526,-0.61595 1.56069,-0.25683 0.11959,0.0889 0.23882,0.17816 0.36441,0.25859 l 0.37077,0.24941 c 0.50201,0.33691 0.63183,1.03752 0.29034,1.56105" />
      <path
         inkscape:connector-curvature="0"
         id="path600"
         style="fill:#4d4d4d;fill-opacity:1;fill-rule:nonzero;stroke:none;stroke-width:0.03527778"
         d="m 103.53004,121.22379 -0.90875,-0.67133 -0.36971,0.49636 0.91969,0.67874 c 0.13652,0.1009 0.32737,0.0702 0.4258,-0.0699 0.0981,-0.1397 0.0684,-0.33408 -0.067,-0.43392" />
      <path
         inkscape:connector-curvature="0"
         id="path602"
         style="fill:#4d4d4d;fill-opacity:1;fill-rule:nonzero;stroke:none;stroke-width:0.03527778"
         d="m 105.30945,122.437 -0.93768,-0.63007 c -0.1397,-0.0938 -0.33197,-0.0561 -0.42933,0.0843 -0.0974,0.14041 -0.0621,0.33126 0.0794,0.42581 l 0.94826,0.63711 0.33938,-0.51717" />
      <path
         inkscape:connector-curvature="0"
         id="path604"
         style="fill:#666666;fill-opacity:1;fill-rule:nonzero;stroke:none;stroke-width:0.03527778"
         d="m 107.35803,124.08447 c 0.145,-0.24448 0.0695,-0.56198 -0.16827,-0.70767 l -0.38559,-0.23637 -0.38523,-0.236 c -0.23742,-0.1457 -0.55598,-0.0691 -0.70909,0.17039 -0.15381,0.23883 -0.0815,0.55456 0.16123,0.70344 l 0.39228,0.24024 0.39264,0.24059 c 0.24236,0.14852 0.55739,0.0702 0.70203,-0.17462 z m 0.52741,0.31185 c -0.31468,0.54716 -1.01212,0.72637 -1.55011,0.39194 l -0.39652,-0.24271 -0.39652,-0.24342 c -0.54505,-0.32314 -0.68616,-1.04669 -0.34255,-1.56633 0.34537,-0.52458 1.02694,-0.66358 1.54764,-0.3556 l 0.38135,0.23354 0.3817,0.23389 c 0.5133,0.31962 0.68404,1.01106 0.37501,1.54869" />
      <path
         inkscape:connector-curvature="0"
         id="path606"
         style="fill:#4d4d4d;fill-opacity:1;fill-rule:nonzero;stroke:none;stroke-width:0.03527778"
         d="m 106.25948,123.04871 c -0.3242,-0.19226 -0.63923,-0.39828 -0.95003,-0.61171 l -0.33937,0.51717 c 0.31397,0.21555 0.63253,0.42439 0.96026,0.61842 0.14499,0.0889 0.33585,0.0434 0.4258,-0.10196 0.09,-0.14499 0.0469,-0.33443 -0.0967,-0.42192" />
      <path
         inkscape:connector-curvature="0"
         id="path608"
         style="fill:#4d4d4d;fill-opacity:1;fill-rule:nonzero;stroke:none;stroke-width:0.03527778"
         d="m 108.10275,124.16349 c -0.33232,-0.1778 -0.647,-0.38594 -0.97014,-0.57961 -0.14323,-0.0878 -0.33161,-0.0409 -0.42087,0.10477 -0.0893,0.1457 -0.0437,0.33585 0.10125,0.42475 0.32667,0.19579 0.64453,0.40604 0.98037,0.58561 l 0.30939,-0.53552" />
      <path
         inkscape:connector-curvature="0"
         id="path610"
         style="fill:#666666;fill-opacity:1;fill-rule:nonzero;stroke:none;stroke-width:0.03527778"
         d="m 110.24411,125.68749 c 0.13088,-0.25259 0.0353,-0.56092 -0.21273,-0.68721 -0.13546,-0.0663 -0.26493,-0.14429 -0.39687,-0.21661 l -0.39476,-0.22084 c -0.24306,-0.13581 -0.55492,-0.0452 -0.69427,0.20285 -0.14005,0.2473 -0.0519,0.56163 0.1965,0.70027 l 0.40146,0.22472 c 0.13476,0.0737 0.266,0.15275 0.40429,0.22048 0.25329,0.12912 0.5655,0.0289 0.69638,-0.22366 z m 0.54574,0.27834 c -0.28081,0.5588 -0.96837,0.77964 -1.53246,0.49178 -0.13935,-0.0684 -0.27235,-0.14817 -0.40852,-0.22261 l -0.40569,-0.22719 c -0.55245,-0.30903 -0.74648,-1.00083 -0.43251,-1.54128 0.31433,-0.54116 0.99977,-0.74084 1.52753,-0.44556 l 0.39088,0.21837 c 0.13052,0.072 0.25823,0.14887 0.39264,0.21449 0.53869,0.27446 0.74895,0.9532 0.46813,1.512" />
      <path
         inkscape:connector-curvature="0"
         id="path612"
         style="fill:#4d4d4d;fill-opacity:1;fill-rule:nonzero;stroke:none;stroke-width:0.03527778"
         d="m 109.08947,124.71523 -0.98672,-0.55174 -0.30939,0.53552 0.9966,0.55774 c 0.14852,0.0833 0.33549,0.0286 0.41698,-0.12136 0.0815,-0.14993 0.0289,-0.33831 -0.11747,-0.42016" />
      <path
         inkscape:connector-curvature="0"
         id="path614"
         style="fill:#4d4d4d;fill-opacity:1;fill-rule:nonzero;stroke:none;stroke-width:0.03527778"
         d="m 110.99305,125.72242 -1.00647,-0.51365 c -0.15064,-0.0744 -0.33479,-0.0198 -0.41557,0.13053 -0.0811,0.15028 -0.0268,0.34043 0.12594,0.41628 l 1.01741,0.51893 0.27869,-0.55209" />
      <path
         inkscape:connector-curvature="0"
         id="path616"
         style="fill:#666666;fill-opacity:1;fill-rule:nonzero;stroke:none;stroke-width:0.03527778"
         d="m 113.21414,127.12894 c 0.11571,-0.25964 0.005,-0.56621 -0.24765,-0.68333 l -0.41028,-0.18979 -0.40992,-0.19015 c -0.254,-0.11395 -0.55739,-0.0106 -0.68298,0.24412 -0.12559,0.25541 -0.0222,0.56903 0.23707,0.6858 l 0.41804,0.19368 0.41733,0.19367 c 0.25824,0.11959 0.56268,0.006 0.67839,-0.254 z m 0.55986,0.24871 c -0.24941,0.57961 -0.92286,0.8382 -1.49648,0.56762 l -0.42192,-0.19579 -0.42228,-0.1958 c -0.57538,-0.26634 -0.79622,-0.96978 -0.51541,-1.52223 0.2854,-0.56268 0.94721,-0.77717 1.49578,-0.52388 l 0.40534,0.18804 0.4057,0.18802 c 0.54645,0.25824 0.79445,0.92428 0.54927,1.49402" />
      <path
         inkscape:connector-curvature="0"
         id="path618"
         style="fill:#4d4d4d;fill-opacity:1;fill-rule:nonzero;stroke:none;stroke-width:0.03527778"
         d="m 112.00447,126.22724 c -0.34431,-0.15346 -0.67381,-0.33761 -1.01142,-0.50482 l -0.27869,0.55209 c 0.34114,0.16898 0.67416,0.3549 1.022,0.51012 0.15416,0.0716 0.33867,0.005 0.41169,-0.14993 0.073,-0.15417 0.008,-0.3369 -0.14358,-0.40746" />
      <path
         inkscape:connector-curvature="0"
         id="path620"
         style="fill:#4d4d4d;fill-opacity:1;fill-rule:nonzero;stroke:none;stroke-width:0.03527778"
         d="m 113.96309,127.12153 c -0.34995,-0.13899 -0.68721,-0.30832 -1.03011,-0.46355 -0.15205,-0.0709 -0.33443,-0.003 -0.4064,0.1524 -0.0723,0.15487 -0.005,0.33832 0.14887,0.40993 0.34678,0.15734 0.68757,0.32773 1.04175,0.4692 l 0.24589,-0.56798" />
      <path
         inkscape:connector-curvature="0"
         id="path622"
         style="fill:#666666;fill-opacity:1;fill-rule:nonzero;stroke:none;stroke-width:0.03527778"
         d="m 116.26885,128.38024 c 0.0988,-0.2667 -0.0328,-0.56268 -0.29316,-0.65969 l -0.42263,-0.15804 -0.41698,-0.17357 c -0.25647,-0.1076 -0.55457,0.0187 -0.66428,0.28081 -0.11042,0.26211 0.0141,0.5648 0.27693,0.67486 l 0.4251,0.1771 0.4325,0.16122 c 0.26705,0.0998 0.56445,-0.0356 0.66252,-0.30269 m 0.57397,0.21414 c -0.20673,0.59055 -0.86113,0.8897 -1.45839,0.6664 l -0.43779,-0.16369 -0.43075,-0.17921 c -0.58596,-0.24518 -0.85936,-0.91158 -0.6096,-1.48485 0.25012,-0.57326 0.90664,-0.85054 1.46262,-0.61736 l 0.41169,0.17181 0.41663,0.15522 c 0.56304,0.21026 0.85267,0.86148 0.64559,1.45168" />
      <path
         inkscape:connector-curvature="0"
         id="path624"
         style="fill:#4d4d4d;fill-opacity:1;fill-rule:nonzero;stroke:none;stroke-width:0.03527778"
         d="m 115.0052,127.55757 -1.04211,-0.43604 -0.24589,0.56798 1.05446,0.44132 c 0.15734,0.0656 0.33619,-0.01 0.39934,-0.16863 0.0631,-0.15839 -0.0109,-0.33972 -0.1658,-0.40463" />
      <path
         inkscape:connector-curvature="0"
         id="path626"
         style="fill:#4d4d4d;fill-opacity:1;fill-rule:nonzero;stroke:none;stroke-width:0.03527778"
         d="m 117.01356,128.32803 -1.05727,-0.39476 c -0.15734,-0.0586 -0.33514,0.0229 -0.39723,0.18204 -0.0624,0.15875 0.0166,0.3362 0.17639,0.39581 l 1.07174,0.40041 0.20637,-0.5835" />
      <path
         inkscape:connector-curvature="0"
         id="path628"
         style="fill:#666666;fill-opacity:1;fill-rule:nonzero;stroke:none;stroke-width:0.03527778"
         d="m 119.40751,129.40189 c 0.0737,-0.27446 -0.0825,-0.55774 -0.34819,-0.63042 -0.14429,-0.0399 -0.28893,-0.0769 -0.43074,-0.12629 l -0.42792,-0.14005 c -0.26317,-0.0857 -0.55104,0.0639 -0.64171,0.33337 -0.091,0.26917 0.0564,0.56021 0.32809,0.64911 l 0.43991,0.14358 c 0.14535,0.0504 0.29528,0.0892 0.4445,0.13053 0.27693,0.0762 0.56233,-0.0854 0.63606,-0.35983 m 0.59055,0.16228 c -0.14676,0.60825 -0.77435,0.96379 -1.39912,0.79166 -0.1524,-0.0424 -0.30585,-0.0818 -0.45331,-0.13296 l -0.44698,-0.1458 c -0.60889,-0.20038 -0.9345,-0.83711 -0.72107,-1.43224 0.20884,-0.58244 0.84455,-0.91581 1.41146,-0.72884 l 0.42086,0.13758 c 0.1397,0.049 0.28082,0.0847 0.42193,0.12383 0.56938,0.15628 0.91299,0.77858 0.76623,1.38677" />
      <path
         inkscape:connector-curvature="0"
         id="path630"
         style="fill:#4d4d4d;fill-opacity:1;fill-rule:nonzero;stroke:none;stroke-width:0.03527778"
         d="m 118.08283,128.68363 c -0.3563,-0.11924 -0.71614,-0.22683 -1.06927,-0.3556 l -0.20637,0.5835 c 0.35806,0.13053 0.7246,0.24024 1.08655,0.36124 0.16228,0.0529 0.33514,-0.0363 0.38594,-0.19932 0.0504,-0.16298 -0.0378,-0.33761 -0.19685,-0.38982" />
      <path
         inkscape:connector-curvature="0"
         id="path632"
         style="fill:#4d4d4d;fill-opacity:1;fill-rule:nonzero;stroke:none;stroke-width:0.03527778"
         d="m 120.14129,129.283 -1.08374,-0.29809 c -0.16086,-0.0441 -0.33196,0.0522 -0.381,0.2159 -0.0494,0.16368 0.0444,0.33302 0.20955,0.37852 l 1.10738,0.3041 0.14781,-0.60043" />
      <path
         inkscape:connector-curvature="0"
         id="path634"
         style="fill:#44948b;fill-opacity:1;fill-rule:nonzero;stroke:none;stroke-width:0.03527778"
         d="m 125.90462,118.69649 v 14.26383 c 0.004,0.93239 -0.78917,1.86792 -2.38125,2.4335 -1.6062,0.56938 -3.37997,0.56938 -4.98616,0 -1.59562,-0.56558 -2.38831,-1.50111 -2.38161,-2.4335 v -14.26383 c 0,-1.52611 0.8248,-3.02401 1.58927,-4.34763 l 0.46108,-0.79939 c 0.61101,-1.29823 0.7493,-4.34376 0.79199,-5.29943 l -0.0208,-1.70286 -0.004,-0.69462 -0.003,-0.26882 -0.007,-0.69497 -0.004,-0.56585 h 4.13773 l -0.004,0.56585 -0.007,0.68121 -0.004,0.29634 -0.004,0.68086 -0.0208,0.92675 c -0.0141,1.6129 -0.0145,4.68206 0.79198,6.07871 l 0.46073,0.79622 c 0.76447,1.31974 1.59279,2.82152 1.59279,4.34763" />
      <path
         inkscape:connector-curvature="0"
         id="path636"
         style="fill:#dff1f5;fill-opacity:1;fill-rule:nonzero;stroke:none;stroke-width:0.03527778"
         d="m 125.90462,120.9511 v 7.91774 c -0.0102,0.71226 -0.48542,1.42483 -1.42804,1.96917 -1.90289,1.09996 -4.98934,1.09996 -6.89258,0 -0.47166,-0.27231 -0.82761,-0.58663 -1.06539,-0.92177 -0.23706,-0.33514 -0.35595,-0.69145 -0.36301,-1.0474 v -7.91774 c 0.0109,0.71261 0.48543,1.42487 1.4284,1.9692 1.90324,1.09996 4.98969,1.09996 6.89258,0 0.94262,-0.54433 1.41781,-1.25659 1.42451,-1.9692 h 0.004" />
      <path
         inkscape:connector-curvature="0"
         id="path638"
         style="fill:#ea3b5b;fill-opacity:1;fill-rule:nonzero;stroke:none;stroke-width:0.03527778"
         d="m 121.03029,130.81691 c -1.13912,0 -2.24085,-0.25932 -3.02331,-0.71158 -0.35172,-0.20327 -0.62724,-0.43745 -0.79728,-0.6784 -0.13405,-0.18908 -0.20425,-0.38241 -0.20778,-0.57432 l 2.6e-4,-5.29449 c 0.0512,0.0321 0.10408,0.0639 0.15805,0.0949 1.0474,0.60537 2.42147,0.93839 3.86997,0.93839 1.44816,0 2.82258,-0.33302 3.86997,-0.93839 0.054,-0.031 0.10654,-0.0628 0.1584,-0.0949 v 5.05531 l -0.004,0.24694 c -0.004,0.42581 -0.36936,0.87913 -1.00188,1.24496 -0.78247,0.45226 -1.88384,0.71158 -3.02296,0.71158" />
      <path
         inkscape:connector-curvature="0"
         id="path640"
         style="fill:#66cac5;fill-opacity:1;fill-rule:nonzero;stroke:none;stroke-width:0.03527778"
         d="m 117.71841,134.47134 c -0.75812,-0.39589 -1.04987,-0.84956 -1.0474,-1.16071 v -3.20103 c 0.2286,0.26278 0.53305,0.50902 0.91299,0.72841 0.0441,0.0258 0.0889,0.0505 0.13441,0.0748 v 3.55851 m 0,-11.47625 c -0.0455,-0.0243 -0.0903,-0.049 -0.13441,-0.0748 -0.38029,-0.21943 -0.68474,-0.46637 -0.91299,-0.7299 v -3.15136 c 0,-1.33985 0.77753,-2.66171 1.44886,-3.82341 l 0.46108,-0.8001 c 0.9017,-1.54975 0.94792,-6.42126 0.93239,-8.22537 l -0.0212,0.69074 -0.004,-0.69074 -0.005,-0.7306 c 0.25788,0.20497 0.66887,0.32738 1.03964,0.32738 0.004,0 0.008,0 0.0124,0 l 0.005,0.79586 0.0212,-0.58243 c 0.0155,1.93851 -0.0307,7.01111 -0.93239,8.67657 l -0.46144,0.86042 c -0.67098,1.24848 -1.44885,2.66912 -1.44885,4.10881 v 3.34892" />
      <path
         inkscape:connector-curvature="0"
         id="path642"
         style="fill:#eff8fa;fill-opacity:1;fill-rule:nonzero;stroke:none;stroke-width:0.03527778"
         d="m 117.71841,130.91283 c -0.0455,-0.0244 -0.0903,-0.049 -0.13441,-0.0748 -0.37994,-0.21939 -0.68439,-0.46563 -0.91299,-0.72841 v -7.91919 c 0.22825,0.26352 0.5327,0.51047 0.91299,0.72989 0.0441,0.0257 0.0889,0.0505 0.13441,0.0748 v 0.94157 c -0.19473,-0.0868 -0.381,-0.18133 -0.55809,-0.28363 -0.054,-0.031 -0.10689,-0.0628 -0.15805,-0.0949 l -2.6e-4,5.29449 c 0.004,0.19191 0.0737,0.38523 0.20778,0.57432 0.1203,0.17039 0.29316,0.3376 0.50871,0.49248 v 0.99342" />
      <path
         inkscape:connector-curvature="0"
         id="path644"
         style="fill:#f55989;fill-opacity:1;fill-rule:nonzero;stroke:none;stroke-width:0.03527778"
         d="m 117.71841,129.91941 c -0.21555,-0.15487 -0.38841,-0.32208 -0.50871,-0.49248 -0.13405,-0.18908 -0.20425,-0.38241 -0.20778,-0.57432 l 2.6e-4,-5.29449 c 0.0512,0.0321 0.10408,0.0639 0.15805,0.0949 0.17709,0.10231 0.36336,0.19685 0.55809,0.28364 v 5.98276" />
      <path
         inkscape:connector-curvature="0"
         id="path646"
         style="fill:#ea3b5b;fill-opacity:1;fill-rule:nonzero;stroke:none;stroke-width:0.03527778"
         d="m 122.49608,103.47801 c -0.80998,-0.46743 -2.12337,-0.46743 -2.93335,0 -0.80998,0.46779 -0.80998,1.22591 0,1.69404 0.80998,0.46743 2.12337,0.46743 2.93335,0 0.81033,-0.46813 0.81033,-1.22625 0,-1.69404" />
      <path
         inkscape:connector-curvature="0"
         id="path648"
         style="fill:#ea3b5b;fill-opacity:1;fill-rule:nonzero;stroke:none;stroke-width:0.03527778"
         d="m 122.49679,104.80128 c -0.40535,0.23389 -0.93557,0.3489 -1.4665,0.3489 -0.53058,0 -1.06151,-0.11501 -1.46685,-0.3489 -0.34184,-0.19932 -0.54116,-0.4505 -0.58985,-0.7052 l 0.004,1.96356 c 0.11184,0.11536 0.25118,0.22013 0.4117,0.31468 0.44379,0.2547 1.02658,0.3944 1.64147,0.3944 0.61454,0 1.19768,-0.1397 1.64112,-0.3944 0.16052,-0.0945 0.29669,-0.19579 0.40852,-0.31468 l 0.004,-1.9498 c -0.0526,0.25153 -0.248,0.49565 -0.58667,0.69144" />
      <path
         inkscape:connector-curvature="0"
         id="path650"
         style="fill:#fcaf75;fill-opacity:1;fill-rule:nonzero;stroke:none;stroke-width:0.03527778"
         d="m 121.15694,63.641645 0.26458,-0.69109 -0.97367,-2.11596 -0.80504,0.33725 1.51413,2.4698" />
      <path
         inkscape:connector-curvature="0"
         id="path652"
         style="fill:#e6e6e6;fill-opacity:1;fill-rule:nonzero;stroke:none;stroke-width:0.03527778"
         d="m 119.3941,76.974525 -1.05127,-0.0247 -1.10455,-0.0247 -0.37359,-0.0106 -4.36386,2.03906 -2.92806,1.36878 c -0.68439,0.0247 -1.21355,-0.16228 -1.53811,-0.63148 -1.00189,-1.28764 -0.50094,-2.54 0.89253,-3.76766 l 2.08844,-1.36878 4.15925,-2.7305 c 0.0917,-0.06 0.18345,-0.11289 0.2787,-0.15522 0.9525,-0.45509 2.01789,-0.16228 3.09033,0.15522 l 0.85019,5.15055" />
      <path
         inkscape:connector-curvature="0"
         id="path654"
         style="fill:#cbcbcb;fill-opacity:1;fill-rule:nonzero;stroke:none;stroke-width:0.03527778"
         d="m 112.3703,76.540615 -0.47942,-0.70274 1.77623,-3.02401 1.50777,-0.98989 c 0.0917,-0.06 0.18345,-0.11289 0.2787,-0.15522 l -3.08328,4.87186 m -1.18286,-1.7339 -0.17181,-0.25224 0.5207,-0.34184 -0.34889,0.59408" />
      <path
         inkscape:connector-curvature="0"
         id="path656"
         style="fill:#b3b3b3;fill-opacity:1;fill-rule:nonzero;stroke:none;stroke-width:0.03527778"
         d="m 117.43795,94.332965 c 6.87917,-0.21873 8.46667,1.74307 11.59087,4.29118 l -1.57692,-9.01947 -10.01395,4.72829" />
      <path
         inkscape:connector-curvature="0"
         id="path658"
         style="fill:#000000;fill-opacity:1;fill-rule:nonzero;stroke:none;stroke-width:0.03527778"
         d="m 130.6008,111.86566 0.69109,2.1022 0.41486,3.04236 v 2.79329 c 0.007,0.49142 0.14711,0.84843 0.49778,0.99554 0.86747,0.25612 2.1022,0.0864 2.79364,-0.5528 0.71896,-0.91299 0.59091,-2.29377 0.4699,-3.568 l -0.95285,-3.09739 -0.54046,-1.0234 -0.94015,-1.57657 -2.26801,0.88477 h -0.1658" />
      <path
         inkscape:connector-curvature="0"
         id="path660"
         style="fill:#000000;fill-opacity:1;fill-rule:nonzero;stroke:none;stroke-width:0.03527778"
         d="m 110.69143,107.71734 c 2.08527,-0.75459 2.40524,-0.9271 3.80012,-1.6383 0.0515,-0.0261 0.13688,0.0205 0.27552,0.067 0.25612,0.0861 0.69321,0.17216 1.42769,-0.20249 0.86431,-0.14182 0.95039,-2.3421 -0.073,-3.54577 -0.15028,-0.44098 -0.49071,-0.53164 -0.52881,-0.95109 -0.31997,0.25682 -0.67416,0.40464 -1.05939,0.46002 -0.54081,0.0826 -1.03152,-0.98531 -1.6757,-1.21849 0.0233,0.12488 -0.43497,1.24177 -0.47096,1.36278 -0.61383,2.0648 -1.29257,2.26201 -3.18099,3.24026 -2.22462,1.15147 -1.02976,3.07446 1.48554,2.42605" />
      <path
         inkscape:connector-curvature="0"
         id="path662"
         style="fill:#3c3c3b;fill-opacity:1;fill-rule:nonzero;stroke:none;stroke-width:0.03527778"
         d="m 134.99535,114.5757 c -0.11183,0.70802 -1.86126,2.69733 -3.66395,0.62371 -1.16946,-2.88431 -1.73672,-6.50205 -2.65077,-10.64966 -1.64642,-3.02789 -1.74943,-6.748275 -1.83339,-11.700225 l -0.28399,-1.10419 c -4.84928,2.17382 -7.11623,3.09668 -11.02959,3.39619 0.80433,3.63608 0.36794,3.68582 0.69814,7.403035 -0.3055,0.25259 -0.60501,0.44627 -0.89499,0.5835 -1.66829,0.80433 -3.02472,-0.0564 -3.11186,-0.32138 -0.99518,-2.943925 -1.21355,-5.937605 -1.56597,-8.582025 -0.1711,-2.19251 5.02708,-6.29003 11.76937,-7.52193 0.20884,-0.0342 0.41451,-0.0684 0.61736,-0.10265 0.0624,0.0748 0.12806,0.1464 0.1905,0.21484 0.31785,0.32773 0.69497,0.58667 1.11301,0.79269 0.0593,0.0279 0.11853,0.0557 0.1778,0.084 0.1838,0.0776 0.37395,0.14958 0.56762,0.20567 0.0684,0.0219 0.13088,0.0406 0.19932,0.0561 0.078,0.0222 0.15628,0.0406 0.23424,0.0593 1.47814,0.33372 3.17465,0.1531 4.45912,-0.34573 0.25258,-0.10018 0.48965,-0.20919 0.70802,-0.3309 0.502,-0.28081 0.89182,-0.61736 1.11019,-0.99483 0.42404,0.33055 0.77012,0.70767 1.04775,1.12253 0.79199,1.17581 1.01071,2.69135 0.66111,4.53461 l -0.009,0.0653 c 0.46425,3.04976 0.29633,5.17349 -0.26847,8.136105 l -0.0529,3.76414 c 0.84491,0.89817 1.98332,7.42774 1.81152,10.61191" />
      <path
         inkscape:connector-curvature="0"
         id="path664"
         style="fill:#3c3c3b;fill-opacity:1;fill-rule:nonzero;stroke:none;stroke-width:0.03527778"
         d="m 123.04712,86.601485 c 0.0656,0.0698 0.12912,0.14181 0.1905,0.21378 0.1972,0.22895 0.36653,0.46426 0.52141,0.70556 0.88794,1.37336 1.26541,2.89066 2.80352,4.22592 l 1.16558,0.58244 c 0.248,-0.65687 0.99589,-1.09749 1.89477,-1.28835 1.36243,-0.28998 3.07022,-0.008 3.89255,0.95779 0.4385,-1.72261 0.47695,-4.07916 -1.70815,-5.65573 -2.60844,2.47721 -5.88046,2.06622 -8.76018,0.25859" />
      <path
         inkscape:connector-curvature="0"
         id="path666"
         style="fill:#212120;fill-opacity:1;fill-rule:nonzero;stroke:none;stroke-width:0.03527778"
         d="m 115.33681,103.12806 -0.7359,-1.11972 -0.0684,-0.10301 c 0.59549,-2.659945 0.53622,-5.304365 -0.19967,-7.930435 1.48872,-0.3048 2.88819,-0.9518 4.12997,-1.72332 0.21837,0.49318 0.44485,1.04598 0.69497,1.65629 2.13078,-0.64206 4.14514,-1.9752 6.09918,-3.68653 2.6e-4,2.6e-4 2.6e-4,7.9e-4 7.9e-4,0.001 0.18168,0.66146 0.32561,1.29293 0.4445,1.90782 -2.31951,1.03152 -4.03542,1.74802 -5.70724,2.23203 -1.40652,0.40781 -2.78236,0.65087 -4.46123,0.77928 v 0 0 c 0.80434,3.63608 0.36795,3.68582 0.69815,7.403045 -0.3055,0.25258 -0.60501,0.44626 -0.895,0.58349 v 0" />
      <path
         inkscape:connector-curvature="0"
         id="path668"
         style="fill:#212120;fill-opacity:1;fill-rule:nonzero;stroke:none;stroke-width:0.03527778"
         d="m 125.25763,90.222395 c -2.7e-4,-2.7e-4 -2.7e-4,-8e-4 -8e-4,-0.001 h 2.7e-4 c 0,2.6e-4 2.6e-4,7.9e-4 2.6e-4,0.001" />
      <path
         inkscape:connector-curvature="0"
         id="path670"
         style="fill:#ea3b5b;fill-opacity:1;fill-rule:nonzero;stroke:none;stroke-width:0.03527778"
         d="m 122.45904,86.342895 -3.87456,-6.0198 -1.71979,-5.04013 0.52916,-3.175 5.03309,0.35948 5.41796,1.58079 2.16076,2.42535 0.70556,2.84515 1.6383,7.51558 c -0.49178,2.99861 -8.97749,3.62444 -9.89048,-0.49142" />
      <path
         inkscape:connector-curvature="0"
         id="path672"
         style="fill:#e6e6e6;fill-opacity:1;fill-rule:nonzero;stroke:none;stroke-width:0.03527778"
         d="m 134.03438,95.022645 -0.38805,2.81869 -0.41981,3.062105 c -1.10772,-2.578795 -3.62303,-3.792355 -6.42408,-0.82197 -0.67734,-3.728855 -0.58914,-6.381745 -1.54517,-9.860135 -1.95439,1.71097 -3.96875,3.04447 -6.09953,3.68653 -1.25589,-3.06564 -1.91558,-4.67784 -3.98286,-4.572 l 5.89492,-3.80647 c 0,0 -0.37042,-0.62442 -0.79728,-1.2947 -0.21519,-0.33514 -0.44097,-0.68439 -0.64558,-0.97014 -1.0795,-1.524 -1.9297,-4.4838 -2.38866,-6.33941 -0.13723,-0.54681 -0.23601,-0.99484 -0.29951,-1.28412 -0.0494,-0.2293 -0.0741,-0.3563 -0.0741,-0.3563 v -3.57364 l 1.67922,0.11289 4.28978,0.28575 5.00945,1.94028 0.51505,0.40922 c 1.19945,0.95955 2.02495,2.30717 2.34245,3.81 l 1.39346,6.61105 0.61737,1.82387 c 1.37583,2.05669 1.35819,5.20347 1.32291,8.3185" />
      <path
         inkscape:connector-curvature="0"
         id="path674"
         style="fill:#cbcbcb;fill-opacity:1;fill-rule:nonzero;stroke:none;stroke-width:0.03527778"
         d="m 112.50083,78.953615 4.43794,-3.31259 c 0.0635,0.28928 0.16228,0.73731 0.29951,1.28412 l -0.37359,-0.0106 -4.36386,2.03905" />
      <path
         inkscape:connector-curvature="0"
         id="path676"
         style="fill:#cbcbcb;fill-opacity:1;fill-rule:nonzero;stroke:none;stroke-width:0.03527778"
         d="m 119.91692,83.527375 c -0.0974,-0.0861 -0.19403,-0.17356 -0.28998,-0.26282 v 0 c -1.0795,-1.524 -1.9297,-4.4838 -2.38866,-6.33941 v 0 c -0.13723,-0.54681 -0.23601,-0.99484 -0.29951,-1.28412 l 1.63689,-1.22061 c -0.15522,0.84314 -0.23283,1.68628 -0.23283,2.52942 0,2.18899 0.52387,4.37797 1.57409,6.57754" />
      <path
         inkscape:connector-curvature="0"
         id="path678"
         style="fill:#fcaf75;fill-opacity:1;fill-rule:nonzero;stroke:none;stroke-width:0.03527778"
         d="m 118.54991,74.180525 1.48378,2.36009 c 0.54399,1.38959 2.95451,1.38959 3.72992,-1.18004 l -1.96603,-3.56588 -3.24767,2.38583" />
      <path
         inkscape:connector-curvature="0"
         id="path680"
         style="fill:#fcaf75;fill-opacity:1;fill-rule:nonzero;stroke:none;stroke-width:0.03527778"
         d="m 120.10601,67.080875 c -3.24132,0.4632 -3.62761,3.62268 -3.50591,4.63021 0.16863,1.39629 0.70556,3.04271 0.70556,3.04271 0,0 0.63253,1.76565 1.5875,1.78647 1.23472,0.0272 2.61655,-1.07069 2.89454,-1.4284 0.27834,-0.35772 0.43992,-1.31022 0.43992,-1.31022 0,0 1.0167,-0.3496 1.34584,-0.87065 0.32844,-0.5207 0.61454,-2.3047 0.14852,-3.49074 -0.48507,-1.23472 -1.78858,-2.62043 -3.61597,-2.35938" />
      <path
         inkscape:connector-curvature="0"
         id="path682"
         style="fill:#000000;fill-opacity:1;fill-rule:nonzero;stroke:none;stroke-width:0.03527778"
         d="m 116.49004,71.711085 c 0.091,0.68368 1.75295,2.39324 4.72969,1.18075 l 0.1651,0.83679 0.8061,-0.42792 0.20814,0.61524 1.32291,-0.77152 c 0,0 0.61913,-1.72438 0.37465,-2.80035 -0.24447,-1.07598 -0.65793,-2.63702 -2.02847,-3.09563 -2.67441,-0.895 -4.17477,0.35878 -4.91666,1.35396 -0.97014,1.30069 -0.71861,2.68217 -0.66146,3.10868" />
      <path
         inkscape:connector-curvature="0"
         id="path684"
         style="fill:#31386b;fill-opacity:1;fill-rule:nonzero;stroke:none;stroke-width:0.03527778"
         d="m 121.15694,77.200305 -1.31551,1.05939 1.4993,3.02013 0.92463,1.60232 1.14794,-4.13738 -0.57926,-0.89711 -1.6771,-0.64735" />
      <path
         inkscape:connector-curvature="0"
         id="path686"
         style="fill:#444e94;fill-opacity:1;fill-rule:nonzero;stroke:none;stroke-width:0.03527778"
         d="m 119.85977,76.264035 c 0.15734,0.3048 0.6216,0.61771 1.29717,0.93627 0.96237,-0.381 1.893,-1.22872 2.80952,-2.29235 l 0.43885,2.0948 -2.27153,1.47743 -0.97684,-1.27988 -0.43392,1.27988 -1.32892,-1.08444 0.46567,-1.13171" />
      <path
         inkscape:connector-curvature="0"
         id="path688"
         style="fill:#ffffff;fill-opacity:1;fill-rule:nonzero;stroke:none;stroke-width:0.03527778"
         d="m 123.96646,73.915945 c -1.11972,2.48144 -1.5935,5.62116 -1.70709,9.12813 l 2.23414,-5.15938 -0.0882,-0.68439 1.49931,-0.93627 -0.83785,-2.15935 -1.10031,-0.18874" />
      <path
         inkscape:connector-curvature="0"
         id="path690"
         style="fill:#ffffff;fill-opacity:1;fill-rule:nonzero;stroke:none;stroke-width:0.03527778"
         d="m 118.90022,75.892915 c 0.5468,2.6797 1.81504,5.01121 3.36514,6.98923 -1.06962,-2.16605 -2.11243,-4.51414 -1.99284,-6.98923 h -1.3723" />
      <path
         inkscape:connector-curvature="0"
         id="path692"
         style="fill:#fcaf75;fill-opacity:1;fill-rule:nonzero;stroke:none;stroke-width:0.03527778"
         d="m 121.87519,72.449445 c 0.19544,-0.41945 0.81033,-0.44062 0.90699,0.0113 0.12101,0.56339 -0.11394,1.1229 -0.19226,1.27988 -0.0684,0.13688 -0.19015,0.25365 -0.33937,0.28293 -0.15417,0.03 -0.3228,-0.0427 -0.4064,-0.17533 -0.23636,-0.37571 -0.14252,-1.02588 0.0311,-1.39876" />
      <path
         inkscape:connector-curvature="0"
         id="path694"
         style="fill:#000000;fill-opacity:1;fill-rule:nonzero;stroke:none;stroke-width:0.03527778"
         d="m 117.30566,74.753795 0.22049,0.45191 c 0.39687,-0.0462 1.24565,0.19861 1.69792,0.4191 0.40781,0.19896 1.56068,-0.17886 1.94733,-0.7239 0.26952,-0.37959 0.21343,-1.17228 0.21343,-1.17228 l 0.38241,-0.96908 0.36689,1.47813 c 0,0 -0.0861,0.97402 -0.19826,1.34127 -0.23319,0.76235 -1.11407,1.31268 -1.64994,1.53423 -0.53552,0.22119 -1.30034,0.35313 -1.65735,0.24235 -0.35701,-0.11077 -0.69815,-0.33055 -0.89676,-0.81491 -0.14182,-0.34572 -0.42616,-1.78682 -0.42616,-1.78682" />
      <path
         inkscape:connector-curvature="0"
         id="path696"
         style="fill:#fcaf75;fill-opacity:1;fill-rule:nonzero;stroke:none;stroke-width:0.03527778"
         d="m 112.71955,74.180525 0.51823,0.61737 -0.16545,1.25694 c -0.0882,0.48578 -0.70168,0.48578 -0.71649,0.2092 l -0.15452,-0.97014 0.51823,-1.11337" />
      <path
         inkscape:connector-curvature="0"
         id="path698"
         style="fill:#fcaf75;fill-opacity:1;fill-rule:nonzero;stroke:none;stroke-width:0.03527778"
         d="m 118.16185,75.612805 c 0.13759,0.042 0.27588,0.0836 0.41381,0.12594 0.11465,0.0346 0.23248,0.0716 0.32456,0.15417 0.0522,0.0469 0.0963,0.11465 0.0917,0.18873 -0.005,0.0938 -0.0889,0.16405 -0.17357,0.17851 -0.0843,0.0145 -0.16968,-0.0134 -0.25188,-0.0409 -0.21943,-0.0741 -0.6604,-0.11854 -0.78811,-0.3556 -0.17674,-0.32773 0.19262,-0.30904 0.38347,-0.25083" />
      <path
         inkscape:connector-curvature="0"
         id="path700"
         style="fill:#534741;fill-opacity:1;fill-rule:nonzero;stroke:none;stroke-width:0.03527778"
         d="m 108.70882,81.256895 c -0.20779,0.11148 -0.97437,-0.1972 -0.97437,-0.57079 l 18.9177,-32.21284 c 0.33268,0 0.76271,0.2413 0.97438,0.57044 l -18.91771,32.21319" />
      <path
         inkscape:connector-curvature="0"
         id="path702"
         style="fill:#fcaf75;fill-opacity:1;fill-rule:nonzero;stroke:none;stroke-width:0.03527778"
         d="m 120.78934,67.248445 -0.50341,-1.06433 c -0.0441,0.11712 -1.90818,-0.77858 -1.83727,-1.56245 0.0624,-0.68651 -0.61383,-1.14194 -0.84667,-0.78811 l -0.17109,0.2914 c 0,0 -0.31927,-0.48684 -0.33302,-0.52846 -0.145,-0.44027 0.6103,-2.02495 0.64875,-1.92476 l 0.6724,-0.63606 c 0.18344,-0.18944 0.53305,-0.26211 0.768,-0.14323 0.55562,0.21202 0.75741,0.31574 1.0989,0.59126 l 1.13559,1.46685 0.20567,1.80799 0.77893,1.70497 -1.61678,0.78493" />
      <path
         inkscape:connector-curvature="0"
         id="path704"
         style="fill:#fcaf75;fill-opacity:1;fill-rule:nonzero;stroke:none;stroke-width:0.03527778"
         d="m 109.39039,76.540615 0.55104,-1.47814 1.21285,-1.32292 h 0.64734 l 0.93557,0.63677 0.18097,1.01705 c -0.46848,1.01459 -0.93556,2.03977 -1.45521,2.42535 l -0.80645,0.11148 0.17251,-0.29351 c 0.19297,-0.51259 -0.75529,-0.95356 -0.96908,-0.58067 l -0.17956,0.30691 -0.28998,-0.82232" />
      <path
         inkscape:connector-curvature="0"
         id="path706"
         style="fill:#999999;fill-opacity:1;fill-rule:nonzero;stroke:none;stroke-width:0.03527778"
         d="m 120.76712,51.955525 c 1.00047,-2.67229 2.19498,-4.96852 3.77048,-6.52638 0,0 1.23473,2.88854 2.31529,3.70416 l 0.92992,0.58561 c 0.1464,0.0921 0.19614,0.28223 0.11359,0.43427 l -1.31586,2.41829 c -0.0914,0.16757 -0.30515,0.2219 -0.46566,0.11889 l -1.00401,-0.64664 c 0,0 -2.49167,-0.24236 -4.34375,-0.0882" />
      <path
         inkscape:connector-curvature="0"
         id="path708"
         style="fill:#ffffff;fill-opacity:1;fill-rule:nonzero;stroke:none;stroke-width:0.03527778"
         d="m 124.66249,46.529105 c -0.0882,-0.17674 -0.16651,-0.34008 -0.23142,-0.47837 -1.15464,1.27529 -2.18617,3.08998 -3.13796,5.5185 0.16157,-0.007 0.33161,-0.0113 0.50659,-0.0141 0.87524,-2.16429 1.81857,-3.82129 2.86279,-5.02602" />
      <path
         inkscape:connector-curvature="0"
         id="path710"
         style="fill:#848484;fill-opacity:1;fill-rule:nonzero;stroke:none;stroke-width:0.03527778"
         d="m 126.2835,52.379565 -0.64311,-0.41451 1.31692,-2.34985 0.63747,0.40216 -1.31128,2.3622" />
      <path
         inkscape:connector-curvature="0"
         id="path712"
         style="fill:#e1e1e1;fill-opacity:1;fill-rule:nonzero;stroke:none;stroke-width:0.03527778"
         d="m 132.0941,84.880275 -1.39065,-6.59729 8e-4,2.6e-4 1.38994,6.59695" />
      <path
         inkscape:connector-curvature="0"
         id="path714"
         style="fill:#cbcbcb;fill-opacity:1;fill-rule:nonzero;stroke:none;stroke-width:0.03527778"
         d="m 133.50874,98.624505 c 0,0 0.11289,-3.54189 -0.32808,-5.74675 -0.44097,-2.20486 -1.98614,-5.64445 -1.98614,-5.64445 -0.76553,-2.64936 -2.40947,-4.40266 -4.65667,-6.02897 -1.00012,-0.72496 -1.78329,-1.70039 -2.25848,-2.82504 l 0.21414,-0.4946 -0.0882,-0.68439 1.49931,-0.93627 -0.0974,-0.25118 1.81715,1.38148 3.07905,0.88865 1.39065,6.59729 0.61736,1.82387 c 1.17157,1.75154 1.33279,4.2933 1.33279,6.93278 0,0.46038 -0.005,0.92322 -0.01,1.38572 l -0.38805,2.81869 -0.13759,0.78317 m -9.96385,-23.66046 -0.42298,-0.76729 -0.073,-0.28081 0.69321,0.52705 c -0.0684,0.17075 -0.13406,0.34431 -0.19721,0.52105" />
      <path
         inkscape:connector-curvature="0"
         id="path716"
         style="fill:#de9a67;fill-opacity:1;fill-rule:nonzero;stroke:none;stroke-width:0.03527778"
         d="m 123.41754,75.334815 -0.29563,-1.13806 0.42298,0.76729 c -0.0437,0.12242 -0.0864,0.24589 -0.12735,0.37077" />
      <path
         inkscape:connector-curvature="0"
         id="path718"
         style="fill:#e1e1e1;fill-opacity:1;fill-rule:nonzero;stroke:none;stroke-width:0.03527778"
         d="m 124.27937,78.379295 c -0.12171,-0.28752 -0.22295,-0.58456 -0.30268,-0.88971 l -0.55915,-2.15477 c 0.0409,-0.12488 0.0836,-0.24835 0.12735,-0.37077 0.0632,-0.17674 0.12876,-0.3503 0.1972,-0.52105 l 2.06516,1.56986 0.0974,0.25118 -1.4993,0.93627 0.0882,0.68439 -0.21414,0.4946" />
      <path
         inkscape:connector-curvature="0"
         id="path720"
         style="fill:#e6e6e6;fill-opacity:1;fill-rule:nonzero;stroke:none;stroke-width:0.03527778"
         d="m 128.0361,80.682225 c -1.55892,-0.68121 -3.16547,-1.82351 -3.85127,-3.29741 -1.74766,-3.60292 -3.15137,-7.05239 -3.73698,-10.13637 0.23848,-0.74083 1.19768,-1.80869 1.82598,-1.24072 l 4.9343,8.02429 2.18017,1.53035 c 1.98438,1.83338 1.8228,6.35 -1.3522,5.11986" />
      <path
         inkscape:connector-curvature="0"
         id="path722"
         style="fill:#e1e1e1;fill-opacity:1;fill-rule:nonzero;stroke:none;stroke-width:0.03527778"
         d="m 121.0698,85.529395 -1.44286,-2.26484 v 0 c 0.20461,0.28575 0.43039,0.635 0.64558,0.97014 v 0 0 0 0 c 0.42686,0.67028 0.79728,1.2947 0.79728,1.2947 v 0" />
      <path
         inkscape:connector-curvature="0"
         id="path724"
         style="fill:#cbcbcb;fill-opacity:1;fill-rule:nonzero;stroke:none;stroke-width:0.03527778"
         d="m 125.21388,89.908425 c -1.131,-2.24896 -2.23626,-4.16948 -4.14408,-4.37903 v 0 c 0,0 -0.37042,-0.62442 -0.79728,-1.2947 v 0 c -0.12453,-0.23601 -0.24306,-0.47166 -0.3556,-0.70732 2.46839,2.18475 5.33294,3.35668 8.65505,3.35668 0.53446,0 1.08091,-0.0303 1.63936,-0.0917 -2.27506,0.52917 -4.35293,1.39806 -4.99745,3.11609" />
      <path
         inkscape:connector-curvature="0"
         id="path726"
         style="fill:#b3b3b3;fill-opacity:1;fill-rule:nonzero;stroke:none;stroke-width:0.03527778"
         d="m 120.27252,84.234695 c -0.21519,-0.33514 -0.44097,-0.68439 -0.64558,-0.97014 0.096,0.0893 0.19261,0.17674 0.28998,0.26282 0.11254,0.23566 0.23107,0.47131 0.3556,0.70732" />
    </g>
  </g>
</svg>
