<svg height="512" viewBox="0 0 64 64" width="512" xmlns="http://www.w3.org/2000/svg" xmlns:xlink="http://www.w3.org/1999/xlink"><linearGradient id="linear-gradient" gradientUnits="userSpaceOnUse" x1="12" x2="12" y1="4" y2="18"><stop offset="0" stop-color="#707070"/><stop offset="1" stop-color="#8e8e8e"/></linearGradient><linearGradient id="linear-gradient-2" gradientUnits="userSpaceOnUse" x1="26" x2="26" y1="4" y2="60"><stop offset="0" stop-color="#d6d6d6"/><stop offset="1" stop-color="#a1a1a1"/></linearGradient><linearGradient id="linear-gradient-3" x1="34" x2="34" xlink:href="#linear-gradient" y1="60" y2="50"/><linearGradient id="linear-gradient-4" gradientUnits="userSpaceOnUse" x1="18" x2="38" y1="43" y2="43"><stop offset="0" stop-color="#137dbf"/><stop offset="1" stop-color="#02476c"/></linearGradient><linearGradient id="linear-gradient-5" x2="25" xlink:href="#linear-gradient-4" y1="38" y2="38"/><linearGradient id="linear-gradient-6" x2="23" xlink:href="#linear-gradient-4" y1="33" y2="33"/><linearGradient id="linear-gradient-7" x2="23" xlink:href="#linear-gradient-4" y1="28" y2="28"/><linearGradient id="linear-gradient-8" x2="23" xlink:href="#linear-gradient-4" y1="23" y2="23"/><linearGradient id="linear-gradient-9" gradientUnits="userSpaceOnUse" x1="33.5" x2="33.5" y1="39" y2="9"><stop offset="0" stop-color="#8f8f8f"/><stop offset="1" stop-color="#adadad"/></linearGradient><linearGradient id="linear-gradient-10" gradientUnits="userSpaceOnUse" x1="43" x2="43" y1="11" y2="37"><stop offset="0" stop-color="#42bfff"/><stop offset="1" stop-color="#1174ac"/></linearGradient><linearGradient id="linear-gradient-11" gradientUnits="userSpaceOnUse" x1="25" x2="61" y1="22.5" y2="22.5"><stop offset="0" stop-color="#002237"/><stop offset="1" stop-color="#003352"/></linearGradient><linearGradient id="linear-gradient-12" gradientUnits="userSpaceOnUse" x1="50" x2="56" y1="31" y2="31"><stop offset="0" stop-color="#ffc033"/><stop offset="1" stop-color="#ef8e2e"/></linearGradient><g id="Layer_2" data-name="Layer 2"><path d="m8 4a4 4 0 0 0 -4 4v10h16v-14z" fill="url(#linear-gradient)"/><path d="m44 38v13.55l-4 8.45h-24a4 4 0 0 1 -4-4v-48a4 4 0 0 0 -4-4h32a4 4 0 0 1 4 4z" fill="url(#linear-gradient-2)"/><path d="m20 50v6a4 4 0 0 1 -4 4h32a4 4 0 0 0 4-4v-6l-5.34 4-5.33-4-5.33 4-5.33-4-5.33 4z" fill="url(#linear-gradient-3)"/><path d="m18 42h20v2h-20z" fill="url(#linear-gradient-4)"/><path d="m18 37h7v2h-7z" fill="url(#linear-gradient-5)"/><path d="m18 32h5v2h-5z" fill="url(#linear-gradient-6)"/><path d="m18 27h5v2h-5z" fill="url(#linear-gradient-7)"/><path d="m18 22h5v2h-5z" fill="url(#linear-gradient-8)"/><path d="m30 9a7 7 0 0 0 -7 7v16a7 7 0 0 0 7 7h14v-30z" fill="url(#linear-gradient-9)"/><rect fill="url(#linear-gradient-10)" height="26" rx="5" width="36" x="25" y="11"/><rect fill="url(#linear-gradient-11)" height="7" rx="1" width="36" x="25" y="19"/><circle cx="53" cy="31" fill="url(#linear-gradient-12)" r="3"/></g></svg>