<svg id="Capa_1" enable-background="new 0 0 512 512" height="512" viewBox="0 0 512 512" width="512" xmlns="http://www.w3.org/2000/svg"><g><path d="m169.252 286.77c-3.096-1.448-6.676-1.448-9.772 0l-112.154 52.454v123.517h234.081v-123.517z" fill="#d97b7b"/><path d="m159.48 286.77-112.154 52.454v25.352l112.154-52.454c3.096-1.448 6.676-1.448 9.772 0l112.154 52.454v-25.352l-112.154-52.454c-3.096-1.448-6.676-1.448-9.772 0z" fill="#d16161"/><path d="m447.562 350.343 13.108-5.402c3.234-1.333 4.608-5.168 2.957-8.251l-4.614-8.615-41.469-57.43c-2.411-4.501-8.864-4.501-11.275 0l-40.791 56.163-5.293 9.883c-1.651 3.083-.277 6.919 2.957 8.251l13.108 5.402c2.093.862 2.937 3.378 1.789 5.328l-36.117 61.345 69.984 22.674 69.984-22.674-36.116-61.345c-1.149-1.951-.304-4.466 1.788-5.329z" fill="#6fbbc6"/><path d="m445.774 355.671c-1.148-1.95-.304-4.465 1.789-5.328l13.108-5.402c3.234-1.333 4.608-5.168 2.957-8.251l-5.099-9.52-33.462-12.033 8.712 21.553c1.246 3.083.209 6.919-2.232 8.251l-9.893 5.402c-1.579.862-2.217 3.378-1.35 5.328l27.259 61.345-45.438 19.505 9.781 3.169 69.984-22.674z" fill="#61aab8"/><path d="m459.18 328.386-43.913-15.658c-3.216-1.147-6.816.125-8.549 3.067-9.493 16.119-27.936 16.016-41.301 11.143l40.852-76.294c2.413-4.498 8.862-4.498 11.275 0z" fill="#ddebfd"/><path d="m406.269 250.645-4.144 7.738 23.454 58.022 33.601 11.981-41.636-77.741c-.904-1.688-2.376-2.742-3.991-3.164-2.69-.703-5.776.353-7.284 3.164z" fill="#bed9fd"/><path d="m107.346 221.919v68.263l-45.69 24.833v-71.724z" fill="#6fbbc6"/><path d="m305.375 350.434-136.123-63.664c-3.096-1.448-6.676-1.448-9.772 0l-136.123 63.664c-2.975 1.391-6.515.108-7.906-2.867l-11.967-25.588c-1.391-2.975-.108-6.515 2.867-7.906l149.512-69.926c5.388-2.52 11.618-2.52 17.006 0l149.512 69.926c2.975 1.391 4.259 4.931 2.867 7.906l-11.967 25.588c-1.391 2.975-4.931 4.259-7.906 2.867z" fill="#5d91b9"/><path d="m129.962 393.379v69.363h68.809v-69.363c0-19.001-15.403-34.404-34.404-34.404s-34.405 15.403-34.405 34.404z" fill="#81a9c8"/><path d="m198.771 470.468h-68.809c-4.267 0-7.726-3.459-7.726-7.726v-69.363c0-23.231 18.9-42.131 42.131-42.131s42.131 18.9 42.131 42.131v69.363c-.001 4.266-3.46 7.726-7.727 7.726zm-61.083-15.453h53.356v-61.636c0-14.71-11.968-26.678-26.678-26.678s-26.678 11.968-26.678 26.678z" fill="#766d78"/><path d="m44.323 259.129c-2.907 0-5.691-1.648-7.004-4.455-1.808-3.865-.14-8.464 3.725-10.272l75.967-35.53c3.865-1.809 8.465-.14 10.272 3.725 1.808 3.865.14 8.464-3.725 10.272l-75.967 35.53c-1.058.495-2.172.73-3.268.73z" fill="#5d91b9"/><path d="m81.951 141.667-4.396-1.957 3.22-3.576c2.855-3.171 2.599-8.056-.572-10.912-3.171-2.855-8.056-2.598-10.912.572l-3.22 3.576-2.406-4.168c-2.133-3.696-6.86-4.961-10.554-2.828-3.696 2.133-4.962 6.859-2.828 10.554l2.406 4.168-4.708 1.001c-4.174.887-6.838 4.99-5.951 9.164.772 3.632 3.979 6.121 7.55 6.121.532 0 1.073-.055 1.614-.171l4.707-1.001-.503 4.786c-.446 4.244 2.633 8.046 6.876 8.492.275.029.547.043.817.043 3.904 0 7.257-2.95 7.675-6.919l.503-4.786 4.397 1.958c1.021.455 2.088.67 3.138.67 2.959 0 5.782-1.709 7.063-4.586 1.735-3.898-.018-8.465-3.916-10.201z" fill="#bed9fd"/><path d="m316.185 180.136-4.708-1.001 2.406-4.168c2.134-3.696.868-8.421-2.828-10.554-3.696-2.135-8.422-.867-10.554 2.828l-2.406 4.168-3.22-3.576c-2.855-3.171-7.74-3.428-10.911-.572s-3.427 7.741-.572 10.912l3.22 3.576-4.397 1.958c-3.898 1.736-5.651 6.303-3.915 10.201 1.281 2.877 4.104 4.586 7.063 4.586 1.05 0 2.117-.215 3.138-.67l4.396-1.957.503 4.786c.418 3.969 3.77 6.919 7.675 6.919.27 0 .543-.014.817-.043 4.243-.446 7.322-4.248 6.876-8.492l-.503-4.786 4.707 1.001c.542.115 1.082.171 1.614.171 3.57 0 6.778-2.489 7.55-6.121.887-4.176-1.777-8.279-5.951-9.166z" fill="#ddebfd"/><path d="m184.099 97.263c-1.318-4.058-5.678-6.281-9.736-4.96l-4.577 1.487v-4.813c0-4.267-3.459-7.726-7.726-7.726s-7.726 3.459-7.726 7.726v4.813l-4.576-1.487c-4.059-1.32-8.417.903-9.736 4.96-1.319 4.058.902 8.418 4.96 9.736l4.577 1.487-2.829 3.894c-2.508 3.452-1.742 8.284 1.71 10.792 1.371.996 2.96 1.476 4.535 1.476 2.389 0 4.745-1.105 6.258-3.186l2.828-3.893 2.828 3.893c1.512 2.081 3.868 3.186 6.258 3.186 1.574 0 3.163-.48 4.535-1.476 3.452-2.509 4.218-7.34 1.71-10.792l-2.829-3.894 4.578-1.487c4.056-1.318 6.277-5.677 4.958-9.736z" fill="#ddebfd"/><path d="m301.039 126.866c-1.977 0-3.955-.755-5.463-2.263-3.018-3.017-3.018-7.909 0-10.927l8.292-8.292c3.017-3.017 7.909-3.017 10.927 0s3.018 7.909 0 10.927l-8.292 8.292c-1.51 1.508-3.487 2.263-5.464 2.263z" fill="#bed9fd"/><path d="m341.468 86.437c-1.977 0-3.955-.755-5.463-2.263-3.018-3.017-3.018-7.909 0-10.927l56.477-56.477c3.017-3.017 7.909-3.017 10.927 0s3.018 7.909 0 10.927l-56.477 56.477c-1.509 1.508-3.487 2.263-5.464 2.263z" fill="#ddebfd"/><path d="m369.626 199.123c-1.977 0-3.955-.755-5.463-2.263-3.018-3.017-3.018-7.909 0-10.927l16.385-16.385c3.017-3.017 7.909-3.017 10.927 0s3.018 7.909 0 10.927l-16.385 16.385c-1.509 1.508-3.486 2.263-5.464 2.263z" fill="#bed9fd"/><g fill="#ddebfd"><path d="m418.116 150.634c-1.977 0-3.955-.755-5.463-2.263-3.018-3.017-3.018-7.909 0-10.927l78.589-78.589c3.017-3.017 7.909-3.017 10.927 0s3.018 7.909 0 10.927l-78.589 78.589c-1.51 1.509-3.487 2.263-5.464 2.263z"/><path d="m467.346 245.042c-1.977 0-3.955-.755-5.463-2.263-3.018-3.017-3.018-7.909 0-10.927l18.082-18.083c3.017-3.017 7.909-3.017 10.927 0s3.018 7.909 0 10.927l-18.082 18.083c-1.509 1.508-3.487 2.263-5.464 2.263z"/><path d="m246.377 92.938c-1.977 0-3.955-.754-5.463-2.263-3.018-3.017-3.018-7.909 0-10.927l28.189-28.188c3.018-3.018 7.91-3.018 10.927 0 3.018 3.017 3.018 7.909 0 10.927l-28.189 28.188c-1.509 1.508-3.487 2.263-5.464 2.263z"/><path d="m297.064 42.251c-1.977 0-3.955-.755-5.464-2.263-3.017-3.018-3.017-7.909.001-10.927l6.286-6.285c3.018-3.016 7.909-3.017 10.927.001 3.017 3.018 3.017 7.909-.001 10.927l-6.286 6.285c-1.508 1.508-3.486 2.262-5.463 2.262z"/><path d="m196.323 179.024c-1.986 0-3.972-.761-5.482-2.282-3.007-3.028-2.99-7.92.038-10.927l16.64-16.526c3.027-3.007 7.919-2.991 10.927.037 3.007 3.028 2.99 7.92-.038 10.927l-16.64 16.526c-1.507 1.497-3.476 2.245-5.445 2.245z"/></g><path d="m187.154 62.6c-1.977 0-3.955-.755-5.463-2.263-3.018-3.017-3.018-7.909 0-10.927l10.47-10.47c3.017-3.017 7.909-3.017 10.927 0s3.018 7.909 0 10.927l-10.47 10.47c-1.509 1.508-3.486 2.263-5.464 2.263z" fill="#bed9fd"/><path d="m2.47 404.843c33.292-14.809 74.094-11.382 104.466 8.738 1.517 1.005 3.494.862 4.901-.293 19.863-16.294 88.02-25.634 134.626 24.613 1.715 1.849 4.677 1.779 6.233-.205 35.066-44.704 113.016-40.935 150.786-20.525 1.579.853 3.519.578 4.803-.676 30.563-29.853 84.75-24.457 102.562-5.899.739.77 1.152 1.795 1.152 2.862v78.899c0 2.836-2.299 5.135-5.135 5.135h-501.729c-2.836 0-5.135-2.299-5.135-5.135v-83.744c0-1.635.975-3.105 2.47-3.77z" fill="#ddebfd"/><path d="m510.848 410.597c-17.812-18.557-71.999-23.953-102.562 5.899-1.284 1.254-3.224 1.529-4.803.676-37.769-20.411-115.719-24.179-150.786 20.525-1.556 1.984-4.519 2.054-6.233.205-46.607-50.247-114.763-40.907-134.626-24.613-1.407 1.154-3.384 1.298-4.901.293-30.372-20.12-71.174-23.547-104.466-8.738-1.496.664-2.471 2.134-2.471 3.77v26.562c0-1.636.975-3.106 2.47-3.771 33.292-14.808 74.094-11.382 104.466 8.738 1.517 1.005 3.494.862 4.901-.293 19.863-16.294 88.02-25.634 134.626 24.613 1.715 1.849 4.677 1.779 6.233-.205 35.066-44.704 113.016-40.935 150.786-20.525 1.579.853 3.519.578 4.803-.676 30.563-29.853 84.75-24.457 102.562-5.899.739.77 1.152 1.795 1.152 2.862v-26.562c.001-1.066-.412-2.091-1.151-2.861z" fill="#bed9fd"/><path d="m282.054 248.513c-7.725-.529-14.905 1.71-20.668 5.81-4.324-6.287-11.566-10.411-19.773-10.411-1.347 0-2.665.116-3.951.33-1.898-15.977-15.483-28.37-31.971-28.37-16.587 0-30.24 12.541-32.007 28.657l11.67 5.458c3.263 1.526 5.348 4.803 5.348 8.405v69.403c0 8.324 6.397 15.486 14.711 15.877 8.877.418 16.206-6.655 16.206-15.44v-44.419c0-7.854 8.162-13.047 15.276-9.72l64.094 29.976c6.839-6.09 11.038-15.08 10.654-25.044-.621-16.113-13.502-29.412-29.589-30.512z" fill="#ddebfd"/></g></svg>