<?xml version="1.0" encoding="UTF-8" standalone="no"?>
<!-- Created with Inkscape (http://www.inkscape.org/) -->

<svg
   xmlns:dc="http://purl.org/dc/elements/1.1/"
   xmlns:cc="http://creativecommons.org/ns#"
   xmlns:rdf="http://www.w3.org/1999/02/22-rdf-syntax-ns#"
   xmlns:svg="http://www.w3.org/2000/svg"
   xmlns="http://www.w3.org/2000/svg"
   xmlns:sodipodi="http://sodipodi.sourceforge.net/DTD/sodipodi-0.dtd"
   xmlns:inkscape="http://www.inkscape.org/namespaces/inkscape"
   width="25.255363mm"
   height="20.608875mm"
   viewBox="0 0 25.255363 20.608875"
   version="1.1"
   id="svg1131"
   inkscape:version="0.92.4 (5da689c313, 2019-01-14)"
   sodipodi:docname="breathalyzer.svg">
  <defs
     id="defs1125" />
  <sodipodi:namedview
     id="base"
     pagecolor="#ffffff"
     bordercolor="#666666"
     borderopacity="1.0"
     inkscape:pageopacity="0.0"
     inkscape:pageshadow="2"
     inkscape:zoom="0.35"
     inkscape:cx="-307.98763"
     inkscape:cy="-132.48266"
     inkscape:document-units="mm"
     inkscape:current-layer="layer1"
     showgrid="false"
     fit-margin-top="0"
     fit-margin-left="0"
     fit-margin-right="0"
     fit-margin-bottom="0"
     inkscape:window-width="1920"
     inkscape:window-height="1017"
     inkscape:window-x="-8"
     inkscape:window-y="-8"
     inkscape:window-maximized="1" />
  <metadata
     id="metadata1128">
    <rdf:RDF>
      <cc:Work
         rdf:about="">
        <dc:format>image/svg+xml</dc:format>
        <dc:type
           rdf:resource="http://purl.org/dc/dcmitype/StillImage" />
        <dc:title></dc:title>
      </cc:Work>
    </rdf:RDF>
  </metadata>
  <g
     inkscape:label="Layer 1"
     inkscape:groupmode="layer"
     id="layer1"
     transform="translate(-103.03304,-93.171755)">
    <path
       d="m 115.18899,106.39487 c -0.0113,0.0956 -0.0984,0.16439 -0.19438,0.15275 l -3.20393,-0.38241 c -0.0956,-0.0116 -0.16439,-0.0984 -0.15275,-0.19438 l 0.60889,-5.10117 c 0.0113,-0.096 0.0984,-0.16439 0.19438,-0.1531 l 3.20393,0.38276 c 0.0956,0.0113 0.1644,0.0981 0.15311,0.19403 l -0.60925,5.10152"
       style="fill:#3c3d3f;fill-opacity:1;fill-rule:nonzero;stroke:none;stroke-width:0.03527778"
       id="path484"
       inkscape:connector-curvature="0" />
    <path
       d="m 109.89133,101.58228 2.23837,0.2674 0.0667,-0.55562 -2.23838,-0.26741 -0.0667,0.55563"
       style="fill:#a3acb1;fill-opacity:1;fill-rule:nonzero;stroke:none;stroke-width:0.03527778"
       id="path486"
       inkscape:connector-curvature="0" />
    <path
       d="m 114.97027,102.69388 -2.24825,-0.26847 0.11888,-0.99624 2.24826,0.26846 -0.11889,0.99625"
       style="fill:#1186e6;fill-opacity:1;fill-rule:nonzero;stroke:none;stroke-width:0.03527778"
       id="path488"
       inkscape:connector-curvature="0" />
    <path
       d="m 114.38219,103.71129 c -0.0307,0.25788 -0.35313,0.43145 -0.72002,0.3877 -0.36654,-0.0437 -0.63923,-0.28822 -0.60854,-0.5461 0.0307,-0.25788 0.35313,-0.43109 0.72002,-0.38735 0.36689,0.0438 0.63923,0.28822 0.60854,0.54575"
       style="fill:#a3acb1;fill-opacity:1;fill-rule:nonzero;stroke:none;stroke-width:0.03527778"
       id="path490"
       inkscape:connector-curvature="0" />
    <path
       d="m 111.04385,113.78027 c -0.59796,-4.22239 -0.67698,-7.75864 -1.95791,-9.33944 -0.57856,0.35067 -2.66524,0.4311 -3.54295,0.15311 -0.54751,2.2098 -0.50377,5.38903 -0.24483,9.18633 h 5.74569"
       style="fill:#ca1b00;fill-opacity:1;fill-rule:nonzero;stroke:none;stroke-width:0.03527778"
       id="path492"
       inkscape:connector-curvature="0" />
    <path
       d="m 105.54264,104.59394 c 0.26458,-0.94086 0.35912,-1.92052 0.35771,-2.47086 l 1.53141,-0.30303 c 0.25859,0.71226 0.82585,1.57198 1.65418,2.62078 -1.37266,1.19698 -3.5433,0.15311 -3.5433,0.15311"
       style="fill:#ea8f92;fill-opacity:1;fill-rule:nonzero;stroke:none;stroke-width:0.03527778"
       id="path494"
       inkscape:connector-curvature="0" />
    <path
       d="m 113.90523,105.28574 c -0.53234,1.78576 -1.43369,4.28836 -1.53141,4.35469 -0.2159,0.14569 -3.25331,-4.01038 -4.50391,-4.33776 -1.79881,-0.47096 -2.32727,1.92969 -0.84279,3.26461 1.07845,0.96978 4.39103,4.20722 5.76545,4.08058 1.38818,-0.12771 2.49943,-5.28285 2.63666,-7.28522 0.0759,-1.11478 -0.0547,-1.84326 -0.49636,-1.84326 -0.39616,0 -0.61065,0.36971 -1.02764,1.76636"
       style="fill:#edacae;fill-opacity:1;fill-rule:nonzero;stroke:none;stroke-width:0.03527778"
       id="path496"
       inkscape:connector-curvature="0" />
    <path
       d="m 111.09606,99.601429 c -0.11006,-0.66922 -0.34466,-0.81527 -0.47836,-1.326798 -0.002,-0.76588 0.01,-1.539169 -0.16334,-2.195336 0,0 -0.17251,-1.559277 -2.53012,-1.609019 -2.35762,-0.04974 -4.0827,1.624894 -4.21675,3.084689 -0.11854,1.287639 0.0903,2.885725 0.94685,3.970165 0.71332,0.90381 1.96638,1.40264 3.01519,1.51976 0.47625,0.0533 1.82386,-0.12135 1.99426,-0.29174 0.30973,-0.3108 0.12735,-0.73696 0.81879,-2.39537 0.25612,0.049 0.58808,-0.0272 0.68439,-0.16227 0.11007,-0.15523 -0.0367,-0.387354 -0.0709,-0.594081"
       style="fill:#edacae;fill-opacity:1;fill-rule:nonzero;stroke:none;stroke-width:0.03527778"
       id="path498"
       inkscape:connector-curvature="0" />
    <path
       d="m 108.14155,93.926998 c 2.55799,-0.119944 3.042,1.338792 2.22991,1.859139 -2.86279,-0.503767 -5.47547,0.568325 -4.9022,3.570817 0.10654,0.557036 0.19791,1.915936 0.0861,2.044696 -0.13865,0.16016 -0.46708,0.34326 -0.69215,0.35913 -1.29928,-1.57339 -2.16853,-4.170537 -1.70322,-5.558365 0.51083,-1.522942 2.81235,-2.173817 4.98158,-2.275417"
       style="fill:#394855;fill-opacity:1;fill-rule:nonzero;stroke:none;stroke-width:0.03527778"
       id="path500"
       inkscape:connector-curvature="0" />
    <path
       d="m 125.55007,104.65673 c -0.33372,-0.70661 -0.62794,-1.65417 -0.62794,-2.13289 l -1.59808,0.18274 c 0,0.60148 -0.14993,1.44321 -0.27199,2.13325 1.25447,0.80927 2.49801,-0.1831 2.49801,-0.1831"
       style="fill:#e6b28b;fill-opacity:1;fill-rule:nonzero;stroke:none;stroke-width:0.03527778"
       id="path502"
       inkscape:connector-curvature="0" />
    <path
       d="m 119.75923,99.985956 c -0.0173,-0.14993 0.60924,-1.066094 0.79481,-1.334205 0.0395,-0.779639 0.15134,-1.546225 0.35418,-2.206625 0,0 0.24589,-1.580092 2.57422,-1.53035 2.32869,0.04974 4.17866,2.047169 4.13315,4.460522 -0.0455,2.414062 -2.01048,4.115862 -4.2986,4.280252 -0.47307,0.0339 -1.53564,0.0268 -1.85173,-0.31362 -0.4505,-0.48472 -0.76905,-1.64535 -0.883,-2.97392 -0.22613,-0.0639 -0.80645,-0.24059 -0.82303,-0.382054"
       style="fill:#efc2a6;fill-opacity:1;fill-rule:nonzero;stroke:none;stroke-width:0.03527778"
       id="path504"
       inkscape:connector-curvature="0" />
    <path
       d="m 127.22542,113.78063 c 0.22083,-4.25662 -0.0208,-6.49464 -1.67535,-9.1239 -0.33372,0.21343 -1.91029,0.27341 -2.49801,0.1831 -1.18745,2.16429 -1.65982,5.7859 -1.83198,8.9408 h 6.00534"
       style="fill:#166aaf;fill-opacity:1;fill-rule:nonzero;stroke:none;stroke-width:0.03527778"
       id="path506"
       inkscape:connector-curvature="0" />
    <path
       d="m 124.95459,97.47312 c 1.32891,1.17475 1.57973,3.70769 1.60866,4.61998 0.03,0.93521 1.23049,-0.95991 1.51906,-3.468866 0.2727,-2.374547 -3.41806,-1.407583 -3.12772,-1.151114"
       style="fill:#ae6551;fill-opacity:1;fill-rule:nonzero;stroke:none;stroke-width:0.03527778"
       id="path508"
       inkscape:connector-curvature="0" />
    <path
       d="m 122.95716,107.66487 c -0.1337,0.79128 0.0734,4.55648 0.121,6.11576 h 3.00849 c 0.2099,-2.07716 0.12982,-5.37387 0.037,-6.04132 -0.21837,-1.56704 -2.86032,-1.88666 -3.16653,-0.0744"
       style="fill:#1186e6;fill-opacity:1;fill-rule:nonzero;stroke:none;stroke-width:0.03527778"
       id="path510"
       inkscape:connector-curvature="0" />
    <path
       d="m 124.54501,109.91277 c 0.0258,-3.4e-4 0.0483,-0.0166 0.0586,-0.0399 0.0169,-0.0254 0.12594,-0.0854 0.19685,-0.0907 0.0113,-7.1e-4 0.0226,-10e-4 0.0332,-10e-4 0.0215,0 0.0427,7.2e-4 0.0642,0.002 0.0268,0.001 0.0547,0.003 0.0861,0.002 0.0452,0 0.09,-0.004 0.13723,-0.0102 0.21414,-0.03 0.51506,-0.24236 0.4819,-0.60325 -0.0222,-0.24095 -0.0663,-0.39194 -0.10196,-0.51329 -0.0236,-0.0818 -0.0423,-0.14605 -0.0459,-0.21167 -0.009,-0.1531 0.0501,-0.3302 0.15381,-0.46249 0.0159,-0.0201 0.0183,-0.048 0.006,-0.0706 -0.012,-0.0215 -0.0339,-0.0346 -0.0579,-0.0346 -0.001,0 -0.003,3.4e-4 -0.005,3.4e-4 -0.0564,0.004 -0.11042,0.006 -0.16157,0.007 -0.3743,0.002 -0.63182,-0.0981 -0.81033,-0.31608 -0.0123,-0.0152 -0.031,-0.024 -0.0508,-0.0236 -0.0194,0 -0.0381,0.009 -0.0501,0.024 -0.17604,0.22013 -0.43251,0.32385 -0.80645,0.32632 -0.0515,0 -0.10513,-10e-4 -0.16157,-0.005 -0.002,0 -0.003,-3.5e-4 -0.005,-3.5e-4 -0.0236,3.5e-4 -0.0459,0.0138 -0.0572,0.0349 -0.0116,0.0229 -0.009,0.0508 0.007,0.0709 0.10513,0.13088 0.16616,0.30692 0.15945,0.46038 -0.003,0.0656 -0.0208,0.13017 -0.0438,0.21202 -0.0339,0.12206 -0.0762,0.2734 -0.0956,0.5147 -0.0289,0.36124 0.27447,0.57009 0.48895,0.59725 0.048,0.006 0.0928,0.009 0.13759,0.009 0.0314,0 0.0589,-0.002 0.0857,-0.003 0.0219,-0.001 0.043,-0.003 0.0646,-0.003 0.0109,0 0.0219,0 0.0328,7.2e-4 0.0716,0.004 0.18274,0.0642 0.19861,0.0885 0.0102,0.0243 0.0332,0.0388 0.0596,0.0388 v 0"
       style="fill:#fbb03b;fill-opacity:1;fill-rule:nonzero;stroke:none;stroke-width:0.03527778"
       id="path512"
       inkscape:connector-curvature="0" />
    <path
       d="m 123.68141,108.46074 c 0.007,-0.1584 -0.0504,-0.35066 -0.17357,-0.50412 0.5514,0.0353 0.83997,-0.11607 1.02271,-0.34502 0.18591,0.22648 0.47625,0.37465 1.02729,0.33267 -0.12136,0.15487 -0.17639,0.34784 -0.16757,0.50624 0.01,0.17533 0.11077,0.32455 0.14816,0.72742 0.0293,0.31786 -0.23354,0.50624 -0.42615,0.53305 -0.15134,0.0212 -0.22084,0 -0.31644,0.007 -0.0885,0.006 -0.23178,0.0794 -0.25153,0.12912 -0.0208,-0.0494 -0.1651,-0.12101 -0.25365,-0.1263 -0.0956,-0.006 -0.16475,0.0166 -0.31644,-0.003 -0.19297,-0.0247 -0.45791,-0.20955 -0.43216,-0.52811 0.0325,-0.40287 0.13159,-0.5535 0.13935,-0.72883"
       style="fill:#ffffff;fill-opacity:1;fill-rule:nonzero;stroke:none;stroke-width:0.03527778"
       id="path514"
       inkscape:connector-curvature="0" />
    <path
       d="m 125.45906,108.7479 c 0.03,0.10689 0.0617,0.23989 0.0794,0.43003 0.0293,0.31786 -0.23354,0.50624 -0.42616,0.53305 -0.15134,0.0212 -0.22084,0 -0.31644,0.007 -0.0885,0.006 -0.23177,0.0794 -0.25153,0.12912 -0.0208,-0.0494 -0.1651,-0.12101 -0.25365,-0.1263 -0.0956,-0.006 -0.16474,0.0166 -0.31644,-0.003 -0.19297,-0.0247 -0.4579,-0.20955 -0.43215,-0.52811 0.0152,-0.18979 0.0455,-0.32384 0.0737,-0.43038 0.27234,-0.10266 0.58596,-0.16263 0.92075,-0.16475 0.33479,-0.002 0.64911,0.0543 0.92251,0.15346"
       style="fill:#dbdcdd;fill-opacity:1;fill-rule:nonzero;stroke:none;stroke-width:0.03527778"
       id="path516"
       inkscape:connector-curvature="0" />
    <path
       d="m 120.66939,96.921729 7.52264,1.781175 0.0769,-0.804334 c 0.1905,-1.993547 -1.03294,-3.869619 -2.96298,-4.543777 -0.8128,-0.283634 -1.70427,-0.236009 -2.47509,0.131586 -0.77047,0.367947 -1.35502,1.025525 -1.62278,1.824919 l -0.53869,1.610431"
       style="fill:#166aaf;fill-opacity:1;fill-rule:nonzero;stroke:none;stroke-width:0.03527778"
       id="path518"
       inkscape:connector-curvature="0" />
    <path
       d="m 123.62602,97.621993 c 0,0 -4.02731,-0.184503 -4.8133,-0.37077 -0.78598,-0.185914 -0.78457,-0.493536 -0.34889,-0.592314 0.45931,-0.104069 2.37349,-0.238125 2.37349,-0.238125 0,0 0.025,0.219781 0.70873,0.491067 0.81386,0.322792 2.07997,0.710142 2.07997,0.710142"
       style="fill:#394855;fill-opacity:1;fill-rule:nonzero;stroke:none;stroke-width:0.03527778"
       id="path520"
       inkscape:connector-curvature="0" />
  </g>
</svg>
