<svg height="504pt" viewBox="-42 0 504 504" width="504pt" xmlns="http://www.w3.org/2000/svg"><path d="m100.015625 471.984375c2.199219 0 4 1.800781 4 4v24.015625c0 2.199219-1.800781 4-4 4h-56.015625c-2.199219 0-4-1.800781-4-4v-24.015625c0-2.199219 1.800781-4 4-4zm0 0" fill="#da4453"/><path d="m332 471.984375c2.199219 0 4 1.800781 4 4v24.015625c0 2.199219-1.800781 4-4 4h-56.015625c-2.199219 0-4-1.800781-4-4v-24.015625c0-2.199219 1.800781-4 4-4zm0 0" fill="#da4453"/><path d="m16 344h344v128c0 8.886719-7.121094 16-16 16h-312c-8.808594 0-16-7.113281-16-16zm0 0" fill="#ed5565"/><path d="m268 368h-152c-2.199219 0-4 1.800781-4 4v68.007812h160v-68.007812c0-2.199219-1.800781-4-4-4zm0 0" fill="#656d78"/><path d="m408 240c4.398438 0 8 3.601562 8 8v16c0 4.398438-3.601562 8-8 8h-56.015625c-4.398437 0-8-3.601562-8-8v-16c0-4.398438 3.601563-8 8-8h8 32.015625zm0 0" fill="#656d78"/><path d="m404 110.632812v129.367188h-24v-129.449219c3.71875.96875 7.800781 1.441407 12 1.441407s8.28125-.472657 12-1.441407zm0 0" fill="#545c66"/><path d="m420 96c0 12.230469-7.753906 22.585938-18.664062 26.320312-2.886719 1.136719-6.0625 1.679688-9.335938 1.679688s-6.449219-.542969-9.335938-1.679688c-10.910156-3.734374-18.664062-14.089843-18.664062-26.320312 0-15.496094 12.503906-28 28-28s28 12.503906 28 28zm0 0" fill="#ed5565"/><path d="m360 272v16h-344v-232c0 4.40625 3.601562 8 8 8h328c4.398438 0 8-3.59375 8-8zm0 0" fill="#ccd1d9"/><path d="m320 231.992188c0 4.398437-3.601562 8-8 8h-56c-4.398438 0-8-3.601563-8-8v-111.984376c0-4.398437 3.601562-8 8-8h56c4.398438 0 8 3.601563 8 8zm0 0" fill="#f5f7fa"/><path d="m224 231.992188c0 4.398437-3.601562 8-8 8h-56c-4.398438 0-8-3.601563-8-8v-111.984376c0-4.398437 3.601562-8 8-8h56c4.398438 0 8 3.601563 8 8zm0 0" fill="#f5f7fa"/><path d="m128 231.992188c0 4.398437-3.601562 8-8 8h-56c-4.398438 0-8-3.601563-8-8v-111.984376c0-4.398437 3.601562-8 8-8h56c4.398438 0 8 3.601563 8 8zm0 0" fill="#f5f7fa"/><path d="m168 112h40v8h-40zm0 0" fill="#8cc152"/><path d="m188 16c33.121094 0 60 7.199219 60 16s-26.878906 16-60 16-60-7.199219-60-16 26.878906-16 60-16zm0 0" fill="#e6e9ed"/><path d="m352 0h-328c-4.398438 0-8 3.609375-8 8v48c0 4.40625 3.601562 8 8 8h328c4.398438 0 8-3.59375 8-8v-48c0-4.390625-3.601562-8-8-8zm-164 48c-33.121094 0-60-7.199219-60-16s26.878906-16 60-16 60 7.199219 60 16-26.878906 16-60 16zm0 0" fill="#ed5565"/><path d="m360 288 16 16h-376l16-16zm0 0" fill="#545c66"/><path d="m376 304v40h-376v-40zm0 0" fill="#656d78"/><path d="m108 440h8 24 8 24 8 24 8 24 8 24 8c2.199219 0 4 1.800781 4 4v8c0 2.199219-1.800781 4-4 4h-168c-2.199219 0-4-1.800781-4-4v-8c0-2.199219 1.800781-4 4-4zm0 0" fill="#ccd1d9"/><path d="m200 392c4.398438 0 8 3.609375 8 8v8h-8c-4.398438 0-8 3.609375-8 8 0-4.390625-3.601562-8-8-8h-8v-8c0-4.390625 3.601562-8 8-8zm0 0" fill="#f6bb42"/><path d="m192 416v8h-8c-4.398438 0-8 3.609375-8 8 0-4.390625-3.601562-8-8-8h-8v-8c0-4.390625 3.601562-8 8-8h16c4.398438 0 8 3.609375 8 8zm0 0" fill="#ffce54"/><path d="m216 424c-4.398438 0-8 3.609375-8 8 0-4.390625-3.601562-8-8-8h-8v-8c0-4.390625 3.601562-8 8-8h16c4.398438 0 8 3.609375 8 8v8zm0 0" fill="#f6bb42"/><path d="m240 440h-32v-8c0-4.390625 3.601562-8 8-8h16c4.398438 0 8 3.609375 8 8zm0 0" fill="#f6bb42"/><path d="m200 424c4.398438 0 8 3.609375 8 8v8h-32v-8c0-4.390625 3.601562-8 8-8zm0 0" fill="#ffce54"/><path d="m176 432v8h-32v-8c0-4.390625 3.601562-8 8-8h16c4.398438 0 8 3.609375 8 8zm0 0" fill="#f6bb42"/><path d="m92 232c0 4.417969-3.582031 8-8 8s-8-3.582031-8-8 3.582031-8 8-8 8 3.582031 8 8zm0 0" fill="#ed5565"/><path d="m108 232c0 4.417969-3.582031 8-8 8s-8-3.582031-8-8 3.582031-8 8-8 8 3.582031 8 8zm0 0" fill="#ed5565"/><path d="m168 239.992188h40c-.007812-11.046876-8.960938-19.992188-20-19.992188s-19.992188 8.945312-20 19.992188zm0 0" fill="#ac92ec"/><path d="m112 112h-40c.007812 11.046875 8.960938 19.992188 20 19.992188s19.992188-8.945313 20-19.992188zm0 0" fill="#fc6e51"/><path d="m291.992188 128c6.625 0 12-5.367188 12-12h-24c0 6.632812 5.375 12 12 12zm0 0" fill="#ed5565"/><path d="m276 128c6.625 0 12-5.367188 12-12h-24c0 6.632812 5.375 12 12 12zm0 0" fill="#ed5565"/><path d="m284 229.335938c-7.617188 0-14.503906-2.046876-19.550781-5.335938h-.449219v16h40v-16h-.449219c-5.046875 3.289062-11.933593 5.335938-19.550781 5.335938zm0 0" fill="#8cc152"/><g fill="#656d78"><path d="m104 156h-24c-2.207031 0-4-1.792969-4-4s1.792969-4 4-4h24c2.207031 0 4 1.792969 4 4s-1.792969 4-4 4zm0 0"/><path d="m88 204c-.425781 0-.839844-.0625-1.265625-.199219-2.09375-.703125-3.222656-2.96875-2.527344-5.066406l16-48c.714844-2.09375 2.976563-3.222656 5.066407-2.527344 2.09375.703125 3.222656 2.96875 2.527343 5.066407l-16 48c-.570312 1.664062-2.128906 2.726562-3.800781 2.726562zm0 0"/><path d="m200 156h-24.007812c-2.207032 0-4-1.792969-4-4s1.792968-4 4-4h24.007812c2.207031 0 4 1.792969 4 4s-1.792969 4-4 4zm0 0"/><path d="m183.992188 204c-.425782 0-.839844-.0625-1.265626-.199219-2.09375-.703125-3.222656-2.96875-2.527343-5.066406l16.007812-48c.714844-2.09375 2.976563-3.222656 5.066407-2.527344 2.09375.703125 3.222656 2.96875 2.527343 5.066407l-16.007812 48c-.570313 1.664062-2.128907 2.726562-3.800781 2.726562zm0 0"/><path d="m296 156h-24.007812c-2.207032 0-4-1.792969-4-4s1.792968-4 4-4h24.007812c2.207031 0 4 1.792969 4 4s-1.792969 4-4 4zm0 0"/><path d="m279.992188 204c-.425782 0-.839844-.0625-1.265626-.199219-2.09375-.703125-3.222656-2.96875-2.527343-5.066406l16.007812-48c.714844-2.09375 2.976563-3.222656 5.066407-2.527344 2.09375.703125 3.222656 2.96875 2.527343 5.066407l-16.007812 48c-.570313 1.664062-2.128907 2.726562-3.800781 2.726562zm0 0"/></g><path d="m208 128h-40c-2.207031 0-4-1.792969-4-4s1.792969-4 4-4h40c2.207031 0 4 1.792969 4 4s-1.792969 4-4 4zm0 0" fill="#a0d468"/><path d="m187.992188 136c-2.207032 0-4-1.792969-4-4v-8c0-2.207031 1.792968-4 4-4 2.207031 0 4 1.792969 4 4v8c0 2.207031-1.792969 4-4 4zm0 0" fill="#a0d468"/><path d="m284 236c-13.503906 0-22.457031-8.800781-22.832031-9.167969-1.558594-1.558593-1.558594-4.097656 0-5.65625 1.558593-1.550781 4.097656-1.566406 5.640625-.015625.070312.0625 7.085937 6.839844 17.191406 6.839844 2.207031 0 4 1.792969 4 4s-1.792969 4-4 4zm0 0" fill="#a0d468"/><path d="m284 236c-2.207031 0-4-1.792969-4-4s1.792969-4 4-4c10.222656 0 17.105469-6.761719 17.167969-6.832031 1.558593-1.558594 4.097656-1.558594 5.65625 0 1.558593 1.558593 1.558593 4.097656 0 5.65625-.367188.375-9.320313 9.175781-22.824219 9.175781zm0 0" fill="#a0d468"/><path d="m284 236c-2.207031 0-4-1.792969-4-4v-8c0-2.207031 1.792969-4 4-4s4 1.792969 4 4v8c0 2.207031-1.792969 4-4 4zm0 0" fill="#a0d468"/><path d="m208 36h-40c-2.207031 0-4-1.792969-4-4s1.792969-4 4-4h40c2.207031 0 4 1.792969 4 4s-1.792969 4-4 4zm0 0" fill="#ccd1d9"/><path d="m264.007812 112h39.984376v4h-39.984376zm0 0" fill="#ed5565"/><path d="m304 280h-40.007812c-2.199219 0-4 1.800781-4 4v8.015625h48.007812v-8.015625c0-2.199219-1.800781-4-4-4zm0 0" fill="#ed5565"/><path d="m208 280h-40.007812c-2.199219 0-4 1.800781-4 4v8.015625h48.007812v-8.015625c0-2.199219-1.800781-4-4-4zm0 0" fill="#ed5565"/><path d="m112 280h-40.007812c-2.199219 0-4 1.800781-4 4v8.015625h48.007812v-8.015625c0-2.199219-1.800781-4-4-4zm0 0" fill="#ed5565"/></svg>