<svg height="512" viewBox="0 0 64 64" width="512" xmlns="http://www.w3.org/2000/svg"><g id="Layer_31" data-name="Layer 31"><path d="m30 51h4v8h-4z" fill="#ea3f3f"/><path d="m32 58-8.392 1.678a2 2 0 0 0 -1.608 1.962v1.36l10-2 10 2v-1.36a2 2 0 0 0 -1.608-1.962z" fill="#f96464"/><path d="m46.959 43h-29.918a2 2 0 0 0 -1.638.853l-4.573 6.533a2 2 0 0 0 1.359 3.13 132.956 132.956 0 0 0 39.622 0 2 2 0 0 0 1.359-3.13l-4.57-6.533a2 2 0 0 0 -1.641-.853z" fill="#72aa65"/><path d="m21.915 52.351a5.964 5.964 0 0 1 -4.315-9.351h-.559a2 2 0 0 0 -1.638.853l-4.573 6.533a2.006 2.006 0 0 0 1.363 3.131 133 133 0 0 0 39.618 0 2 2 0 0 0 1.7-1.83 133 133 0 0 1 -31.596.664z" fill="#599149"/><path d="m47 51a1 1 0 0 1 -1-1v-3a1 1 0 0 1 2 0v3a1 1 0 0 1 -1 1z" fill="#f8c460"/><path d="m32 49a1 1 0 0 1 -1-1v-3a1 1 0 0 1 2 0v3a1 1 0 0 1 -1 1z" fill="#f8c460"/><path d="m42.959 33h-21.918a2 2 0 0 0 -1.638.853l-4.632 6.617a2.008 2.008 0 0 0 1.3 3.125 91 91 0 0 0 31.856 0 2.008 2.008 0 0 0 1.3-3.125l-4.627-6.617a2 2 0 0 0 -1.641-.853z" fill="#72aa65"/><path d="m18 48a1 1 0 0 1 -1-1v-3a1 1 0 0 1 2 0v3a1 1 0 0 1 -1 1z" fill="#f8c460"/><g fill="#599149"><path d="m26.037 42.552a6.094 6.094 0 0 1 -4.437-9.552h-.559a2 2 0 0 0 -1.638.853l-4.632 6.617a2.008 2.008 0 0 0 1.3 3.125 90.957 90.957 0 0 0 31.852 0 2 2 0 0 0 1.649-1.795 90.981 90.981 0 0 1 -23.535.752z"/><circle cx="40" cy="44" r="2"/><circle cx="36" cy="34" r="2"/><circle cx="31" cy="51" r="2"/><circle cx="17" cy="50" r="2"/><path d="m48 53a2 2 0 1 0 -3.442 1.381c1.045-.1 2.09-.2 3.134-.325a1.984 1.984 0 0 0 .308-1.056z"/></g><circle cx="47" cy="52" fill="#f96464" r="2"/><circle cx="22" cy="41" fill="#599149" r="2"/><circle cx="47.5" cy="51.5" fill="#fff" r=".5"/><path d="m21.1 54.535a290.459 290.459 0 0 0 29.4-7.975l-1.2-1.712a262.054 262.054 0 0 1 -35.043 8.938c2.276.307 4.557.561 6.843.749z" fill="#f8c460"/><path d="m41 42a1 1 0 0 1 -1-1v-3a1 1 0 0 1 2 0v3a1 1 0 0 1 -1 1z" fill="#f8c460"/><path d="m45.654 35.363a183.794 183.794 0 0 1 -31.224 6.481 2 2 0 0 0 1.642 1.756c.087.015.174.025.261.04a187.734 187.734 0 0 0 30.528-6.548z" fill="#f8c460"/><circle cx="41" cy="43" fill="#f8c460" r="2"/><circle cx="41.5" cy="42.5" fill="#fff" r=".5"/><path d="m23 38a1 1 0 0 1 -1-1v-3a1 1 0 0 1 2 0v3a1 1 0 0 1 -1 1z" fill="#f8c460"/><circle cx="23" cy="39" fill="#f96464" r="2"/><circle cx="23.5" cy="38.5" fill="#fff" r=".5"/><path d="m38.959 23h-13.918a2 2 0 0 0 -1.638.853l-4.716 6.737a2.006 2.006 0 0 0 1.213 3.11 56.889 56.889 0 0 0 24.2 0 2.006 2.006 0 0 0 1.215-3.109l-4.715-6.738a2 2 0 0 0 -1.641-.853z" fill="#72aa65"/><path d="m31.076 32.781a6.223 6.223 0 0 1 -4.476-9.781h-1.559a2 2 0 0 0 -1.638.853l-4.716 6.737a2.007 2.007 0 0 0 1.218 3.11 56.908 56.908 0 0 0 24.193 0 1.979 1.979 0 0 0 1.518-1.533 56.762 56.762 0 0 1 -14.54.614z" fill="#599149"/><path d="m27 29a1 1 0 0 1 -1-1v-3a1 1 0 0 1 2 0v3a1 1 0 0 1 -1 1z" fill="#f8c460"/><path d="m32 9-9.216 11.729a2.009 2.009 0 0 0 1.088 3.179 30.8 30.8 0 0 0 16.256 0 2.009 2.009 0 0 0 1.088-3.179z" fill="#72aa65"/><path d="m30.344 22.64a4.011 4.011 0 0 1 -2.574-6.44l4.944-6.293-.714-.907-9.216 11.729a2.009 2.009 0 0 0 1.086 3.179 30.8 30.8 0 0 0 16.258 0 2.021 2.021 0 0 0 1.479-1.642 30.645 30.645 0 0 1 -11.263.374z" fill="#599149"/><path d="m32 20a1 1 0 0 1 -1-1v-3a1 1 0 0 1 2 0v3a1 1 0 0 1 -1 1z" fill="#f8c460"/><path d="m32 1 2 3 4 1-3 2 1 4-4-2-4 2 1-4-3-2 4-1z" fill="#f8c460"/><path d="m35.143 7.571-2.732-.371a4 4 0 0 1 -2.381-1.242l-1.485-1.594-2.545.636 3 2-.143.571-.857 3.429 2-1 2-1 4 2z" fill="#faaf42"/><circle cx="31" cy="22" fill="#599149" r="2"/><circle cx="31" cy="22" fill="#599149" r="2"/><circle cx="32" cy="21" fill="#f96464" r="2"/><circle cx="26" cy="31" fill="#599149" r="2"/><path d="m41.315 24.879a108.6 108.6 0 0 1 -22.089 4.941l-.539.77a1.977 1.977 0 0 0 -.346 1.32 108.989 108.989 0 0 0 24.17-5.322z" fill="#f8c460"/><circle cx="32.5" cy="20.5" fill="#fff" r=".5"/><path d="m35.669 13.669a84.317 84.317 0 0 1 -8.892 1.978l-1.777 2.262a80.1 80.1 0 0 0 12-2.545z" fill="#f8c460"/><path d="m37 32a1 1 0 0 1 -1-1v-3a1 1 0 0 1 2 0v3a1 1 0 0 1 -1 1z" fill="#f8c460"/><circle cx="37" cy="33" fill="#98deea" r="2"/><circle cx="37.5" cy="32.5" fill="#fff" r=".5"/><circle cx="27" cy="30" fill="#f8c460" r="2"/><circle cx="27.5" cy="29.5" fill="#fff" r=".5"/><circle cx="18" cy="49" fill="#98deea" r="2"/><circle cx="18.5" cy="48.5" fill="#fff" r=".5"/><circle cx="32" cy="50" fill="#f96464" r="2"/><circle cx="32.5" cy="49.5" fill="#fff" r=".5"/></g></svg>