<?xml version="1.0" encoding="UTF-8" standalone="no"?>
<!-- Generator: Adobe Illustrator 19.0.0, SVG Export Plug-In . SVG Version: 6.00 Build 0)  -->

<svg
   xmlns:dc="http://purl.org/dc/elements/1.1/"
   xmlns:cc="http://creativecommons.org/ns#"
   xmlns:rdf="http://www.w3.org/1999/02/22-rdf-syntax-ns#"
   xmlns:svg="http://www.w3.org/2000/svg"
   xmlns="http://www.w3.org/2000/svg"
   xmlns:sodipodi="http://sodipodi.sourceforge.net/DTD/sodipodi-0.dtd"
   xmlns:inkscape="http://www.inkscape.org/namespaces/inkscape"
   version="1.1"
   id="Capa_1"
   x="0px"
   y="0px"
   viewBox="0 0 512 512"
   style="enable-background:new 0 0 512 512;"
   xml:space="preserve"
   sodipodi:docname="doctor.svg"
   inkscape:version="0.92.4 (5da689c313, 2019-01-14)"><metadata
   id="metadata9777"><rdf:RDF><cc:Work
       rdf:about=""><dc:format>image/svg+xml</dc:format><dc:type
         rdf:resource="http://purl.org/dc/dcmitype/StillImage" /></cc:Work></rdf:RDF></metadata><defs
   id="defs9775" /><sodipodi:namedview
   pagecolor="#ffffff"
   bordercolor="#666666"
   borderopacity="1"
   objecttolerance="10"
   gridtolerance="10"
   guidetolerance="10"
   inkscape:pageopacity="0"
   inkscape:pageshadow="2"
   inkscape:window-width="640"
   inkscape:window-height="480"
   id="namedview9773"
   showgrid="false"
   inkscape:zoom="0.4609375"
   inkscape:cx="115.38717"
   inkscape:cy="256"
   inkscape:window-x="0"
   inkscape:window-y="0"
   inkscape:window-maximized="0"
   inkscape:current-layer="Capa_1" />
<path
   style="fill:#EDEBED;"
   d="M418.627,367.345l-87.036-25.599H180.41l-87.036,25.599c-21.087,6.203-35.567,25.555-35.567,47.535  v72.346c0,13.682,11.092,24.774,24.774,24.774h346.839c13.682,0,24.774-11.092,24.774-24.774V414.88  C454.194,392.9,439.713,373.547,418.627,367.345z"
   id="path9696" />
<polygon
   style="fill:#A5CDFF;"
   points="297.29,512 214.71,512 198.194,346.839 313.806,346.839 "
   id="polygon9698" />
<path
   style="fill:#8CB4EB;"
   d="M198.194,346.839l2.472,24.72c13.609,15.204,33.324,24.829,55.335,24.829s41.726-9.625,55.335-24.829  l2.472-24.72H198.194z"
   id="path9700" />
<path
   style="fill:#F7D291;"
   d="M256,379.871L256,379.871c-31.926,0-57.807-25.881-57.807-57.806v-57.807h115.613v57.807  C313.806,353.99,287.926,379.871,256,379.871z"
   id="path9702" />
<path
   style="fill:#F0C382;"
   d="M198.194,299.198c17.35,9.267,37.023,14.609,57.806,14.609s40.457-5.342,57.806-14.609v-34.94  H198.194V299.198z"
   id="path9704" />
<path
   style="fill:#FFE1A0;"
   d="M367.484,156.903h-4.129v-82.58h-214.71v82.581h-4.129c-11.355,0-20.645,9.29-20.645,20.645  s9.29,20.645,20.645,20.645h4.546c4.23,55.419,50.435,99.097,106.938,99.097s102.708-43.678,106.938-99.097h4.546  c11.355,0,20.645-9.29,20.645-20.645S378.839,156.903,367.484,156.903z"
   id="path9706" />


<path
   style="fill:#F7D291;"
   d="M148.645,74.323v82.581h-3.404c-9.402,0-18.184,5.958-20.62,15.04  c-3.683,13.733,6.715,26.251,19.895,26.251h4.546c4.23,55.419,50.435,99.097,106.938,99.097c5.649,0,11.157-0.55,16.568-1.391  c-51.454-7.942-90.891-52.286-90.891-105.964v-50.184c0-19.387,16.374-35.169,35.696-33.577c5.408,0.446,11.087,0.684,17.054,0.684  c23.946,0,50.683-3.822,79.471-11.359c12.578-3.293,23.397-10.959,30.788-21.178L148.645,74.323L148.645,74.323z"
   id="path9720" />
<path
   style="fill:#A06E50;"
   d="M188.903,41.29l1.032,33.032c0,0-24.774,24.774-24.774,57.806v10.194  c0,8.329-6.202,15.355-14.468,16.389l-18.565,2.321V90.839C132.129,63.474,157.935,39.914,188.903,41.29z"
   id="path9722" />
<path
   style="fill:#DBD9DC;"
   d="M354.938,387.97l-16.357-16.357l17.505-23.34c3.785-5.047,2.076-12.289-3.567-15.111l-38.712-19.356  L256,512h49.548l52.483-104.966C361.21,400.675,359.964,392.996,354.938,387.97z"
   id="path9724" />
<path
   style="fill:#A5CDFF;"
   d="M412.903,458.323h-12.387v-12.387c0-4.565-3.694-8.258-8.258-8.258S384,441.371,384,445.935v12.387  h-12.387c-4.565,0-8.258,3.694-8.258,8.258s3.694,8.258,8.258,8.258H384v12.387c0,4.565,3.694,8.258,8.258,8.258  s8.258-3.694,8.258-8.258v-12.387h12.387c4.565,0,8.258-3.694,8.258-8.258S417.467,458.323,412.903,458.323z"
   id="path9726" />
<path
   style="fill:#CD916E;"
   d="M323.096,16.516l-1.032,57.806c0,0,24.774,24.774,24.774,57.806v10.194  c0,8.329,6.202,15.355,14.468,16.389l18.565,2.321V66.065C379.871,38.7,354.065,15.14,323.096,16.516z"
   id="path9728" />

<path
   style="fill:#DBD9DC;"
   d="M157.063,387.97l16.357-16.357l-17.505-23.34c-3.785-5.047-2.076-12.289,3.567-15.111l38.712-19.356  L256,512h-49.548l-52.483-104.966C150.79,400.675,152.036,392.996,157.063,387.97z"
   id="path9732" />
<path
   style="fill:#B67F5F;"
   d="M272,0c-68.898,0-82.102,20.945-135.155,37.843c-3.646,1.161-5.287,5.384-3.226,8.607  c11.512,18.008,54.361,64.946,176.096,33.073c14.255-3.732,25.217-15.226,28.107-29.676l0,0  c3.348-16.741-6.826-33.321-22.123-40.901C303.549,2.926,287.615,0,272,0z"
   id="path9734" />
<path
   style="fill:#A5CDFF;"
   d="M173.419,512h-66.065c-4.561,0-8.258-3.697-8.258-8.258V470.71c0-4.561,3.697-8.258,8.258-8.258  h66.065c4.561,0,8.258,3.697,8.258,8.258v33.032C181.677,508.303,177.98,512,173.419,512z"
   id="path9736" />
<path
   style="fill:#FFFFFF;"
   d="M140.387,478.968c-4.565,0-8.258-3.694-8.258-8.258v-24.774c0-4.565,3.694-8.258,8.258-8.258  s8.258,3.694,8.258,8.258v24.774C148.645,475.274,144.952,478.968,140.387,478.968z"
   id="path9738" />
<path
   style="fill:#8CB4EB;"
   d="M173.419,495.484h-66.065c-4.561,0-8.258-3.698-8.258-8.258v16.516c0,4.56,3.697,8.258,8.258,8.258  h66.065c4.561,0,8.258-3.698,8.258-8.258v-16.516C181.677,491.786,177.98,495.484,173.419,495.484z"
   id="path9740" />
<g
   id="g9742">
</g>
<g
   id="g9744">
</g>
<g
   id="g9746">
</g>
<g
   id="g9748">
</g>
<g
   id="g9750">
</g>
<g
   id="g9752">
</g>
<g
   id="g9754">
</g>
<g
   id="g9756">
</g>
<g
   id="g9758">
</g>
<g
   id="g9760">
</g>
<g
   id="g9762">
</g>
<g
   id="g9764">
</g>
<g
   id="g9766">
</g>
<g
   id="g9768">
</g>
<g
   id="g9770">
</g>
</svg>