<?xml version="1.0" encoding="UTF-8" standalone="no"?>
<!-- Created with Inkscape (http://www.inkscape.org/) -->

<svg
   xmlns:dc="http://purl.org/dc/elements/1.1/"
   xmlns:cc="http://creativecommons.org/ns#"
   xmlns:rdf="http://www.w3.org/1999/02/22-rdf-syntax-ns#"
   xmlns:svg="http://www.w3.org/2000/svg"
   xmlns="http://www.w3.org/2000/svg"
   xmlns:sodipodi="http://sodipodi.sourceforge.net/DTD/sodipodi-0.dtd"
   xmlns:inkscape="http://www.inkscape.org/namespaces/inkscape"
   width="121.57903mm"
   height="115.63541mm"
   viewBox="0 0 121.57903 115.63541"
   version="1.1"
   id="svg9151"
   inkscape:version="0.92.4 (5da689c313, 2019-01-14)"
   sodipodi:docname="drug-and-alcohol.svg">
  <defs
     id="defs9145" />
  <sodipodi:namedview
     id="base"
     pagecolor="#ffffff"
     bordercolor="#666666"
     borderopacity="1.0"
     inkscape:pageopacity="0.0"
     inkscape:pageshadow="2"
     inkscape:zoom="0.35"
     inkscape:cx="-109.94105"
     inkscape:cy="76.000511"
     inkscape:document-units="mm"
     inkscape:current-layer="layer1"
     showgrid="false"
     fit-margin-top="0"
     fit-margin-left="0"
     fit-margin-right="0"
     fit-margin-bottom="0"
     inkscape:window-width="1920"
     inkscape:window-height="1017"
     inkscape:window-x="-8"
     inkscape:window-y="-8"
     inkscape:window-maximized="1" />
  <metadata
     id="metadata9148">
    <rdf:RDF>
      <cc:Work
         rdf:about="">
        <dc:format>image/svg+xml</dc:format>
        <dc:type
           rdf:resource="http://purl.org/dc/dcmitype/StillImage" />
        <dc:title></dc:title>
      </cc:Work>
    </rdf:RDF>
  </metadata>
  <g
     inkscape:label="Layer 1"
     inkscape:groupmode="layer"
     id="layer1"
     transform="translate(-54.034999,-53.306397)">
    <g
       id="g9229"
       transform="matrix(0.1553248,0,0,0.1553248,101.92931,89.415349)">
      <path
         id="path9153"
         d="M 474.323,16.072 453.96,228.914 438.343,392.093 H 73.657 L 58.04,228.914 37.677,16.072 C 36.849,7.457 43.665,0 52.362,0 h 407.275 c 8.698,0 15.514,7.457 14.686,16.072 z"
         style="fill:#96c8ef"
         inkscape:connector-curvature="0" />
      <path
         id="path9155"
         d="M 474.323,16.072 453.96,228.914 438.343,392.093 H 120.021 L 104.404,228.914 84.041,16.072 C 83.213,7.457 90.029,0 98.726,0 h 360.911 c 8.698,0 15.514,7.457 14.686,16.072 z"
         style="fill:#b3d8f4"
         inkscape:connector-curvature="0" />
      <path
         id="path9157"
         d="M 438.343,392.093 V 505.03 c 0,3.847 -3.113,6.971 -6.96,6.971 H 80.617 c -3.847,0 -6.96,-3.123 -6.96,-6.971 V 392.093 Z"
         style="fill:#96c8ef"
         inkscape:connector-curvature="0" />
      <path
         id="path9159"
         d="m 168.408,306.776 -64.623,-96.713 c -2.813,-4.21 -1.681,-9.904 2.53,-12.717 l 97.28,-65.003 c 4.21,-2.813 9.904,-1.681 12.717,2.53 l 64.623,96.713 c 2.813,4.21 1.681,9.904 -2.53,12.717 l -97.28,65.003 c -4.211,2.813 -9.904,1.68 -12.717,-2.53 z"
         style="fill:#c2dff6"
         inkscape:connector-curvature="0" />
      <path
         id="path9161"
         d="m 364.755,160.598 38.531,109.749 c 1.677,4.778 -0.836,10.01 -5.614,11.688 l -110.393,38.757 c -4.778,1.678 -10.01,-0.836 -11.688,-5.614 L 237.06,205.429 c -1.678,-4.778 0.836,-10.01 5.614,-11.688 l 110.393,-38.757 c 4.778,-1.677 10.011,0.836 11.688,5.614 z"
         style="fill:#d1e7f8"
         inkscape:connector-curvature="0" />
      <polygon
         id="polygon9163"
         points="443.545,337.703 438.343,392.093 73.657,392.093 68.455,337.703 58.04,228.914 453.96,228.914 "
         style="fill:#ee8700" />
      <path
         id="path9165"
         d="m 438.343,450.95 v 54.079 c 0,3.847 -3.113,6.971 -6.96,6.971 H 80.617 c -3.847,0 -6.96,-3.123 -6.96,-6.971 V 450.95 Z"
         style="fill:#b3d8f4"
         inkscape:connector-curvature="0" />
      <path
         id="path9167"
         d="m 112.691,315.512 -8.288,-86.598 H 58.04 l 15.617,163.179 h 46.364 318.322 l 5.202,-54.39 H 137.108 c -12.641,0 -23.212,-9.607 -24.417,-22.191 z"
         style="fill:#cc7400"
         inkscape:connector-curvature="0" />
      <g
         id="g9169">
</g>
      <g
         id="g9171">
</g>
      <g
         id="g9173">
</g>
      <g
         id="g9175">
</g>
      <g
         id="g9177">
</g>
      <g
         id="g9179">
</g>
      <g
         id="g9181">
</g>
      <g
         id="g9183">
</g>
      <g
         id="g9185">
</g>
      <g
         id="g9187">
</g>
      <g
         id="g9189">
</g>
      <g
         id="g9191">
</g>
      <g
         id="g9193">
</g>
      <g
         id="g9195">
</g>
      <g
         id="g9197">
</g>
    </g>
    <g
       id="g9269"
       transform="matrix(0.20961458,0,0,0.20961458,54.034999,53.306528)">
      <path
         id="path9231"
         d="M 168.35156,142.91797 C 129.89844,104.46875 67.335938,104.46875 28.882812,142.92187 10.257812,161.54687 0,186.3125 0,212.65234 c 0,26.34375 10.257812,51.10938 28.882812,69.73438 19.226563,19.22656 44.480469,28.83984 69.734376,28.83984 25.253902,0 50.507812,-9.61328 69.734372,-28.83984 38.44922,-38.44922 38.44922,-101.01563 0,-139.46875 z m 0,0"
         inkscape:connector-curvature="0"
         style="fill:#ffd039" />
      <path
         id="path9233"
         d="m 168.35156,247.30469 c -19.22656,19.22656 -44.48047,28.83984 -69.734372,28.83984 -25.253907,0 -50.507813,-9.61328 -69.734376,-28.83984 C 14.460938,232.88281 5.058594,214.77734 1.550781,195.11328 0.527344,200.84375 0,206.70703 0,212.65234 c 0,26.34375 10.257812,51.10938 28.882812,69.73438 19.226563,19.22656 44.480469,28.83984 69.734376,28.83984 25.253902,0 50.507812,-9.61328 69.734372,-28.83984 23.69531,-23.69531 32.76563,-56.54688 27.25391,-87.27344 -3.42969,19.12891 -12.5,37.4375 -27.25391,52.19141 z m 0,0"
         inkscape:connector-curvature="0"
         style="fill:#ffae47" />
      <path
         id="path9235"
         d="M 354.76562,16.609375 C 333.17578,6.40625 304.51562,0.519531 274.0625,0.03125 243.62109,-0.449219 214.77734,4.515625 192.87109,14.023438 169.06641,24.359375 155.8125,39.109375 155.55078,55.554688 155.28906,72 168.06641,87.164062 191.52734,98.253906 c 21.58985,10.203124 50.25,16.089844 80.70313,16.574224 1.36328,0.0234 2.72265,0.0352 4.07812,0.0352 28.94141,0 56.1875,-4.9414 77.10938,-14.02734 23.80859,-10.332034 37.0625,-25.082034 37.32422,-41.527346 0.26172,-16.445313 -12.51563,-31.609375 -35.97657,-42.699219 z m 0,0"
         inkscape:connector-curvature="0"
         style="fill:#ff9522" />
      <path
         id="path9237"
         d="m 353.41797,66.722656 c -20.92188,9.082032 -48.16797,14.023438 -77.10938,14.023438 -1.35547,0 -2.71484,-0.01172 -4.07812,-0.03516 C 241.77734,80.226562 213.11719,74.339844 191.52734,64.136719 176.75,57.152344 166.21484,48.546875 160.50391,39.027344 157.33203,44.25 155.64453,49.796875 155.55078,55.554688 155.28906,72 168.06641,87.164062 191.52734,98.253906 c 21.58985,10.203124 50.25,16.089844 80.70313,16.578124 1.36328,0.0195 2.72265,0.0312 4.07812,0.0312 28.94141,0 56.1875,-4.9414 77.10938,-14.02344 23.80859,-10.335934 37.0625,-25.085934 37.32422,-41.531246 0.0976,-6.085938 -1.59375,-11.996094 -4.94922,-17.589844 -5.89063,9.699219 -16.89844,18.285156 -32.375,25.003906 z m 0,0"
         inkscape:connector-curvature="0"
         style="fill:#dd7917" />
      <path
         id="path9247"
         d="m 168.35156,142.91797 c -1.78515,-1.78516 -3.64062,-3.46094 -5.52734,-5.07813 L 23.777344,276.88672 c 1.625,1.88672 3.328125,3.72265 5.105468,5.5 1.789063,1.78906 3.640626,3.46094 5.527344,5.08203 L 173.43359,148.44531 c -1.62109,-1.88281 -3.29687,-3.73828 -5.08203,-5.52734 z m 0,0"
         inkscape:connector-curvature="0"
         style="fill:#ff9522" />
      <path
         id="path9249"
         d="m 266.13281,0.046875 -0.89062,114.566405 c 2.3164,0.10156 4.64453,0.17969 6.98828,0.21875 1.36328,0.0195 2.71875,0.0312 4.07422,0.0312 1.32031,0 2.625,-0.0234 3.9375,-0.043 L 281.13281,0.253906 c -2.34375,-0.101562 -4.69922,-0.1835935 -7.07031,-0.222656 -2.65625,-0.0390625 -5.30078,-0.02734375 -7.92969,0.015625 z m 0,0"
         inkscape:connector-curvature="0"
         style="fill:#dd7917" />
    </g>
  </g>
</svg>
