<?xml version="1.0" encoding="UTF-8" standalone="no"?>
<!-- Created with Inkscape (http://www.inkscape.org/) -->

<svg
   xmlns:dc="http://purl.org/dc/elements/1.1/"
   xmlns:cc="http://creativecommons.org/ns#"
   xmlns:rdf="http://www.w3.org/1999/02/22-rdf-syntax-ns#"
   xmlns:svg="http://www.w3.org/2000/svg"
   xmlns="http://www.w3.org/2000/svg"
   xmlns:sodipodi="http://sodipodi.sourceforge.net/DTD/sodipodi-0.dtd"
   xmlns:inkscape="http://www.inkscape.org/namespaces/inkscape"
   width="243.46092"
   height="98.453682"
   viewBox="0 0 64.415703 26.049204"
   version="1.1"
   id="svg4004"
   inkscape:version="0.92.4 (5da689c313, 2019-01-14)"
   sodipodi:docname="dui.svg">
  <defs
     id="defs3998" />
  <sodipodi:namedview
     id="base"
     pagecolor="#ffffff"
     bordercolor="#666666"
     borderopacity="1.0"
     inkscape:pageopacity="0.0"
     inkscape:pageshadow="2"
     inkscape:zoom="2.8"
     inkscape:cx="119.60581"
     inkscape:cy="-7.5504421"
     inkscape:document-units="mm"
     inkscape:current-layer="svg4004"
     showgrid="false"
     fit-margin-top="0"
     fit-margin-left="0"
     fit-margin-right="0"
     fit-margin-bottom="0"
     units="px"
     inkscape:window-width="1920"
     inkscape:window-height="1017"
     inkscape:window-x="-8"
     inkscape:window-y="-8"
     inkscape:window-maximized="1" />
  <metadata
     id="metadata4001">
    <rdf:RDF>
      <cc:Work
         rdf:about="">
        <dc:format>image/svg+xml</dc:format>
        <dc:type
           rdf:resource="http://purl.org/dc/dcmitype/StillImage" />
        <dc:title></dc:title>
      </cc:Work>
    </rdf:RDF>
  </metadata>
  <path
     sodipodi:type="star"
     style="fill:#808080;fill-opacity:1;stroke:none;stroke-width:0.26458332;stroke-miterlimit:4;stroke-dasharray:none;stroke-opacity:1"
     id="path4279"
     sodipodi:sides="3"
     sodipodi:cx="133.2366"
     sodipodi:cy="182.47321"
     sodipodi:r1="9.9976311"
     sodipodi:r2="4.9988155"
     sodipodi:arg1="3.01841"
     sodipodi:arg2="4.0656075"
     inkscape:flatsided="true"
     inkscape:rounded="1"
     inkscape:randomized="0.405"
     d="m 120.45036,180.63724 c -9.91105,-17.24182 4.18222,-12.46932 20.15107,-11.23894 15.96885,1.23038 9.60372,10.61533 -1.96535,19.13022 -11.56906,8.51489 -8.27467,9.35054 -18.18572,-7.89128 z"
     inkscape:transform-center-x="-0.51382118"
     inkscape:transform-center-y="-1.955091"
     transform="matrix(-1.5471472,0.10132665,-0.15757826,-0.99485321,265.61319,180.29029)" />
  <g
     inkscape:label="Layer 1"
     inkscape:groupmode="layer"
     id="layer1"
     transform="translate(-82.69691,-153.955)">
    <g
       id="g4366">
      <path
         inkscape:connector-curvature="0"
         id="path1774"
         style="fill:#eb2530;fill-opacity:1;fill-rule:nonzero;stroke:none;stroke-width:0.03527778"
         d="m 106.62928,162.37554 c -0.47967,0 -0.87284,0.39229 -0.87284,0.87277 v 3.22792 c 0,0.48048 0.39317,0.87277 0.87284,0.87277 h 1.03974 l -0.46534,1.38924 c -0.0466,0.13617 0.0175,0.18838 0.14149,0.11536 l 1.859,-1.10455 v -5.37351 h -2.57489" />
      <path
         inkscape:connector-curvature="0"
         id="path1776"
         style="fill:#eb2530;fill-opacity:1;fill-rule:nonzero;stroke:none;stroke-width:0.03527778"
         d="m 109.20417,167.15885 v 0.5902 l -1.859,1.10455 c -0.124,0.073 -0.18739,0.0208 -0.14149,-0.11536 l 0.1634,-0.48824 1.83709,-1.09115" />
      <path
         inkscape:connector-curvature="0"
         id="path1778"
         style="fill:#eb2530;fill-opacity:1;fill-rule:nonzero;stroke:none;stroke-width:0.03527778"
         d="m 111.77875,162.37554 h -2.57458 v 5.37351 l 0.59196,-0.35137 0.06,-0.0487 h 1.92264 c 0.47943,0 0.87242,-0.39229 0.87242,-0.87277 v -3.22792 c 0,-0.48048 -0.39299,-0.87277 -0.87241,-0.87277" />
      <path
         inkscape:connector-curvature="0"
         id="path1790"
         style="fill:#a11b21;fill-opacity:1;fill-rule:nonzero;stroke:none;stroke-width:0.03527778"
         d="m 100.70456,166.74928 c 0,0.31997 -0.25922,0.57891 -0.57863,0.57891 h -2.471666 c -0.319405,0 -0.578626,-0.25894 -0.578626,-0.57891 0,-0.31962 0.259221,-0.57856 0.578626,-0.57856 h 2.471666 c 0.31941,0 0.57863,0.25894 0.57863,0.57856" />
      <path
         inkscape:connector-curvature="0"
         id="path1792"
         style="fill:#eb2530;fill-opacity:1;fill-rule:nonzero;stroke:none;stroke-width:0.03527778"
         d="m 101.43932,166.74928 c 0,0.31997 -0.25918,0.57891 -0.57877,0.57891 h -0.68421 c -0.319543,0 -0.578764,-0.25894 -0.578764,-0.57891 0,-0.31962 0.259221,-0.57856 0.578764,-0.57856 h 0.68421 c 0.31959,0 0.57877,0.25894 0.57877,0.57856" />
      <path
         inkscape:connector-curvature="0"
         id="path1794"
         style="fill:#40334c;fill-opacity:1;fill-rule:nonzero;stroke:none;stroke-width:0.03527778"
         d="m 102.87248,177.33543 c 0.15325,-0.86818 -0.28607,-1.59208 -1.01092,-1.76283 l 0.007,-0.0377 h -0.33979 c -0.91779,0 -1.804285,0.8061 -1.97958,1.80058 -0.17526,0.99413 0.426649,1.80093 1.34444,1.80093 h 0.33993 l 0.007,-0.0381 c 0.78507,-0.17074 1.47973,-0.895 1.63269,-1.76283" />
      <path
         inkscape:connector-curvature="0"
         id="path1796"
         style="fill:#2d2432;fill-opacity:1;fill-rule:nonzero;stroke:none;stroke-width:0.03527778"
         d="m 100.12371,177.33543 c 0.17529,-0.99448 0.95663,-1.80057 1.74445,-1.80057 0.78839,0 1.28503,0.80609 1.10977,1.80057 -0.17544,0.99413 -0.95681,1.80093 -1.74477,1.80093 -0.78793,0 -1.284853,-0.8068 -1.10945,-1.80093" />
      <path
         inkscape:connector-curvature="0"
         id="path1798"
         style="fill:#40334c;fill-opacity:1;fill-rule:nonzero;stroke:none;stroke-width:0.03527778"
         d="m 88.014082,177.33543 c 0.152824,-0.86818 -0.286632,-1.59208 -1.010814,-1.76283 l 0.0066,-0.0377 h -0.340251 c -0.918033,0 -1.803964,0.8061 -1.979542,1.80058 -0.175436,0.99413 0.426509,1.80093 1.344825,1.80093 h 0.339688 l 0.0069,-0.0381 c 0.784649,-0.17074 1.479339,-0.895 1.632585,-1.76283" />
      <path
         inkscape:connector-curvature="0"
         id="path1800"
         style="fill:#2d2432;fill-opacity:1;fill-rule:nonzero;stroke:none;stroke-width:0.03527778"
         d="m 85.264885,177.33543 c 0.175578,-0.99448 0.956769,-1.80057 1.745015,-1.80057 0.787824,0 1.284888,0.80609 1.109451,1.80057 -0.175577,0.99413 -0.956627,1.80093 -1.744733,1.80093 -0.787682,0 -1.285028,-0.8068 -1.109733,-1.80093" />
      <path
         inkscape:connector-curvature="0"
         id="path1802"
         style="fill:#182330;fill-opacity:1;fill-rule:nonzero;stroke:none;stroke-width:0.03527778"
         d="m 82.839961,177.62895 h 23.970399 v -3.15913 l -5.26189,-1.50812 -8.274859,0.1905 -5.062467,0.004 -5.018828,0.66675 -0.352355,3.80647" />
      <path
         inkscape:connector-curvature="0"
         id="path1804"
         style="fill:#d5f1fc;fill-opacity:1;fill-rule:nonzero;stroke:none;stroke-width:0.03527778"
         d="m 93.152502,173.15572 0.121003,-0.004 3.051387,-5.824 h -3.512785 l -4.600963,5.8275 h 4.941358" />
      <path
         inkscape:connector-curvature="0"
         id="path1806"
         style="fill:#2d2432;fill-opacity:1;fill-rule:nonzero;stroke:none;stroke-width:0.03527778"
         d="m 88.922873,172.81 4.056557,-5.13644 h 2.775478 L 93.063214,172.81 h -4.140341" />
      <path
         inkscape:connector-curvature="0"
         id="path1808"
         style="fill:#4d3c5c;fill-opacity:1;fill-rule:nonzero;stroke:none;stroke-width:0.03527778"
         d="m 88.922873,172.81 v 0 l 4.056557,-5.13644 h 2.775478 L 88.922873,172.81" />
      <path
         inkscape:connector-curvature="0"
         id="path1810"
         style="fill:#1e3451;fill-opacity:1;fill-rule:nonzero;stroke:none;stroke-width:0.03527778"
         d="m 112.33472,174.29132 -0.0116,0.39546 -0.0384,1.31692 -0.0483,1.62525 H 87.931956 l 0.352072,-3.80648 4.989583,-0.66957 13.366999,-0.1912 5.69411,1.32962" />
      <path
         inkscape:connector-curvature="0"
         id="path1812"
         style="fill:#ffffff;fill-opacity:1;fill-rule:nonzero;stroke:none;stroke-width:0.03527778"
         d="m 96.324892,167.32819 h 8.118828 l 2.19689,5.63351 -1.74654,1.05127 -11.620565,-0.86077 3.051387,-5.82401" />
      <path
         inkscape:connector-curvature="0"
         id="path1814"
         style="fill:#ffffff;fill-opacity:1;fill-rule:nonzero;stroke:none;stroke-width:0.03527778"
         d="m 106.64061,172.9617 -13.366999,0.1905 -0.03828,4.47675 h 13.379199 l 0.0261,-4.66725" />
      <path
         inkscape:connector-curvature="0"
         id="path1816"
         style="fill:#2d2432;fill-opacity:1;fill-rule:nonzero;stroke:none;stroke-width:0.03527778"
         d="m 99.957268,172.99274 h -5.94487 l 2.763238,-5.32941 h 3.658124 l -0.476492,5.32941" />
      <path
         inkscape:connector-curvature="0"
         id="path1818"
         style="fill:#2d2432;fill-opacity:1;fill-rule:nonzero;stroke:none;stroke-width:0.03527778"
         d="m 100.96681,167.66333 h 3.2137 l 1.95573,5.32941 h -5.64638 l 0.47695,-5.32941" />
      <path
         inkscape:connector-curvature="0"
         id="path1820"
         style="fill:#ffffff;fill-opacity:1;fill-rule:nonzero;stroke:none;stroke-width:0.03527778"
         d="m 95.832237,169.4826 v 0 l 0.943399,-1.81927 -0.943258,1.81927" />
      <path
         inkscape:connector-curvature="0"
         id="path1822"
         style="fill:#4d3c5c;fill-opacity:1;fill-rule:nonzero;stroke:none;stroke-width:0.03527778"
         d="m 100.27103,169.4826 h -4.438793 l 0.943399,-1.81927 h 3.658124 l -0.16273,1.81927" />
      <path
         inkscape:connector-curvature="0"
         id="path1824"
         style="fill:#ffffff;fill-opacity:1;fill-rule:nonzero;stroke:none;stroke-width:0.03527778"
         d="m 105.23652,169.4826 h -0.38834 l -0.66767,-1.81927 1.05601,1.81927" />
      <path
         inkscape:connector-curvature="0"
         id="path1826"
         style="fill:#4d3c5c;fill-opacity:1;fill-rule:nonzero;stroke:none;stroke-width:0.03527778"
         d="m 104.84818,169.4826 h -4.04414 l 0.16277,-1.81927 h 3.2137 l 0.66767,1.81927" />
      <path
         inkscape:connector-curvature="0"
         id="path1828"
         style="fill:#2d2432;fill-opacity:1;fill-rule:nonzero;stroke:none;stroke-width:0.03527778"
         d="m 109.11986,177.33543 c 0.1531,-0.86818 -0.28575,-1.59208 -1.01053,-1.76283 l 0.007,-0.0377 h -0.34036 c -0.91807,0 -1.80386,0.8061 -1.9793,1.80058 -0.17529,0.99413 0.42651,1.80093 1.3443,1.80093 h 0.34022 l 0.007,-0.0381 c 0.78464,-0.17074 1.47955,-0.895 1.6323,-1.76283" />
      <path
         inkscape:connector-curvature="0"
         id="path1830"
         style="fill:#40334c;fill-opacity:1;fill-rule:nonzero;stroke:none;stroke-width:0.03527778"
         d="m 106.37133,177.33543 c 0.1753,-0.99448 0.95649,-1.80057 1.74459,-1.80057 0.78804,0 1.28475,0.80609 1.10942,1.80057 -0.17533,0.99413 -0.95631,1.80093 -1.74456,1.80093 -0.7881,0 -1.28503,-0.8068 -1.10945,-1.80093" />
      <path
         inkscape:connector-curvature="0"
         id="path1832"
         style="fill:#674a84;fill-opacity:1;fill-rule:nonzero;stroke:none;stroke-width:0.03527778"
         d="m 106.87817,177.33543 c 0.11327,-0.64135 0.61655,-1.16063 1.1249,-1.16063 0.50765,0 0.82822,0.51928 0.71519,1.16063 -0.11314,0.64135 -0.61666,1.16064 -1.12462,1.16064 -0.50822,0 -0.82833,-0.51929 -0.71547,-1.16064" />
      <path
         inkscape:connector-curvature="0"
         id="path1834"
         style="fill:#debee3;fill-opacity:1;fill-rule:nonzero;stroke:none;stroke-width:0.03527778"
         d="m 107.38529,177.33543 c 0.0506,-0.28751 0.27714,-0.52105 0.50479,-0.52105 0.22807,0 0.37193,0.23354 0.3212,0.52105 -0.0507,0.28787 -0.27658,0.52106 -0.50476,0.52106 -0.22835,0 -0.37207,-0.23319 -0.32123,-0.52106" />
      <path
         inkscape:connector-curvature="0"
         id="path1836"
         style="fill:#2d2432;fill-opacity:1;fill-rule:nonzero;stroke:none;stroke-width:0.03527778"
         d="m 94.883442,177.33543 c 0.153388,-0.86818 -0.285786,-1.59208 -1.010779,-1.76283 l 0.0067,-0.0377 h -0.340078 c -0.918069,0 -1.804141,0.8061 -1.979577,1.80058 -0.17526,0.99413 0.426649,1.80093 1.344577,1.80093 h 0.340078 l 0.0066,-0.0381 c 0.784507,-0.17074 1.479303,-0.895 1.632408,-1.76283" />
      <path
         inkscape:connector-curvature="0"
         id="path1838"
         style="fill:#40334c;fill-opacity:1;fill-rule:nonzero;stroke:none;stroke-width:0.03527778"
         d="m 92.134527,177.33543 c 0.175577,-0.99448 0.956663,-1.80057 1.744874,-1.80057 0.787964,0 1.284605,0.80609 1.109486,1.80057 -0.175577,0.99413 -0.956381,1.80093 -1.744486,1.80093 -0.788212,0 -1.285275,-0.8068 -1.109874,-1.80093" />
      <path
         inkscape:connector-curvature="0"
         id="path1840"
         style="fill:#674a84;fill-opacity:1;fill-rule:nonzero;stroke:none;stroke-width:0.03527778"
         d="m 92.641927,177.33543 c 0.112995,-0.64135 0.616268,-1.16063 1.124479,-1.16063 0.508106,0 0.828358,0.51928 0.715363,1.16063 -0.11303,0.64135 -0.61655,1.16064 -1.124479,1.16064 -0.508388,0 -0.82864,-0.51929 -0.715363,-1.16064" />
      <path
         inkscape:connector-curvature="0"
         id="path1842"
         style="fill:#debee3;fill-opacity:1;fill-rule:nonzero;stroke:none;stroke-width:0.03527778"
         d="m 93.149186,177.33543 c 0.05045,-0.28751 0.276437,-0.52105 0.504366,-0.52105 0.228213,0 0.371934,0.23354 0.321205,0.52105 -0.05055,0.28787 -0.276543,0.52106 -0.504755,0.52106 -0.228212,0 -0.371651,-0.23319 -0.320816,-0.52106" />
      <path
         inkscape:connector-curvature="0"
         id="path1844"
         style="fill:#eb2530;fill-opacity:1;fill-rule:nonzero;stroke:none;stroke-width:0.03527778"
         d="m 89.074603,175.53486 h -0.948902 l 0.107597,-1.16488 h 0.841305 v 1.16488" />
      <path
         inkscape:connector-curvature="0"
         id="path1846"
         style="fill:#a11b21;fill-opacity:1;fill-rule:nonzero;stroke:none;stroke-width:0.03527778"
         d="m 88.125701,175.53486 h -1.142964 l 0.107914,-1.16488 h 1.142647 l -0.107597,1.16488" />
      <path
         inkscape:connector-curvature="0"
         id="path1848"
         style="fill:#a11b21;fill-opacity:1;fill-rule:nonzero;stroke:none;stroke-width:0.03527778"
         d="M 83.839839,175.53486 H 82.69691 l 0.107774,-1.16488 h 1.142788 l -0.107633,1.16488" />
      <path
         inkscape:connector-curvature="0"
         id="path1850"
         style="fill:#f6c209;fill-opacity:1;fill-rule:nonzero;stroke:none;stroke-width:0.03527778"
         d="m 112.32308,174.68678 -0.0384,1.31692 h -1.35678 v -1.31692 h 1.39523" />
      <path
         inkscape:connector-curvature="0"
         id="path1852"
         style="fill:#ffffff;fill-opacity:1;fill-rule:nonzero;stroke:none;stroke-width:0.03527778"
         d="m 88.921497,177.64235 h -5.138984 v -0.72355 h 5.138984 v 0.72355" />
      <path
         inkscape:connector-curvature="0"
         id="path1854"
         style="fill:#ffffff;fill-opacity:1;fill-rule:nonzero;stroke:none;stroke-width:0.03527778"
         d="m 112.82191,177.64235 h -2.36361 v -0.72355 h 2.36361 v 0.72355" />
      <path
         inkscape:connector-curvature="0"
         id="path1856"
         style="fill:#bfeaf6;fill-opacity:1;fill-rule:nonzero;stroke:none;stroke-width:0.03527778"
         d="m 88.044386,177.64235 h -5.13842 v -0.72355 h 5.13842 v 0.72355" />
      <path
         inkscape:connector-curvature="0"
         id="path1858"
         style="fill:#1e3451;fill-opacity:1;fill-rule:nonzero;stroke:none;stroke-width:0.03527778"
         d="m 101.76702,173.54448 c 0,0.13335 -0.24928,0.2406 -0.55616,0.2406 -0.30744,0 -0.55619,-0.10725 -0.55619,-0.2406 0,-0.13264 0.24875,-0.24024 0.55619,-0.24024 0.30688,0 0.55616,0.1076 0.55616,0.24024" />
      <path
         inkscape:connector-curvature="0"
         id="path1860"
         style="fill:#1e3451;fill-opacity:1;fill-rule:nonzero;stroke:none;stroke-width:0.03527778"
         d="m 95.381458,173.54448 c 0,0.13335 -0.249273,0.2406 -0.556436,0.2406 -0.307023,0 -0.55619,-0.10725 -0.55619,-0.2406 0,-0.13264 0.249167,-0.24024 0.55619,-0.24024 0.307163,0 0.556436,0.1076 0.556436,0.24024" />
      <path
         inkscape:connector-curvature="0"
         id="path1862"
         style="fill:#1e3451;fill-opacity:1;fill-rule:nonzero;stroke:none;stroke-width:0.03527778"
         d="m 101.3772,174.79614 c 0.0511,0 0.0782,-0.0314 0.0782,-0.1203 -6.6e-4,-0.0875 -0.0349,-0.11218 -0.0782,-0.11218 h -0.17477 v 0.23248 z m -0.37814,-0.40887 h 0.39645 c 0.11977,0 0.26486,0.0335 0.26486,0.28681 0,0.28257 -0.156,0.30409 -0.26486,0.29774 -0.0493,-0.002 -0.18701,-0.0201 -0.19308,-0.0251 v 0.34784 h -0.20337 v -0.90734" />
      <path
         inkscape:connector-curvature="0"
         id="path1864"
         style="fill:#1e3451;fill-opacity:1;fill-rule:nonzero;stroke:none;stroke-width:0.03527778"
         d="m 102.09584,175.1154 c 0.12841,0 0.16577,-0.0462 0.16577,-0.26846 0,-0.25082 -0.0389,-0.28116 -0.16577,-0.28116 -0.12308,0 -0.16633,0.0222 -0.16633,0.28116 0,0.22296 0.026,0.26846 0.16633,0.26846 z m 0,-0.73377 c 0.21456,0 0.36915,0.0406 0.36915,0.46531 0,0.40146 -0.14563,0.45367 -0.36915,0.45367 -0.22313,0 -0.36974,-0.0402 -0.36974,-0.45367 0,-0.42474 0.16136,-0.46531 0.36974,-0.46531" />
      <path
         inkscape:connector-curvature="0"
         id="path1866"
         style="fill:#1e3451;fill-opacity:1;fill-rule:nonzero;stroke:none;stroke-width:0.03527778"
         d="m 102.56793,174.38727 h 0.20341 v 0.65864 c 0,0.066 0.0412,0.0646 0.0772,0.0646 h 0.28635 v 0.18415 h -0.37042 c -0.1053,0 -0.19653,-0.0437 -0.19653,-0.18345 v -0.7239" />
      <path
         inkscape:connector-curvature="0"
         id="path1868"
         style="fill:#1e3451;fill-opacity:1;fill-rule:nonzero;stroke:none;stroke-width:0.03527778"
         d="m 103.22928,174.38727 h 0.20338 v 0.90735 h -0.20338 v -0.90735" />
      <path
         inkscape:connector-curvature="0"
         id="path1870"
         style="fill:#1e3451;fill-opacity:1;fill-rule:nonzero;stroke:none;stroke-width:0.03527778"
         d="m 103.83821,174.37669 c 0.15035,0 0.21953,0.012 0.32124,0.0455 v 0.15839 c -0.001,0 -0.14097,-0.019 -0.26557,-0.019 -0.11684,0 -0.16316,0.0148 -0.16316,0.27976 0,0.20355 0.0291,0.27587 0.16429,0.27587 0.13021,0 0.26444,-0.01 0.26444,-0.01 v 0.1591 c -0.0795,0.0275 -0.16729,0.0395 -0.32124,0.036 -0.22959,-0.002 -0.31101,-0.16792 -0.31101,-0.46355 0,-0.28998 0.0642,-0.46214 0.31101,-0.46214" />
      <path
         inkscape:connector-curvature="0"
         id="path1872"
         style="fill:#1e3451;fill-opacity:1;fill-rule:nonzero;stroke:none;stroke-width:0.03527778"
         d="m 104.24916,174.58624 c 0,-0.17145 0.12552,-0.19967 0.21192,-0.19897 0,0 0.2934,0.005 0.40227,0.0205 v 0.16863 h -0.34604 c -0.0648,0 -0.0648,0.0367 -0.0648,0.0699 v 0.10301 l 0.35196,0.0138 v 0.16827 l -0.35196,0.0113 v 0.10266 c 2.9e-4,0.0653 0.0408,0.0646 0.077,0.0646 h 0.33376 v 0.16828 c -0.0955,0.013 -0.38957,0.0208 -0.38957,0.0208 -0.0806,0.004 -0.22461,-0.0145 -0.22461,-0.19156 v -0.52105" />
      <path
         inkscape:connector-curvature="0"
         id="path1874"
         style="fill:#eb2530;fill-opacity:1;fill-rule:nonzero;stroke:none;stroke-width:0.03527778"
         d="m 134.41438,166.7461 c 0,0.1263 -0.10231,0.22966 -0.22966,0.22966 -0.12665,0 -0.23001,-0.10336 -0.23001,-0.22966 v -1.43862 c 0,-0.12736 0.10336,-0.22966 0.23001,-0.22966 0.12735,0 0.22966,0.1023 0.22966,0.22966 v 1.43862" />
      <path
         inkscape:connector-curvature="0"
         id="path1876"
         style="fill:#eb2530;fill-opacity:1;fill-rule:nonzero;stroke:none;stroke-width:0.03527778"
         d="m 135.30444,166.9172 c -0.0476,0.11642 -0.18168,0.17357 -0.29951,0.12524 -0.11783,-0.0483 -0.17392,-0.18274 -0.1263,-0.29986 l 0.83503,-1.27353 c 0.0487,-0.11818 0.18309,-0.17427 0.30092,-0.127 0.11783,0.049 0.17356,0.1838 0.12629,0.30162 l -0.83643,1.27353" />
      <path
         inkscape:connector-curvature="0"
         id="path1878"
         style="fill:#eb2530;fill-opacity:1;fill-rule:nonzero;stroke:none;stroke-width:0.03527778"
         d="m 133.065,166.9172 c 0.048,0.11642 0.18274,0.17357 0.29951,0.12524 0.11783,-0.0483 0.17427,-0.18274 0.12665,-0.29986 l -0.83538,-1.27353 c -0.0483,-0.11818 -0.18309,-0.17427 -0.30021,-0.127 -0.11783,0.049 -0.17392,0.1838 -0.1263,0.30162 l 0.83573,1.27353" />
      <path
         inkscape:connector-curvature="0"
         id="path1880"
         style="fill:#40334c;fill-opacity:1;fill-rule:nonzero;stroke:none;stroke-width:0.03527778"
         d="m 136.38182,177.01935 c 0.1531,-0.87031 0.84102,-1.5748 1.53564,-1.5748 h 0.44767 l -0.0183,0.10265 c 0.43463,0.22508 0.67064,0.79905 0.55175,1.47215 -0.11854,0.67239 -0.55704,1.24565 -1.07104,1.47178 l -0.018,0.10266 h -0.44732 c -0.69462,0 -1.13383,-0.70485 -0.98037,-1.57444" />
      <path
         inkscape:connector-curvature="0"
         id="path1882"
         style="fill:#2d2432;fill-opacity:1;fill-rule:nonzero;stroke:none;stroke-width:0.03527778"
         d="m 139.34586,177.01935 c 0.15381,-0.87031 -0.2861,-1.5748 -0.98073,-1.5748 -0.69532,0 -1.38288,0.70449 -1.53599,1.5748 -0.15346,0.86959 0.2854,1.57444 0.98037,1.57444 0.69497,0 1.38289,-0.70485 1.53635,-1.57444" />
      <path
         inkscape:connector-curvature="0"
         id="path1884"
         style="fill:#40334c;fill-opacity:1;fill-rule:nonzero;stroke:none;stroke-width:0.03527778"
         d="m 123.25496,177.01935 c 0.1531,-0.87031 0.84031,-1.5748 1.53599,-1.5748 h 0.44697 l -0.018,0.10265 c 0.43427,0.22508 0.67028,0.79905 0.5521,1.47215 -0.11853,0.67239 -0.55704,1.24565 -1.07103,1.47178 l -0.0183,0.10266 h -0.44732 c -0.69462,0 -1.13383,-0.70485 -0.98037,-1.57444" />
      <path
         inkscape:connector-curvature="0"
         id="path1886"
         style="fill:#2d2432;fill-opacity:1;fill-rule:nonzero;stroke:none;stroke-width:0.03527778"
         d="m 126.219,177.01935 c 0.15346,-0.87031 -0.2861,-1.5748 -0.98108,-1.5748 -0.69462,0 -1.38253,0.70449 -1.53599,1.5748 -0.15346,0.86959 0.28575,1.57444 0.98072,1.57444 0.69497,0 1.38289,-0.70485 1.53635,-1.57444" />
      <path
         inkscape:connector-curvature="0"
         id="path1888"
         style="fill:#496c28;fill-opacity:1;fill-rule:nonzero;stroke:none;stroke-width:0.03527778"
         d="m 122.94734,177.09237 h 19.96722 v -2.21721 l -5.26168,-1.50812 -10.39813,-0.0187 h -3.80329 l -0.50412,3.74403" />
      <path
         inkscape:connector-curvature="0"
         id="path1890"
         style="fill:#54802c;fill-opacity:1;fill-rule:nonzero;stroke:none;stroke-width:0.03527778"
         d="m 128.14128,168.07467 h 6.77545 l 2.73615,5.29201 -10.39813,-0.0183 -2.63172,0.001 3.51825,-5.27508" />
      <path
         inkscape:connector-curvature="0"
         id="path1892"
         style="fill:#5d9630;fill-opacity:1;fill-rule:nonzero;stroke:none;stroke-width:0.03527778"
         d="m 126.75063,177.09237 h 19.96723 v -2.21721 l -5.26169,-1.50812 -14.20142,-0.0187 -0.50412,3.74403" />
      <path
         inkscape:connector-curvature="0"
         id="path1894"
         style="fill:#54802c;fill-opacity:1;fill-rule:nonzero;stroke:none;stroke-width:0.03527778"
         d="m 126.9182,175.84707 -0.16757,1.2453 h 19.96723 v -1.2453 H 126.9182" />
      <path
         inkscape:connector-curvature="0"
         id="path1896"
         style="fill:#5d9630;fill-opacity:1;fill-rule:nonzero;stroke:none;stroke-width:0.03527778"
         d="m 130.87249,168.07467 h 7.84789 l 2.73579,5.29201 -13.18118,0.30974 2.5975,-5.60175" />
      <path
         inkscape:connector-curvature="0"
         id="path1898"
         style="fill:#bfeaf6;fill-opacity:1;fill-rule:nonzero;stroke:none;stroke-width:0.03527778"
         d="m 136.56914,173.39702 h -7.49299 l 2.24719,-4.98827 h 5.53614 l -0.29034,4.98827" />
      <path
         inkscape:connector-curvature="0"
         id="path1900"
         style="fill:#bfeaf6;fill-opacity:1;fill-rule:nonzero;stroke:none;stroke-width:0.03527778"
         d="m 137.39217,168.40875 h 1.06469 l 2.49484,4.98827 h -3.84951 l 0.28998,-4.98827" />
      <path
         inkscape:connector-curvature="0"
         id="path1902"
         style="fill:#96c16c;fill-opacity:1;fill-rule:nonzero;stroke:none;stroke-width:0.03527778"
         d="m 136.74342,170.40653 h -2.7e-4 l 0.11642,-1.99778 -0.11607,1.99778" />
      <path
         inkscape:connector-curvature="0"
         id="path1904"
         style="fill:#d5f1f9;fill-opacity:1;fill-rule:nonzero;stroke:none;stroke-width:0.03527778"
         d="m 136.74306,170.40653 h -6.31966 l 0.89994,-1.99778 h 5.53614 l -0.11642,1.99778" />
      <path
         inkscape:connector-curvature="0"
         id="path1906"
         style="fill:#96c16c;fill-opacity:1;fill-rule:nonzero;stroke:none;stroke-width:0.03527778"
         d="m 137.27611,170.40653 h -2.7e-4 l 0.11642,-1.99778 -0.11606,1.99778" />
      <path
         inkscape:connector-curvature="0"
         id="path1908"
         style="fill:#d5f1f9;fill-opacity:1;fill-rule:nonzero;stroke:none;stroke-width:0.03527778"
         d="m 139.45592,170.40653 h -2.17981 l 0.11606,-1.99778 h 1.06469 l 0.99906,1.99778" />
      <path
         inkscape:connector-curvature="0"
         id="path1910"
         style="fill:#ffffff;fill-opacity:1;fill-rule:nonzero;stroke:none;stroke-width:0.03527778"
         d="m 145.8091,177.2677 h 1.30351 v -0.6985 h -1.30351 v 0.6985" />
      <path
         inkscape:connector-curvature="0"
         id="path1912"
         style="fill:#c0ddeb;fill-opacity:1;fill-rule:nonzero;stroke:none;stroke-width:0.03527778"
         d="m 122.62913,177.2677 h 4.18818 v -0.6985 h -4.18818 v 0.6985" />
      <path
         inkscape:connector-curvature="0"
         id="path1914"
         style="fill:#ffffff;fill-opacity:1;fill-rule:nonzero;stroke:none;stroke-width:0.03527778"
         d="m 128.04039,177.2677 h -1.22308 v -0.6985 h 1.22308 v 0.6985" />
      <path
         inkscape:connector-curvature="0"
         id="path1916"
         style="fill:#496c28;fill-opacity:1;fill-rule:nonzero;stroke:none;stroke-width:0.03527778"
         d="m 137.41369,173.94771 c 0,0.127 0.10337,0.22966 0.23037,0.22966 h 0.60325 c 0.127,0 0.23001,-0.10266 0.23001,-0.22966 0,-0.12665 -0.10301,-0.23001 -0.23001,-0.23001 h -0.60325 c -0.127,0 -0.23037,0.10336 -0.23037,0.23001" />
      <path
         inkscape:connector-curvature="0"
         id="path1918"
         style="fill:#496c28;fill-opacity:1;fill-rule:nonzero;stroke:none;stroke-width:0.03527778"
         d="m 129.32485,173.94771 c 0,0.127 0.10266,0.22966 0.23001,0.22966 h 0.60325 c 0.12665,0 0.22966,-0.10266 0.22966,-0.22966 0,-0.12665 -0.10301,-0.23001 -0.22966,-0.23001 h -0.60325 c -0.12735,0 -0.23001,0.10336 -0.23001,0.23001" />
      <path
         inkscape:connector-curvature="0"
         id="path1920"
         style="fill:#2d2432;fill-opacity:1;fill-rule:nonzero;stroke:none;stroke-width:0.03527778"
         d="m 141.65161,177.01935 c 0.15346,-0.87031 0.84102,-1.5748 1.536,-1.5748 h 0.44767 l -0.0183,0.10265 c 0.43427,0.22508 0.67028,0.79905 0.55175,1.47215 -0.11889,0.67239 -0.55669,1.24565 -1.07104,1.47178 l -0.018,0.10266 h -0.44732 c -0.69497,0 -1.13418,-0.70485 -0.98072,-1.57444" />
      <path
         inkscape:connector-curvature="0"
         id="path1922"
         style="fill:#40334c;fill-opacity:1;fill-rule:nonzero;stroke:none;stroke-width:0.03527778"
         d="m 144.61565,177.01935 c 0.15381,-0.87031 -0.28575,-1.5748 -0.98037,-1.5748 -0.69567,0 -1.38324,0.70449 -1.53635,1.5748 -0.15345,0.86959 0.2854,1.57444 0.98073,1.57444 0.69497,0 1.38289,-0.70485 1.53599,-1.57444" />
      <path
         inkscape:connector-curvature="0"
         id="path1924"
         style="fill:#674a84;fill-opacity:1;fill-rule:nonzero;stroke:none;stroke-width:0.03527778"
         d="m 144.16868,177.01935 c 0.0991,-0.56092 -0.18415,-1.01565 -0.63253,-1.01565 -0.44803,0 -0.89112,0.45473 -0.99024,1.01565 -0.0988,0.55985 0.1845,1.01423 0.63217,1.01423 0.44838,0 0.89183,-0.45438 0.9906,-1.01423" />
      <path
         inkscape:connector-curvature="0"
         id="path1926"
         style="fill:#debee3;fill-opacity:1;fill-rule:nonzero;stroke:none;stroke-width:0.03527778"
         d="m 143.72136,177.01935 c 0.0441,-0.25224 -0.0825,-0.4565 -0.28399,-0.4565 -0.20073,0 -0.40005,0.20426 -0.4445,0.4565 -0.0441,0.25153 0.0829,0.45543 0.28434,0.45543 0.20109,0 0.40005,-0.2039 0.44415,-0.45543" />
      <path
         inkscape:connector-curvature="0"
         id="path1928"
         style="fill:#2d2432;fill-opacity:1;fill-rule:nonzero;stroke:none;stroke-width:0.03527778"
         d="m 128.5244,177.01935 c 0.15346,-0.87031 0.84137,-1.5748 1.5367,-1.5748 h 0.44697 l -0.018,0.10265 c 0.43427,0.22508 0.67028,0.79905 0.55174,1.47215 -0.11888,0.67239 -0.55668,1.24565 -1.07103,1.47178 l -0.0183,0.10266 h -0.44697 c -0.69497,0 -1.13418,-0.70485 -0.98108,-1.57444" />
      <path
         inkscape:connector-curvature="0"
         id="path1930"
         style="fill:#40334c;fill-opacity:1;fill-rule:nonzero;stroke:none;stroke-width:0.03527778"
         d="m 131.48915,177.01935 c 0.1531,-0.87031 -0.28646,-1.5748 -0.98108,-1.5748 -0.69532,0 -1.38289,0.70449 -1.53635,1.5748 -0.1531,0.86959 0.2861,1.57444 0.98073,1.57444 0.69532,0 1.38324,-0.70485 1.5367,-1.57444" />
      <path
         inkscape:connector-curvature="0"
         id="path1932"
         style="fill:#674a84;fill-opacity:1;fill-rule:nonzero;stroke:none;stroke-width:0.03527778"
         d="m 131.04182,177.01935 c 0.0988,-0.56092 -0.1845,-1.01565 -0.63253,-1.01565 -0.44767,0 -0.89112,0.45473 -0.99024,1.01565 -0.0984,0.55985 0.18415,1.01423 0.63252,1.01423 0.44803,0 0.89112,-0.45438 0.99025,-1.01423" />
      <path
         inkscape:connector-curvature="0"
         id="path1934"
         style="fill:#debee3;fill-opacity:1;fill-rule:nonzero;stroke:none;stroke-width:0.03527778"
         d="m 130.5945,177.01935 c 0.0444,-0.25224 -0.0825,-0.4565 -0.28399,-0.4565 -0.20108,0 -0.40005,0.20426 -0.4445,0.4565 -0.0444,0.25153 0.0829,0.45543 0.28399,0.45543 0.20144,0 0.40005,-0.2039 0.4445,-0.45543" />
      <path
         inkscape:connector-curvature="0"
         id="path1936"
         style="fill:#e63820;fill-opacity:1;fill-rule:nonzero;stroke:none;stroke-width:0.03527778"
         d="m 127.04167,174.91185 h 0.55528 v -1.01141 h -0.41663 l -0.13865,1.01141" />
      <path
         inkscape:connector-curvature="0"
         id="path1938"
         style="fill:#a11b21;fill-opacity:1;fill-rule:nonzero;stroke:none;stroke-width:0.03527778"
         d="m 123.05599,174.91185 h 0.55527 v -1.01141 h -0.41592 l -0.13935,1.01141" />
      <path
         inkscape:connector-curvature="0"
         id="path1940"
         style="fill:#a11b21;fill-opacity:1;fill-rule:nonzero;stroke:none;stroke-width:0.03527778"
         d="m 126.43313,174.91185 h 0.60854 l 0.15276,-1.01141 h -0.62195 l -0.13935,1.01141" />
      <path
         inkscape:connector-curvature="0"
         id="path1942"
         style="fill:#bfeaf6;fill-opacity:1;fill-rule:nonzero;stroke:none;stroke-width:0.03527778"
         d="m 130.71727,168.40875 h -2.79894 l -3.2953,4.941 3.804,-0.001 2.29024,-4.93959" />
      <path
         inkscape:connector-curvature="0"
         id="path1944"
         style="fill:#c0ddeb;fill-opacity:1;fill-rule:nonzero;stroke:none;stroke-width:0.03527778"
         d="m 126.63457,168.90581 h -7.84719 v -0.14358 h 7.84719 v 0.14358" />
      <path
         inkscape:connector-curvature="0"
         id="path1946"
         style="fill:#c0ddeb;fill-opacity:1;fill-rule:nonzero;stroke:none;stroke-width:0.03527778"
         d="m 125.11022,169.62442 h -6.69784 v -0.14323 h 6.69784 v 0.14323" />
      <path
         inkscape:connector-curvature="0"
         id="path1948"
         style="fill:#c0ddeb;fill-opacity:1;fill-rule:nonzero;stroke:none;stroke-width:0.03527778"
         d="m 124.38244,170.47391 h -7.84719 v -0.14323 h 7.84719 v 0.14323" />
      <path
         inkscape:connector-curvature="0"
         id="path1950"
         style="fill:#c0ddeb;fill-opacity:1;fill-rule:nonzero;stroke:none;stroke-width:0.03527778"
         d="m 123.61126,171.89313 h -7.84754 v -0.14323 h 7.84754 v 0.14323" />
      <path
         inkscape:connector-curvature="0"
         id="path1952"
         style="fill:#c0ddeb;fill-opacity:1;fill-rule:nonzero;stroke:none;stroke-width:0.03527778"
         d="m 124.23639,171.19252 h -6.69749 v -0.14359 h 6.69749 v 0.14359" />
    </g>
    <g
       id="g4269"
       transform="matrix(0.06299603,0,0,0.06299603,107.69122,162.96751)">
      <g
         id="g4206">
	<path
   id="path4190"
   d="m 44.5,20.232 h -6 v 4 h 4 c 1.1,0 2,0.9 2,2 v 10 c 0,1.1 -0.9,2 -2,2 h -4 v 4 h 6 c 2.2,0 4,-1.8 4,-4 v -14 c 0,-2.2 -1.8,-4 -4,-4 z"
   style="fill:#e6e6e6"
   inkscape:connector-curvature="0" />

	<path
   id="path4192"
   d="M 32.5,4 C 31.117,4 29.847,4.472 28.833,5.258 27.837,3.325 25.825,2 23.5,2 22.651,2 21.845,2.178 21.113,2.496 19.924,0.979 18.078,0 16,0 12.875,0 10.268,2.205 9.644,5.144 9.275,5.057 8.895,5 8.5,5 c -2.761,0 -5,2.239 -5,5 v 8 c 0,1.1 0.9,2 2,2 h 1 c 1.1,0 2,-0.9 2,-2 V 16.404 C 9.106,16.775 9.809,17 10.568,17 h 1.967 c 1.275,0 2.402,-0.615 3.136,-1.551 1.089,1.539 2.879,2.551 4.897,2.551 3.3,0 6,-2.7 6,-6 h 11.583 c 0.222,-0.626 0.349,-1.298 0.349,-2 0,-3.314 -2.686,-6 -6,-6 z"
   style="fill:#e6e6e6"
   inkscape:connector-curvature="0" />

	<path
   id="path4194"
   d="m 26.568,12 c 0,3.3 -2.7,6 -6,6 C 18.55,18 16.76,16.988 15.671,15.449 14.937,16.385 13.81,17 12.535,17 H 10.568 C 9.81,17 9.106,16.775 8.5,16.404 V 47 c 0,2.75 2.25,5 5,5 h 20 c 2.75,0 5,-2.25 5,-5 V 12 Z"
   style="fill:#f4c44e"
   inkscape:connector-curvature="0" />

	<path
   id="path4196"
   d="m 14.5,25 c 0,-1.65 -1.35,-3 -3,-3 -1.65,0 -3,1.35 -3,3 v 21 h 6 z"
   style="fill:#f9da49"
   inkscape:connector-curvature="0" />

	<path
   id="path4198"
   d="m 20.5,25 c 0,-1.65 -1.35,-3 -3,-3 -1.65,0 -3,1.35 -3,3 v 21 h 6 z"
   style="fill:#eeaf4b"
   inkscape:connector-curvature="0" />

	<path
   id="path4200"
   d="m 26.5,25 c 0,-1.65 -1.35,-3 -3,-3 -1.65,0 -3,1.35 -3,3 v 21 h 6 z"
   style="fill:#f9da49"
   inkscape:connector-curvature="0" />

	<path
   id="path4202"
   d="m 32.5,25 c 0,-1.65 -1.35,-3 -3,-3 -1.65,0 -3,1.35 -3,3 v 21 h 6 z"
   style="fill:#eeaf4b"
   inkscape:connector-curvature="0" />

	<path
   id="path4204"
   d="m 38.5,25 c 0,-1.65 -1.35,-3 -3,-3 -1.65,0 -3,1.35 -3,3 v 21 h 6 z"
   style="fill:#f9da49"
   inkscape:connector-curvature="0" />

</g>
      <g
         id="g4208">
</g>
      <g
         id="g4210">
</g>
      <g
         id="g4212">
</g>
      <g
         id="g4214">
</g>
      <g
         id="g4216">
</g>
      <g
         id="g4218">
</g>
      <g
         id="g4220">
</g>
      <g
         id="g4222">
</g>
      <g
         id="g4224">
</g>
      <g
         id="g4226">
</g>
      <g
         id="g4228">
</g>
      <g
         id="g4230">
</g>
      <g
         id="g4232">
</g>
      <g
         id="g4234">
</g>
      <g
         id="g4236">
</g>
    </g>
  </g>
</svg>
