<?xml version="1.0" encoding="UTF-8" standalone="no"?>
<!-- Created with Inkscape (http://www.inkscape.org/) -->

<svg
   xmlns:dc="http://purl.org/dc/elements/1.1/"
   xmlns:cc="http://creativecommons.org/ns#"
   xmlns:rdf="http://www.w3.org/1999/02/22-rdf-syntax-ns#"
   xmlns:svg="http://www.w3.org/2000/svg"
   xmlns="http://www.w3.org/2000/svg"
   xmlns:sodipodi="http://sodipodi.sourceforge.net/DTD/sodipodi-0.dtd"
   xmlns:inkscape="http://www.inkscape.org/namespaces/inkscape"
   width="27.980532mm"
   height="20.512001mm"
   viewBox="0 0 27.980532 20.512001"
   version="1.1"
   id="svg1969"
   inkscape:version="0.92.4 (5da689c313, 2019-01-14)"
   sodipodi:docname="gavel.svg">
  <defs
     id="defs1963" />
  <sodipodi:namedview
     id="base"
     pagecolor="#ffffff"
     bordercolor="#666666"
     borderopacity="1.0"
     inkscape:pageopacity="0.0"
     inkscape:pageshadow="2"
     inkscape:zoom="0.35"
     inkscape:cx="-211.40912"
     inkscape:cy="-226.95149"
     inkscape:document-units="mm"
     inkscape:current-layer="layer1"
     showgrid="false"
     fit-margin-top="0"
     fit-margin-left="0"
     fit-margin-right="0"
     fit-margin-bottom="0"
     inkscape:window-width="1920"
     inkscape:window-height="1017"
     inkscape:window-x="-8"
     inkscape:window-y="-8"
     inkscape:window-maximized="1" />
  <metadata
     id="metadata1966">
    <rdf:RDF>
      <cc:Work
         rdf:about="">
        <dc:format>image/svg+xml</dc:format>
        <dc:type
           rdf:resource="http://purl.org/dc/dcmitype/StillImage" />
        <dc:title></dc:title>
      </cc:Work>
    </rdf:RDF>
  </metadata>
  <g
     inkscape:label="Layer 1"
     inkscape:groupmode="layer"
     id="layer1"
     transform="translate(-38.9264,-68.273751)">
    <path
       d="m 64.900228,87.077955 c -0.477908,-0.815623 -2.009881,-1.413228 -3.830003,-1.413228 -1.81998,0 -3.351777,0.597605 -3.829826,1.413228 h 7.659829"
       style="fill:#76421a;fill-opacity:1;fill-rule:nonzero;stroke:none;stroke-width:0.03527778"
       id="path1108"
       inkscape:connector-curvature="0" />
    <path
       d="m 65.850118,87.941555 h -9.559749 l 0.171838,-0.382412 c 0.152682,-0.339019 0.578661,-0.567619 1.058333,-0.567619 h 7.09937 c 0.479708,0 0.905651,0.2286 1.058335,0.567619 l 0.171873,0.382412"
       style="fill:#f0b80c;fill-opacity:1;fill-rule:nonzero;stroke:none;stroke-width:0.03527778"
       id="path1110"
       inkscape:connector-curvature="0" />
    <path
       d="M 66.906933,88.785752 H 55.233552 l 0.285962,-0.561975 c 0.164536,-0.323145 0.579861,-0.536928 1.043728,-0.536928 h 9.014284 c 0.46369,0 0.879192,0.213783 1.043445,0.536928 l 0.285962,0.561975"
       style="fill:#856243;fill-opacity:1;fill-rule:nonzero;stroke:none;stroke-width:0.03527778"
       id="path1112"
       inkscape:connector-curvature="0" />
    <path
       d="M 60.798198,73.800458 C 61.387055,74.787883 43.062049,86.798907 42.074532,87.387693 41.087029,87.97648 39.809173,87.652982 39.220475,86.665557 38.63164,85.678132 38.954791,84.400371 39.942294,83.811585 40.929934,83.222799 60.209518,72.81268 60.798198,73.800458"
       style="fill:#87471c;fill-opacity:1;fill-rule:nonzero;stroke:none;stroke-width:0.03527778"
       id="path1114"
       inkscape:connector-curvature="0" />
    <path
       d="m 52.704453,76.95923 c -0.41275,-0.06421 -0.849559,0.0095 -1.23638,0.240241 -0.881662,0.525639 -1.170234,1.666523 -0.644525,2.548114 0.525604,0.881592 1.666346,1.170164 2.548149,0.644525 0.38668,-0.230716 0.659236,-0.579614 0.799112,-0.973314 C 53.675121,79.279449 53.229598,78.95948 52.94533,78.482524 52.660885,78.005569 52.591176,77.461233 52.704453,76.95923"
       style="fill:#986130;fill-opacity:1;fill-rule:nonzero;stroke:none;stroke-width:0.03527778"
       id="path1116"
       inkscape:connector-curvature="0" />
    <path
       d="m 60.789238,73.950388 v 0 0 m 8.46e-4,-0.0018 c 0,0 0,0 1.42e-4,0 -1.42e-4,0 -1.42e-4,0 -1.42e-4,0 m 0.0014,-0.0032 c 0,-3.44e-4 1.42e-4,-3.44e-4 1.42e-4,-3.44e-4 0,0 -1.42e-4,0 -1.42e-4,3.44e-4 m 7.15e-4,-0.0018 c 1.05e-4,-3.44e-4 2.46e-4,-7.14e-4 2.46e-4,-0.0011 0,3.44e-4 -1.41e-4,7.15e-4 -2.46e-4,0.0011 m 8.2e-4,-0.0021 c 1.41e-4,-7.14e-4 4.23e-4,-0.0011 5.55e-4,-0.0018 -1.41e-4,7.15e-4 -2.91e-4,0.0011 -5.55e-4,0.0018 m 9.52e-4,-0.0028 c 2.91e-4,-3.44e-4 5.56e-4,-0.0011 7.15e-4,-0.0014 -1.41e-4,3.44e-4 -4.24e-4,7.15e-4 -7.15e-4,0.0014 m 9.79e-4,-0.0021 c 2.47e-4,-7.14e-4 3.97e-4,-0.0011 5.29e-4,-0.0018 -1.41e-4,3.44e-4 -3.96e-4,0.0011 -5.29e-4,0.0018 m 8.2e-4,-0.0025 c 2.92e-4,-7.14e-4 5.56e-4,-0.0014 8.47e-4,-0.0021 -2.91e-4,7.15e-4 -5.55e-4,0.0014 -8.47e-4,0.0021 m 9.53e-4,-0.0025 c 1.41e-4,-7.14e-4 4.23e-4,-0.0014 7.14e-4,-0.0021 -2.91e-4,7.15e-4 -5.55e-4,0.0014 -7.14e-4,0.0021 m 8.47e-4,-0.0025 c 5.29e-4,-0.0014 0.0011,-0.0032 0.0017,-0.0046 -5.56e-4,0.0014 -0.0011,0.0032 -0.0017,0.0046 m 0.0017,-0.0046 c 0.0164,-0.04868 0.01736,-0.08819 0.0023,-0.118533 0.01503,0.03034 0.01408,0.06985 -0.0023,0.118533 m 0.0023,-0.118533 c -5.29e-4,-7.14e-4 -9.53e-4,-0.0018 -0.0015,-0.0028 5.55e-4,0.0011 9.79e-4,0.0021 0.0015,0.0028 m -0.0017,-0.0028 c -2.91e-4,-3.44e-4 -3.97e-4,-0.0011 -6.61e-4,-0.0014 2.91e-4,3.44e-4 5.29e-4,0.0011 6.61e-4,0.0014 m -8.2e-4,-0.0018 c -2.91e-4,-3.44e-4 -5.56e-4,-7.14e-4 -8.47e-4,-0.0011 2.91e-4,3.44e-4 5.56e-4,7.14e-4 8.47e-4,0.0011 m -8.47e-4,-0.0011 c -0.0037,-0.0063 -0.0081,-0.01235 -0.01337,-0.01764 0.0053,0.0053 0.0097,0.01129 0.01337,0.01764"
       style="fill:#e4d4c3;fill-opacity:1;fill-rule:nonzero;stroke:none;stroke-width:0.03527778"
       id="path1118"
       inkscape:connector-curvature="0" />
    <path
       d="m 55.74247,78.126571 c 0,0 -0.386539,-0.279047 -0.739458,-0.870655 -0.373309,-0.626533 -0.286914,-1.12642 -0.286914,-1.12642 2.869071,-1.383241 5.205271,-2.395008 5.891106,-2.395008 0.08558,0 0.145521,0.01552 0.177624,0.04833 0.0053,0.0053 0.0097,0.01129 0.01337,0.01764 v 0 0 c 2.91e-4,3.44e-4 5.55e-4,7.15e-4 8.46e-4,0.0011 1.41e-4,3.44e-4 1.41e-4,3.44e-4 1.41e-4,3.44e-4 2.91e-4,3.44e-4 3.97e-4,0.0011 6.62e-4,0.0014 0,0 0,0 1.41e-4,0 5.55e-4,0.0011 9.79e-4,0.0021 0.0015,0.0028 v 0 c 0.01503,0.03034 0.01408,0.06985 -0.0023,0.118534 v 0 c -5.56e-4,0.0014 -0.0011,0.0032 -0.0017,0.0046 0,0 0,3.44e-4 -1.42e-4,3.44e-4 -2.91e-4,7.14e-4 -5.55e-4,0.0014 -7.14e-4,0.0021 -1.06e-4,0 -1.06e-4,3.43e-4 -1.06e-4,3.43e-4 -2.91e-4,7.15e-4 -5.55e-4,0.0014 -8.46e-4,0.0021 -1.42e-4,3.44e-4 -1.42e-4,3.44e-4 -2.92e-4,7.15e-4 -1.41e-4,7.14e-4 -2.91e-4,0.0011 -5.29e-4,0.0018 -1.41e-4,0 -1.41e-4,3.44e-4 -2.91e-4,7.14e-4 -1.41e-4,3.44e-4 -4.23e-4,0.0011 -7.14e-4,0.0014 0,3.44e-4 -2.91e-4,7.15e-4 -3.97e-4,0.0011 -1.41e-4,7.15e-4 -4.23e-4,0.0011 -5.56e-4,0.0018 -1.41e-4,3.44e-4 -2.91e-4,7.15e-4 -5.55e-4,0.0011 0,3.44e-4 -1.41e-4,7.15e-4 -2.47e-4,0.0011 -1.41e-4,3.44e-4 -4.23e-4,7.15e-4 -5.56e-4,0.0014 0,0 -1.41e-4,0 -1.41e-4,3.44e-4 -4.23e-4,0.0011 -8.2e-4,0.0021 -0.0012,0.0032 -1.41e-4,0 -1.41e-4,0 -1.41e-4,0 -2.91e-4,7.15e-4 -5.55e-4,0.0014 -8.46e-4,0.0018 v 0 c -0.239607,0.5715 -2.33673,2.220031 -5.046769,4.176183"
       style="fill:#783b19;fill-opacity:1;fill-rule:nonzero;stroke:none;stroke-width:0.03527778"
       id="path1120"
       inkscape:connector-curvature="0" />
    <path
       d="m 62.775271,76.353863 c 0.06974,-0.675569 0.02469,-1.878541 -0.794985,-3.258255 -0.824194,-1.377245 -1.860903,-1.988961 -2.488177,-2.248253 -0.302189,-0.125236 -0.484117,-0.432506 -0.450603,-0.757767 0.02794,-0.275872 0.03732,-0.63888 -0.01725,-1.065741 l -4.2908,2.558344 c 0.349602,0.251178 0.673452,0.415572 0.929216,0.521758 0.302225,0.125236 0.485916,0.431448 0.452261,0.756709 -0.06985,0.675216 -0.02452,1.878189 0.79502,3.257902 0.824054,1.377245 1.860903,1.988961 2.488036,2.248606 0.30219,0.125236 0.484258,0.432505 0.450744,0.757766 -0.02822,0.27552 -0.03732,0.638881 0.01711,1.065389 l 4.290942,-2.557991 c -0.349779,-0.251178 -0.673312,-0.415572 -0.929358,-0.521759 -0.301942,-0.125588 -0.485775,-0.4318 -0.452155,-0.756708"
       style="fill:#986130;fill-opacity:1;fill-rule:nonzero;stroke:none;stroke-width:0.03527778"
       id="path1122"
       inkscape:connector-curvature="0" />
    <path
       d="m 58.277354,68.643199 -0.01489,-0.0095 c -0.442593,-0.283633 -1.008166,-0.28963 -1.459722,-0.02046 l -1.374209,0.81915 c -0.451556,0.269523 -0.715328,0.769761 -0.676205,1.294342 l 0.0013,0.01729 3.523756,-2.100792"
       style="fill:#87471c;fill-opacity:1;fill-rule:nonzero;stroke:none;stroke-width:0.03527778"
       id="path1124"
       inkscape:connector-curvature="0" />
    <path
       d="m 60.81806,72.063027 -4.263919,2.54247 c -0.258939,0.154163 -0.59175,0.07373 -0.743197,-0.18027 l -0.0055,-0.0095 c -0.15131,-0.253642 -0.06407,-0.5849 0.194836,-0.739064 l 4.264095,-2.54247 c 0.258798,-0.154516 0.591573,-0.07373 0.743021,0.18027 l 0.0055,0.0092 c 0.151448,0.254 0.06424,0.584905 -0.194839,0.739422"
       style="fill:#f0b80c;fill-opacity:1;fill-rule:nonzero;stroke:none;stroke-width:0.03527778"
       id="path1126"
       inkscape:connector-curvature="0" />
    <path
       d="m 59.354984,69.352636 -4.489626,2.676877 c -0.272732,0.162631 -0.62551,0.07338 -0.788105,-0.199672 l -0.0061,-0.0099 c -0.162562,-0.272694 -0.07313,-0.625472 0.199564,-0.788103 l 4.48952,-2.676878 c 0.272556,-0.162631 0.625475,-0.07338 0.788246,0.199672 l 0.0058,0.0099 c 0.162595,0.272697 0.07345,0.625475 -0.199285,0.788106"
       style="fill:#b7926a;fill-opacity:1;fill-rule:nonzero;stroke:none;stroke-width:0.03527778"
       id="path1128"
       inkscape:connector-curvature="0" />
    <path
       d="m 64.136499,78.47053 0.0014,0.01728 c 0.03902,0.524228 -0.224755,1.024819 -0.676205,1.293989 l -1.374316,0.81915 c -0.45145,0.269522 -1.017129,0.263525 -1.459759,-0.02011 l -0.01475,-0.0095 3.52365,-2.100791"
       style="fill:#87471c;fill-opacity:1;fill-rule:nonzero;stroke:none;stroke-width:0.03527778"
       id="path1130"
       inkscape:connector-curvature="0" />
    <path
       d="m 62.335957,74.609024 -4.263778,2.542117 c -0.25908,0.154517 -0.346287,0.485775 -0.194981,0.739422 l 0.0056,0.0095 c 0.151447,0.254 0.484082,0.334433 0.743162,0.18027 l 4.263821,-2.542475 c 0.25908,-0.154164 0.346322,-0.485422 0.194875,-0.739422 l -0.0055,-0.0095 c -0.151451,-0.253642 -0.48412,-0.334428 -0.7432,-0.179912"
       style="fill:#f0b80c;fill-opacity:1;fill-rule:nonzero;stroke:none;stroke-width:0.03527778"
       id="path1132"
       inkscape:connector-curvature="0" />
    <path
       d="m 64.024739,77.185008 -4.489344,2.676524 c -0.272732,0.162631 -0.362162,0.515762 -0.199566,0.788459 l 0.0061,0.0099 c 0.162631,0.272697 0.515409,0.36195 0.788106,0.199319 l 4.489628,-2.676548 c 0.272556,-0.16263 0.361844,-0.515761 0.199248,-0.788458 l -0.0059,-0.0099 c -0.162622,-0.272695 -0.51554,-0.361947 -0.788273,-0.199317"
       style="fill:#b7926a;fill-opacity:1;fill-rule:nonzero;stroke:none;stroke-width:0.03527778"
       id="path1134"
       inkscape:connector-curvature="0" />
  </g>
</svg>
