<svg height="512" viewBox="0 0 512 512" width="512" xmlns="http://www.w3.org/2000/svg"><g id="Flat"><path d="m200 72h288v415.949h-288z" fill="#529ddf"/><path d="m232 104h224v351.949h-224z" fill="#fae7cb"/><g fill="#ba8b5d"><path d="m312 240.05127h-48a7.99977 7.99977 0 0 1 -8-8v-47.94873a7.99977 7.99977 0 0 1 8-8h48a7.99977 7.99977 0 0 1 8 8v47.94873a7.99977 7.99977 0 0 1 -8 8zm-40-16h32v-31.94873h-32z"/><path d="m312 336h-48a7.99977 7.99977 0 0 1 -8-8v-47.94873a7.99977 7.99977 0 0 1 8-8h48a7.99977 7.99977 0 0 1 8 8v47.94873a7.99977 7.99977 0 0 1 -8 8zm-40-16h32v-31.94873h-32z"/><path d="m312 431.94873h-48a7.99977 7.99977 0 0 1 -8-8v-47.94873a7.99977 7.99977 0 0 1 8-8h48a7.99977 7.99977 0 0 1 8 8v47.94873a7.99977 7.99977 0 0 1 -8 8zm-40-16h32v-31.94873h-32z"/></g><path d="m336 208.051h96v16h-96z" fill="#68737f"/><path d="m336 304.051h96v16h-96z" fill="#68737f"/><path d="m336 399.949h88v16h-88z" fill="#68737f"/><path d="m279.716 276.051h56.569v16h-56.569z" fill="#e04446" transform="matrix(.707 -.707 .707 .707 -110.643 300.986)"/><path d="m279.716 180.103h56.569v16h-56.569z" fill="#e04446" transform="matrix(.707 -.707 .707 .707 -42.797 272.883)"/><path d="m392 104h-15.56a20.3743 20.3743 0 0 1 -18.51-28.89l7.85-17.04993a23.98 23.98 0 1 0 -43.56006 0l7.85006 17.04993a20.3743 20.3743 0 0 1 -18.51 28.89h-15.56a32.004 32.004 0 0 0 -32 32h160a32.004 32.004 0 0 0 -32-32zm-48-48a8 8 0 1 1 8-8 7.99786 7.99786 0 0 1 -8 8z" fill="#68737f"/><path d="m24 400h208v88h-208z" fill="#7ab355"/><path d="m232 488h-208v-8h200v-80h8z" fill="#699949"/><path d="m104 400h48v88h-48z" fill="#f0e168"/><path d="m104 480h48v8h-48z" fill="#e8cd4d"/><path d="m56 312h208v88h-208z" fill="#7ab355"/><path d="m264 400h-208v-8h200v-80h8z" fill="#699949"/><path d="m136 312h48v88h-48z" fill="#f0e168"/><path d="m136 392h48v8h-48z" fill="#e8cd4d"/><path d="m216 80-96 192-40 40 5.61-39.3 2.39-16.7 96-192z" fill="#d4e4f0"/><path d="m120 272-11.93 11.93-22.46-11.23 2.39-16.7z" fill="#c1d7e6"/><path d="m108.07 283.93-28.07 28.07 5.61-39.3z" fill="#68737f"/><path d="m119.35352 139.15137-14.707-6.30274 16.48048-38.45312a26.00052 26.00052 0 0 1 35.52539-13.01367l46.92578 23.46289-7.15624 14.31054-46.92584-23.46289a9.99908 9.99908 0 0 0 -13.66211 5.00586z" fill="#68737f"/></g></svg>