<?xml version="1.0" encoding="UTF-8" standalone="no"?>
<!-- Created with Inkscape (http://www.inkscape.org/) -->

<svg
   xmlns:dc="http://purl.org/dc/elements/1.1/"
   xmlns:cc="http://creativecommons.org/ns#"
   xmlns:rdf="http://www.w3.org/1999/02/22-rdf-syntax-ns#"
   xmlns:svg="http://www.w3.org/2000/svg"
   xmlns="http://www.w3.org/2000/svg"
   xmlns:sodipodi="http://sodipodi.sourceforge.net/DTD/sodipodi-0.dtd"
   xmlns:inkscape="http://www.inkscape.org/namespaces/inkscape"
   width="19.183386mm"
   height="25.46538mm"
   viewBox="0 0 19.183386 25.46538"
   version="1.1"
   id="svg2575"
   inkscape:version="0.92.4 (5da689c313, 2019-01-14)"
   sodipodi:docname="judge.svg">
  <defs
     id="defs2569" />
  <sodipodi:namedview
     id="base"
     pagecolor="#ffffff"
     bordercolor="#666666"
     borderopacity="1.0"
     inkscape:pageopacity="0.0"
     inkscape:pageshadow="2"
     inkscape:zoom="0.35"
     inkscape:cx="-282.31935"
     inkscape:cy="-354.73359"
     inkscape:document-units="mm"
     inkscape:current-layer="layer1"
     showgrid="false"
     fit-margin-top="0"
     fit-margin-left="0"
     fit-margin-right="0"
     fit-margin-bottom="0"
     inkscape:window-width="1920"
     inkscape:window-height="1017"
     inkscape:window-x="-8"
     inkscape:window-y="-8"
     inkscape:window-maximized="1" />
  <metadata
     id="metadata2572">
    <rdf:RDF>
      <cc:Work
         rdf:about="">
        <dc:format>image/svg+xml</dc:format>
        <dc:type
           rdf:resource="http://purl.org/dc/dcmitype/StillImage" />
        <dc:title></dc:title>
      </cc:Work>
    </rdf:RDF>
  </metadata>
  <g
     inkscape:label="Layer 1"
     inkscape:groupmode="layer"
     id="layer1"
     transform="translate(-57.688067,-29.511358)">
    <path
       d="m 67.747739,51.569256 c -15.447528,0 -3.003832,-19.186877 0,-19.186877 3.003867,0 13.748561,19.186877 0,19.186877"
       style="fill:#a2a19a;fill-opacity:1;fill-rule:nonzero;stroke:none;stroke-width:0.03527778"
       id="path50"
       inkscape:connector-curvature="0" />
    <path
       d="m 69.068997,42.736759 h -3.578471 c 0,0 0.546382,3.108678 -2.056448,5.679017 l 3.673722,4.43865 h 0.343959 l 3.673686,-4.43865 c -2.60283,-2.570339 -2.056448,-5.679017 -2.056448,-5.679017"
       style="fill:#fab76e;fill-opacity:1;fill-rule:nonzero;stroke:none;stroke-width:0.03527778"
       id="path52"
       inkscape:connector-curvature="0" />
    <path
       d="m 69.068997,42.736759 h -3.578471 c 0,0 0.264865,1.514828 -0.459458,3.303411 1.494896,-0.583142 2.686226,-1.813278 4.000993,-2.942872 0.01422,-0.228953 0.03694,-0.360539 0.03694,-0.360539"
       style="fill:#e7a24d;fill-opacity:1;fill-rule:nonzero;stroke:none;stroke-width:0.03527778"
       id="path54"
       inkscape:connector-curvature="0" />
    <path
       d="m 71.993349,36.861246 c -0.138078,-0.355953 -0.379237,-0.172156 -0.567197,0.06279 0.05387,-2.764366 -1.405466,-4.168069 -1.405466,-4.168069 h -2.740907 -2.740801 c 0,0 -1.469107,1.400528 -1.422541,4.147608 -0.185208,-0.224367 -0.416313,-0.388055 -0.550262,-0.04233 -0.248991,0.642761 0.336373,1.523294 0.224366,2.415822 -0.07595,0.60325 0.400156,0.542925 0.701534,0.373944 0.113277,0.456494 0.281975,0.994833 0.552873,1.624894 0.573123,1.333148 2.217667,2.546703 3.226682,2.546703 1.009156,0 2.629711,-1.22308 3.226682,-2.546703 0.274355,-0.607836 0.445805,-1.113013 0.554778,-1.632302 0.300143,0.174625 0.792939,0.246239 0.715892,-0.366536 -0.112007,-0.892528 0.473639,-1.773061 0.224367,-2.415822"
       style="fill:#fab76e;fill-opacity:1;fill-rule:nonzero;stroke:none;stroke-width:0.03527778"
       id="path56"
       inkscape:connector-curvature="0" />
    <path
       d="m 63.88454,45.620365 c -0.131057,0.03704 -0.269663,0.07691 -0.415184,0.119238 l 0.03087,-0.0049 c 0.140265,-0.02293 0.2679,-0.06174 0.384317,-0.1143"
       style="fill:#46494e;fill-opacity:1;fill-rule:nonzero;stroke:none;stroke-width:0.03527778"
       id="path58"
       inkscape:connector-curvature="0" />
    <path
       d="m 70.724301,45.634476 c 0.105834,0.04445 0.220345,0.07867 0.345193,0.09913 -0.120015,-0.03493 -0.23495,-0.06773 -0.345193,-0.09913"
       style="fill:#46494e;fill-opacity:1;fill-rule:nonzero;stroke:none;stroke-width:0.03527778"
       id="path60"
       inkscape:connector-curvature="0" />
    <path
       d="m 75.902408,48.015726 c -0.0387,-0.07056 -0.09384,-0.141112 -0.158044,-0.211667 -0.743444,-0.814564 -3.088746,-1.607256 -4.67487,-2.070453 -0.124848,-0.02046 -0.239359,-0.05468 -0.345193,-0.09913 -0.517454,-0.216606 -0.816469,-0.695325 -0.984179,-1.246011 l -1.453551,1.102783 c -0.346851,0.19438 -0.690703,1.234017 -0.999383,1.234017 -0.304377,0 -0.646148,-1.039637 -0.992293,-1.234017 L 64.83443,44.388465 c -0.163971,0.538691 -0.453249,1.008944 -0.94989,1.2319 -0.116416,0.05256 -0.244051,0.09137 -0.384316,0.1143 l -0.03087,0.0049 c -1.568908,0.459316 -3.865809,1.236839 -4.631443,2.038702 -0.07539,0.07902 -0.137266,0.158045 -0.180799,0.23742 -0.381035,0.693952 -0.745242,4.29405 -0.969045,6.96105 h 19.183385 c -0.223802,-2.667 -0.587728,-6.267098 -0.969046,-6.961011"
       style="fill:#302f2f;fill-opacity:1;fill-rule:nonzero;stroke:none;stroke-width:0.03527778"
       id="path62"
       inkscape:connector-curvature="0" />
    <path
       d="m 66.891159,47.320401 -2.139667,3.105502 c -0.118816,0.171803 -0.0092,0.408164 0.198543,0.428978 l 3.24432,0.324203 c 0.188101,0.0187 0.338596,-0.153811 0.294217,-0.337608 L 67.66025,47.41177 c -0.02977,-0.123119 -0.140017,-0.209903 -0.266806,-0.209903 h -0.276295 c -0.09024,0 -0.17459,0.0441 -0.22599,0.118534"
       style="fill:#ffffff;fill-opacity:1;fill-rule:nonzero;stroke:none;stroke-width:0.03527778"
       id="path64"
       inkscape:connector-curvature="0" />
    <path
       d="m 67.683675,47.320401 2.139949,3.105502 c 0.118498,0.171803 0.0091,0.408164 -0.19886,0.428978 l -3.244321,0.324203 c -0.188101,0.0187 -0.33842,-0.153811 -0.294075,-0.337608 l 0.828357,-3.429706 c 0.02963,-0.123119 0.140159,-0.209903 0.266771,-0.209903 h 0.276154 c 0.09028,0 0.174907,0.0441 0.226025,0.118534"
       style="fill:#ffffff;fill-opacity:1;fill-rule:nonzero;stroke:none;stroke-width:0.03527778"
       id="path66"
       inkscape:connector-curvature="0" />
    <path
       d="m 66.893911,47.339803 -2.204438,3.858331 c -0.09663,0.16898 0.0084,0.381705 0.20119,0.408164 l 3.307714,0.452614 c 0.186725,0.02575 0.342971,-0.140406 0.306458,-0.325261 l -0.85164,-4.310592 c -0.02533,-0.128764 -0.138219,-0.221192 -0.26924,-0.221192 h -0.251637 c -0.09853,0 -0.189477,0.05256 -0.238407,0.137936"
       style="fill:#e7e4e2;fill-opacity:1;fill-rule:nonzero;stroke:none;stroke-width:0.03527778"
       id="path68"
       inkscape:connector-curvature="0" />
    <path
       d="m 67.680923,47.339803 2.20472,3.858331 c 0.09645,0.16898 -0.0084,0.381705 -0.201189,0.408164 l -3.307856,0.452614 c -0.186725,0.02575 -0.343147,-0.140406 -0.306599,-0.325261 l 0.851887,-4.310592 c 0.02522,-0.128764 0.138078,-0.221192 0.269135,-0.221192 h 0.251495 c 0.09853,0 0.189477,0.05256 0.238407,0.137936"
       style="fill:#e7e4e2;fill-opacity:1;fill-rule:nonzero;stroke:none;stroke-width:0.03527778"
       id="path70"
       inkscape:connector-curvature="0" />
    <path
       d="m 66.908516,47.385312 -1.534442,4.360333 c -0.06283,0.178506 0.0696,0.365478 0.258939,0.365478 h 3.316534 c 0.189336,0 0.321909,-0.186972 0.258903,-0.365478 l -1.534441,-4.360333 c -0.0387,-0.110067 -0.142487,-0.183445 -0.258939,-0.183445 h -0.247615 c -0.116452,0 -0.220345,0.07338 -0.258939,0.183445"
       style="fill:#f6f6f6;fill-opacity:1;fill-rule:nonzero;stroke:none;stroke-width:0.03527778"
       id="path72"
       inkscape:connector-curvature="0" />
    <path
       d="m 66.402245,47.080512 c 0,0.144639 -0.117299,0.261761 -0.261691,0.261761 -0.144568,0 -0.261831,-0.117122 -0.261831,-0.261761 0,-0.144639 0.117263,-0.261761 0.261831,-0.261761 0.144392,0 0.261691,0.117122 0.261691,0.261761"
       style="fill:#ffffff;fill-opacity:1;fill-rule:nonzero;stroke:none;stroke-width:0.03527778"
       id="path74"
       inkscape:connector-curvature="0" />
    <path
       d="m 68.758271,47.080512 c 0,0.144639 -0.117405,0.261761 -0.261832,0.261761 -0.144568,0 -0.261832,-0.117122 -0.261832,-0.261761 0,-0.144639 0.117264,-0.261761 0.261832,-0.261761 0.144427,0 0.261832,0.117122 0.261832,0.261761"
       style="fill:#ffffff;fill-opacity:1;fill-rule:nonzero;stroke:none;stroke-width:0.03527778"
       id="path76"
       inkscape:connector-curvature="0" />
    <path
       d="m 75.181013,45.751598 c 0.376061,-0.295981 0.618455,-0.754239 0.618455,-1.27 0,-0.812094 -0.598735,-1.482372 -1.378444,-1.598083 0.374297,-0.295981 0.615033,-0.753181 0.615033,-1.267531 0,-0.783167 -0.556613,-1.436158 -1.295788,-1.58503 0.437691,-0.289631 0.72651,-0.785636 0.72651,-1.349375 0,-0.823383 -0.615703,-1.501775 -1.411675,-1.603022 0.316265,-0.294922 0.515267,-0.714375 0.515267,-1.1811 0,-0.663575 -0.40005,-1.232958 -0.971515,-1.482372 0.498828,-2.487789 -4.31934,-7.185025 -5.319077,-3.606448 -0.999772,-3.578577 -5.81794,1.118659 -5.319112,3.606448 -0.571465,0.249414 -0.971515,0.818797 -0.971515,1.482372 0,0.466725 0.199002,0.886178 0.515267,1.1811 -0.795831,0.101247 -1.411675,0.779639 -1.411675,1.603022 0,0.563739 0.288819,1.059744 0.72651,1.349375 -0.739175,0.148872 -1.295788,0.801863 -1.295788,1.58503 0,0.51435 0.240736,0.97155 0.615033,1.267531 -0.779709,0.115711 -1.378444,0.785989 -1.378444,1.598083 0,0.515761 0.242394,0.974019 0.618455,1.27 -0.684459,0.188736 -1.187732,0.813858 -1.187732,1.557867 0,0.893233 0.724147,1.617838 1.617274,1.617838 0.893374,0 1.61738,-0.724605 1.61738,-1.617838 0,-0.515409 -0.242252,-0.97402 -0.618313,-1.270353 0.684318,-0.188031 1.187732,-0.813506 1.187732,-1.557514 0,-0.51435 -0.240877,-0.971903 -0.615033,-1.267883 0.779427,-0.116064 1.378479,-0.785989 1.378479,-1.597731 0,-0.563739 -0.289136,-1.059744 -0.726369,-1.349375 0.739034,-0.149225 1.295612,-0.801863 1.295612,-1.58503 0,-0.466725 -0.198967,-0.886178 -0.515232,-1.181453 0.795796,-0.101247 1.41164,-0.779286 1.41164,-1.602669 l -0.0047,-0.09172 c 2.013867,0.09842 2.774668,-1.467203 3.060488,-2.619022 0.285926,1.151819 1.046586,2.717447 3.060453,2.619022 l -0.0047,0.09172 c 0,0.823383 0.615845,1.501422 1.411641,1.602669 -0.316266,0.295275 -0.515232,0.714728 -0.515232,1.181453 0,0.783167 0.556718,1.435805 1.295611,1.58503 -0.437233,0.289631 -0.726228,0.785636 -0.726228,1.349375 0,0.811742 0.598911,1.481667 1.378338,1.597731 -0.374156,0.29598 -0.615033,0.753533 -0.615033,1.267883 0,0.744008 0.503414,1.369483 1.187732,1.557514 -0.376061,0.296333 -0.618313,0.754944 -0.618313,1.270353 0,0.893233 0.724006,1.617838 1.61738,1.617838 0.893127,0 1.617275,-0.724605 1.617275,-1.617838 0,-0.744009 -0.503238,-1.369131 -1.187733,-1.557867"
       style="fill:#d7d6d4;fill-opacity:1;fill-rule:nonzero;stroke:none;stroke-width:0.03527778"
       id="path78"
       inkscape:connector-curvature="0" />
  </g>
</svg>
