<?xml version="1.0" encoding="UTF-8" standalone="no"?>
<svg
   xmlns:dc="http://purl.org/dc/elements/1.1/"
   xmlns:cc="http://creativecommons.org/ns#"
   xmlns:rdf="http://www.w3.org/1999/02/22-rdf-syntax-ns#"
   xmlns:svg="http://www.w3.org/2000/svg"
   xmlns="http://www.w3.org/2000/svg"
   xmlns:sodipodi="http://sodipodi.sourceforge.net/DTD/sodipodi-0.dtd"
   xmlns:inkscape="http://www.inkscape.org/namespaces/inkscape"
   height="512"
   viewBox="0 0 512 512"
   width="512"
   version="1.1"
   id="svg9605"
   sodipodi:docname="manager.svg"
   inkscape:version="0.92.4 (5da689c313, 2019-01-14)">
  <metadata
     id="metadata9611">
    <rdf:RDF>
      <cc:Work
         rdf:about="">
        <dc:format>image/svg+xml</dc:format>
        <dc:type
           rdf:resource="http://purl.org/dc/dcmitype/StillImage" />
      </cc:Work>
    </rdf:RDF>
  </metadata>
  <defs
     id="defs9609" />
  <sodipodi:namedview
     pagecolor="#ffffff"
     bordercolor="#666666"
     borderopacity="1"
     objecttolerance="10"
     gridtolerance="10"
     guidetolerance="10"
     inkscape:pageopacity="0"
     inkscape:pageshadow="2"
     inkscape:window-width="640"
     inkscape:window-height="480"
     id="namedview9607"
     showgrid="false"
     inkscape:zoom="0.4609375"
     inkscape:cx="382.91525"
     inkscape:cy="256"
     inkscape:window-x="0"
     inkscape:window-y="0"
     inkscape:window-maximized="0"
     inkscape:current-layer="Flat" />
  <g
     id="Flat">
    <path
       d="M 328,260.5 V 304 H 184 v -43.5 l 24,-4.5 v -72 h 96 v 72 z"
       id="path9538"
       inkscape:connector-curvature="0"
       style="fill:#fec9a3" />
    <path
       d="M 432,319.83 V 456 H 80 V 319.84 a 48,48 0 0 1 39.15,-47.18 L 208,256 l 48,16 48,-16 88.85,16.66 A 47.956,47.956 0 0 1 432,319.83 Z"
       id="path9540"
       inkscape:connector-curvature="0"
       style="fill:#4d5e78" />
    <path
       d="M 432,319.83 V 456 H 199.13 c 84.16,-39.67 158.8,-97.01 210.05,-177.04 A 48,48 0 0 1 432,319.83 Z"
       id="path9542"
       inkscape:connector-curvature="0"
       style="fill:#44546c" />
    <path
       d="M 208,256 256,440 304,255.997 256,272 Z"
       id="path9544"
       inkscape:connector-curvature="0"
       style="fill:#b0b0ae" />
    <path
       d="M 304,255.997 256,272 l 36.258,29.007 z"
       id="path9546"
       inkscape:connector-curvature="0"
       style="fill:#e0e0de" />
    <path
       d="m 256,272 -48,-16 11.741,45.007 z"
       id="path9548"
       inkscape:connector-curvature="0"
       style="fill:#e0e0de" />
    <path
       d="M 272,378.666 V 284.8 L 256,272 240,284.8 v 93.867 L 256,440 Z"
       id="path9550"
       inkscape:connector-curvature="0"
       style="fill:#348fd9" />
    <path
       d="m 192,328 -8,32 72,80 -48,-184 -32,6 -24,58 z"
       id="path9552"
       inkscape:connector-curvature="0"
       style="fill:#556a8a" />
    <path
       d="m 320,328 8,32 -72,80 48,-184 32,6 24,58 z"
       id="path9554"
       inkscape:connector-curvature="0"
       style="fill:#556a8a" />
    <path
       d="m 144,352 h 16 v 96 h -16 z"
       id="path9556"
       inkscape:connector-curvature="0"
       style="fill:#313b4c" />
    <path
       d="m 352,352 h 16 v 96 h -16 z"
       id="path9558"
       inkscape:connector-curvature="0"
       style="fill:#313b4c" />
    <path
       d="m 384,368 h 48 v 72 l -40,-0.003 -48.161,6.88 L 336,392 Z"
       id="path9560"
       inkscape:connector-curvature="0"
       style="fill:#fec9a3" />
    <path
       d="M 298.818,394.32 308.01,454.081 152,488 H 104 A 24,24 0 0 1 80,464 v -56 z"
       id="path9562"
       inkscape:connector-curvature="0"
       style="fill:#404f66" />
    <path
       d="M 343.839,446.877 336,448 308.01,454.081 298.818,394.32 336,392 Z"
       id="path9564"
       inkscape:connector-curvature="0"
       style="fill:#e0e0de" />
    <path
       d="M 128,368 H 80 v 72 l 40,-0.003 48.161,6.88 L 176,392 Z"
       id="path9566"
       inkscape:connector-curvature="0"
       style="fill:#fec9a3" />
    <path
       d="M 230.61,395.41 226.08,458.89 176,448 168.16,446.88 176,392 Z"
       id="path9568"
       inkscape:connector-curvature="0"
       style="fill:#e0e0de" />
    <path
       d="M 213.181,394.324 208,464 360,488 h 48 a 24,24 0 0 0 24,-24 v -56 z"
       id="path9570"
       inkscape:connector-curvature="0"
       style="fill:#4d5e78" />
    <path
       d="m 240,432 h 16 v 16 h -16 z"
       id="path9572"
       inkscape:connector-curvature="0"
       style="fill:#313b4c" />
    <path
       d="m 272,432 h 16 v 16 h -16 z"
       id="path9574"
       inkscape:connector-curvature="0"
       style="fill:#313b4c" />
    <g
       id="g9582"
       style="fill:#feb784">
      <path
         d="M 304,229.567 V 184 h -48 -48 v 45.567 a 71.687,71.687 0 0 0 96,0 z"
         id="path9576"
         inkscape:connector-curvature="0" />
      <path
         d="m 328,104 v 48 a 24,24 0 0 0 0,-48 z"
         id="path9578"
         inkscape:connector-curvature="0" />
      <path
         d="m 184.405,104 h -0.4 A 24,24 0 0 0 184,152 v -48 z"
         id="path9580"
         inkscape:connector-curvature="0" />
    </g>
    <path
       d="m 328,96 v 64 a 72.01,72.01 0 0 1 -71.56,72 H 256 A 72.006,72.006 0 0 1 184,160 V 96 c 0,-39.76 32.24,-64 72,-64 h 0.44 c 19.71,0.09 37.54,6.14 50.47,17.09 C 319.94,60.12 328,76.12 328,96 Z"
       id="path9584"
       inkscape:connector-curvature="0"
       style="fill:#fec9a3" />
    <path
       d="m 328,96 v 64 a 72.01,72.01 0 0 1 -71.56,72 83.279,83.279 0 0 0 34.44,-67.52 V 99.51 A 83.26,83.26 0 0 0 256.44,32 c 19.71,0.09 37.54,6.14 50.47,17.09 C 319.94,60.12 328,76.12 328,96 Z"
       id="path9586"
       inkscape:connector-curvature="0"
       style="fill:#fec093" />
    <path
       d="M 328,120 V 88 C 328,61.49 310.091,40 288,40 l 1.408,5.068 C 297.25,73.3 310.463,98.956 328,120 Z"
       id="path9594"
       inkscape:connector-curvature="0"
       style="fill:#6e3c24" />
    <path
       d="M 184,120 V 64.985 A 25.754,25.754 0 0 1 216,40 v 24 c 0,0 -14.463,34.956 -32,56 z"
       id="path9596"
       inkscape:connector-curvature="0"
       style="fill:#6e3c24" />
    <path
       d="M 216,64 H 328 A 40,40 0 0 0 288,24 H 254.627 A 54.626,54.626 0 0 0 216,40 Z"
       id="path9598"
       inkscape:connector-curvature="0"
       style="fill:#7a432a" />
    <path
       d="m 261.584,24 -31.04,40 h 20.26 l 31.04,-40 z"
       id="path9600"
       inkscape:connector-curvature="0"
       style="fill:#6e3c24" />
    <path
       d="M 317.826,37.584 A 39.9,39.9 0 0 0 304.9,27.863 L 268.123,64 h 22.824 z"
       id="path9602"
       inkscape:connector-curvature="0"
       style="fill:#6e3c24" />
  </g>
</svg>
