<?xml version="1.0" encoding="UTF-8" standalone="no"?>
<svg
   xmlns:dc="http://purl.org/dc/elements/1.1/"
   xmlns:cc="http://creativecommons.org/ns#"
   xmlns:rdf="http://www.w3.org/1999/02/22-rdf-syntax-ns#"
   xmlns:svg="http://www.w3.org/2000/svg"
   xmlns="http://www.w3.org/2000/svg"
   xmlns:sodipodi="http://sodipodi.sourceforge.net/DTD/sodipodi-0.dtd"
   xmlns:inkscape="http://www.inkscape.org/namespaces/inkscape"
   height="512"
   viewBox="0 0 58 58"
   width="512"
   version="1.1"
   id="svg9815"
   sodipodi:docname="mental-health-2.svg"
   inkscape:version="0.92.4 (5da689c313, 2019-01-14)">
  <metadata
     id="metadata9821">
    <rdf:RDF>
      <cc:Work
         rdf:about="">
        <dc:format>image/svg+xml</dc:format>
        <dc:type
           rdf:resource="http://purl.org/dc/dcmitype/StillImage" />
      </cc:Work>
    </rdf:RDF>
  </metadata>
  <defs
     id="defs9819" />
  <sodipodi:namedview
     pagecolor="#ffffff"
     bordercolor="#666666"
     borderopacity="1"
     objecttolerance="10"
     gridtolerance="10"
     guidetolerance="10"
     inkscape:pageopacity="0"
     inkscape:pageshadow="2"
     inkscape:window-width="640"
     inkscape:window-height="480"
     id="namedview9817"
     showgrid="false"
     inkscape:zoom="0.4609375"
     inkscape:cx="171.54479"
     inkscape:cy="256"
     inkscape:window-x="0"
     inkscape:window-y="0"
     inkscape:window-maximized="0"
     inkscape:current-layer="002---Broken-Mental-Health" />
  <g
     id="002---Broken-Mental-Health"
     transform="translate(-1)"
     style="fill:none">
    <path
       id="Path"
       d="m 43.2,40.25 v 0.01 l 0.12,2.48 0.68,14.21 c 0.01371,0.273769 -0.08557,0.541161 -0.274611,0.739656 C 43.536346,57.88815 43.274111,58.000343 43,58 H 19 c -0.552285,0 -1,-0.447715 -1,-1 V 50 C 17.9945,47.793142 16.206858,46.005497 14,46 H 8.17 C 6.6396054,46.035082 5.3096636,44.955034 5.03,43.45 4.874168,42.397674 5.2846214,41.341136 6.11,40.67 6.4010378,40.436361 6.5702529,40.083216 6.57,39.71 6.5701294,39.291212 6.3597015,38.900417 6.01,38.67 5.764239,38.503192 5.6053488,38.235767 5.5763677,37.94016 5.5473867,37.644553 5.6513144,37.351361 5.86,37.14 6.1022581,36.894912 6.2012532,36.542356 6.1219838,36.206986 6.0427144,35.871615 5.796351,35.600689 5.47,35.49 L 4.89,35.3 C 4.4109354,35.139527 4.1304007,34.643196 4.24,34.15 4.6072343,32.776736 4.5230919,31.321775 4,30 H 2 C 1.6230007,30.00098 1.2774915,29.789851 1.1063613,29.453929 0.93523102,29.118007 0.96756841,28.71439 1.19,28.41 L 1.49,28 7.38,19.85 C 7.522403,19.651797 7.5993199,19.414054 7.6,19.17 7.6003563,18.839665 7.4625786,18.524226 7.22,18.3 6.3229415,17.48987 5.9996899,16.220516 6.4,15.08 9.9475349,5.4106394 19.490864,-0.72143958 29.76,0.07 c 1.076829,0.08277196 2.146277,0.24318906 3.2,0.48 l 17.94,20.78 0.04,0.04 c 0.02,0.19 0.03,0.39 0.04,0.58 0.325047,6.965811 -2.538258,13.700834 -7.78,18.3 z"
       inkscape:connector-curvature="0"
       style="fill:#f0bf93" />
    <path
       id="path9802"
       d="m 56.36,15.74 -11.71,12 -0.94,0.96 c -0.181408,0.187461 -0.430009,0.294948 -0.690846,0.298701 C 42.758317,29.002454 42.506726,28.902164 42.32,28.72 42.31,28.72 42.3,28.71 42.29,28.7 L 29.64,15.74 C 26.120069,12.109824 26.120069,6.3401763 29.64,2.71 31.26452,1.0198899 33.495404,0.04656823 35.839296,0.00528269 38.183189,-0.03600285 40.446967,0.85814944 42.13,2.49 c 0.08147,0.068144 0.158305,0.1416397 0.23,0.22 L 43,3.36 43.64,2.71 c 0.2,-0.21 0.41,-0.4 0.62,-0.59 3.553614,-3.03733088 8.858743,-2.77865104 12.1,0.59 3.519931,3.6301763 3.519931,9.399824 0,13.03 z"
       inkscape:connector-curvature="0"
       style="fill:#ee3a48" />
    <g
       id="g9810"
       style="fill:#e4ae80">
      <path
         id="path9806"
         d="m 43.32,42.74 c -0.883198,0.690475 -1.815682,1.315474 -2.79,1.87 -0.149456,0.0847 -0.318212,0.129474 -0.49,0.13 -0.455393,0.0032 -0.855421,-0.301721 -0.973055,-0.74167 -0.117633,-0.439949 0.07684,-0.903812 0.473055,-1.12833 1.308962,-0.741849 2.535786,-1.620068 3.66,-2.62 v 0.01 z"
         inkscape:connector-curvature="0" />
      <path
         id="path9808"
         d="m 32.71,44.71 -0.95,0.95 C 30.255338,47.155278 28.221285,47.996212 26.1,48 H 17.46 C 16.749237,46.760634 15.428707,45.997322 14,46 h 12.1 c 1.5905,-0.0027 3.115116,-0.635574 4.24,-1.76 l 0.95,-0.95 c 0.253659,-0.253659 0.623374,-0.352724 0.969878,-0.259878 0.346504,0.09285 0.617155,0.363496 0.71,0.71 0.09285,0.346504 -0.0062,0.716219 -0.259878,0.969878 z"
         inkscape:connector-curvature="0" />
    </g>
    <path
       id="path9812"
       d="m 47.51,8.06 c -0.06205,0.5592537 -0.360523,1.0651986 -0.82,1.39 l -5.15,3.68 4.75,4.74 c 0.520158,0.520788 0.712221,1.285197 0.5,1.99 l -2.14,7.88 -0.94,0.96 c -0.181408,0.187461 -0.430009,0.294948 -0.690846,0.298701 C 42.758317,29.002454 42.506726,28.902164 42.32,28.72 l 2.54,-9.41 -4.73,-4.77 c -0.419786,-0.413494 -0.632558,-0.993114 -0.58,-1.58 0.04903,-0.584879 0.352506,-1.118697 0.83,-1.46 L 45.53,7.82 C 45.49758,7.7853822 45.467512,7.7486334 45.44,7.71 L 42.16,2.54 C 42.15,2.52 42.14,2.51 42.13,2.49 c 0.08147,0.068144 0.158305,0.1416397 0.23,0.22 L 43,3.36 43.64,2.71 c 0.2,-0.21 0.41,-0.4 0.62,-0.59 l 2.84,4.46 c 0.326578,0.4199182 0.47395,0.9518949 0.41,1.48 z"
       inkscape:connector-curvature="0"
       style="fill:#b7293a" />
  </g>
</svg>
