<svg id="Capa_1" enable-background="new 0 0 512 512" height="512" viewBox="0 0 512 512" width="512" xmlns="http://www.w3.org/2000/svg"><g><g><g><path d="m146.387 242.422c-8.936-3.62-15.24-12.388-15.24-22.629v-48.099c0-10.108 6.141-18.781 14.893-22.485 2.917-1.235 24.877-.101 24.877 22.485v48.099c.001 23.226-21.705 23.773-24.53 22.629z" fill="#f4b184"/><path d="m155.533 147.291c-3.234 0-6.319.636-9.143 1.78 8.936 3.621 15.242 12.382 15.242 22.623v48.099c0 10.241-6.306 19.002-15.242 22.623 2.824 1.144 5.909 1.78 9.143 1.78 13.467 0 24.385-10.926 24.385-24.403l9-24.049-9-24.049c0-13.478-10.917-24.404-24.385-24.404z" fill="#eaa678"/><path d="m195.158 253.452c-8.936-3.618-15.24-12.379-15.24-22.612v-81.443c0-10.101 6.141-18.767 14.893-22.469 2.917-1.234 24.877-.101 24.877 22.469v81.443c0 22.699-21.706 23.755-24.53 22.612z" fill="#f4b184"/><path d="m204.303 125.011c-3.234 0-6.319.635-9.143 1.779 8.936 3.618 15.242 12.373 15.242 22.606v81.443c0 10.233-6.306 18.989-15.242 22.607 2.824 1.143 5.908 1.779 9.143 1.779 13.468 0 24.385-10.918 24.385-24.385l9-40.722-9-40.722c0-13.467-10.917-24.385-24.385-24.385z" fill="#eaa678"/><path d="m268.458 246.539c0 22.716-21.706 23.773-24.53 22.629-8.936-3.62-15.24-12.388-15.24-22.629v-112.518c0-10.108 6.141-18.781 14.893-22.485 2.917-1.235 24.877-.101 24.877 22.485z" fill="#f4b184"/><path d="m253.073 109.619c-3.234 0-6.319.636-9.143 1.78 8.936 3.62 15.242 12.382 15.242 22.623v112.517c0 10.241-6.306 19.002-15.242 22.623 2.824 1.144 5.909 1.78 9.143 1.78 13.467 0 24.385-10.925 24.385-24.403l9-56.421-9-56.096c0-13.478-10.917-24.403-24.385-24.403z" fill="#eaa678"/><path d="m292.698 262.264c-8.932-3.586-15.24-12.327-15.24-22.541v-123.576c0-10.057 6.115-18.686 14.829-22.372 2.905-1.229 24.941-.101 24.941 22.372v123.576c.001 22.625-21.736 23.663-24.53 22.541z" fill="#f4b184"/><path d="m301.949 91.867h-.21c-3.195 0-6.244.624-9.038 1.745 8.932 3.586 15.242 12.321 15.242 22.535v123.576c0 10.214-6.31 18.949-15.242 22.535 2.794 1.122 5.842 1.745 9.038 1.745h.21c13.41 0 24.28-10.87 24.28-24.28v-123.576c0-13.409-10.871-24.28-24.28-24.28z" fill="#eaa678"/></g><path d="m329.822 165.507h-9.286-43.078-19.95c-7.134 0-12.917 6.01-12.917 13.425.032 1.937.08 4.001.774 7.577 2.838 13.765 13.257 24.855 26.965 27.785l5.127 1.096 48.77 10.425v4.786c0 13.477-10.918 24.403-24.385 24.403s-24.385-10.926-24.385-24.403v.123 1.124 5.692c0 13.477-10.918 24.403-24.385 24.403-13.468 0-24.385-10.925-24.385-24.403v-15.699c0 13.468-10.918 24.385-24.385 24.385s-24.385-10.918-24.385-24.385v-6.45l-.36-.436c-1.974 11.494-11.975 20.243-24.025 20.243-13.467 0-24.385-10.925-24.385-24.403v75.475s0 57.306 32.618 96.22c7.294 8.701 11.428 19.779 11.428 31.319v33.026l68.736 18 64.012-18 9.286-9v-24.286c0-7.708 2.718-15.174 7.707-21.047 11.639-13.701 32.936-42.497 38.505-75.318 12.092-71.252 18.435-151.677-33.617-151.677z" fill="#ffc89f"/><g><path d="m338.822 165.507h-18.286c52.052 0 45.709 80.425 33.619 151.674-5.569 32.82-26.866 52.474-38.505 66.175-4.989 5.873-7.707 13.339-7.707 21.047v42.429l8.878 9 9.408-9v-33.286c0-7.708 2.718-15.174 7.707-21.047 11.639-13.701 32.936-42.497 38.505-75.318 12.09-71.249 18.433-151.674-33.619-151.674z" fill="#f7bc94"/></g><path d="m166.316 451.912v55.009c0 2.805 2.274 5.079 5.079 5.079h145.426l9.286-9v-47.168l-9.286-9h-145.426c-2.805 0-5.079 2.274-5.079 5.08z" fill="#e6e2e6"/><path d="m316.821 446.832v65.168h13.206c2.805 0 5.079-2.274 5.079-5.079v-55.009c0-2.805-2.274-5.079-5.079-5.079h-13.206z" fill="#d8d1d7"/><path d="m320.724 224.63-5.699 21.885c-13.916 4.702-56.476 22.809-77.356 73.487-1.527 3.706-.156 8.121 3.405 9.96 1.136.587 2.337.861 3.514.861 3.002 0 5.847-1.786 7.055-4.736 21.576-52.736 71.066-66.022 71.546-66.146 2.697-.68 4.809-2.776 5.51-5.467l5.604-21.521c.729-2.8-1.025-5.643-3.855-6.247z" fill="#eaa678"/></g><g fill="#ffe27a"><path d="m256 59.896c4.217 0 7.634-3.418 7.634-7.634v-44.628c0-4.216-3.417-7.634-7.634-7.634s-7.634 3.418-7.634 7.634v44.628c0 4.216 3.417 7.634 7.634 7.634z"/><path d="m72.877 227.751h-44.627c-4.217 0-7.634 3.418-7.634 7.634s3.417 7.634 7.634 7.634h44.628c4.217 0 7.634-3.418 7.634-7.634-.001-4.216-3.418-7.634-7.635-7.634z"/><path d="m483.75 227.751h-44.628c-4.217 0-7.634 3.418-7.634 7.634s3.417 7.634 7.634 7.634h44.628c4.217 0 7.634-3.418 7.634-7.634s-3.417-7.634-7.634-7.634z"/><path d="m422.442 68.943c-2.982-2.981-7.815-2.981-10.797 0l-31.557 31.557c-6.773 7.363 3.329 17.542 10.797 10.796l31.557-31.557c2.981-2.982 2.981-7.815 0-10.796z"/><path d="m449.035 159.758c-1.538-3.926-5.972-5.86-9.892-4.323l-15.423 6.042c-9.181 4.182-3.964 17.475 5.568 14.216l15.423-6.042c3.926-1.538 5.862-5.967 4.324-9.893z"/><path d="m320.015 71.989c2.948 1.427 8.553-.294 9.893-4.323l6.219-15.872c1.538-3.925-.398-8.355-4.323-9.893-3.929-1.538-8.355.398-9.893 4.323l-6.219 15.872c-1.538 3.925.398 8.355 4.323 9.893z"/><path d="m182.092 67.665c4.134 9.446 17.419 3.608 14.216-5.569l-6.219-15.872c-1.539-3.926-5.965-5.86-9.893-4.323-3.925 1.538-5.861 5.968-4.323 9.893z"/><path d="m131.911 111.295c2.981-2.981 2.981-7.815 0-10.796l-31.557-31.557c-2.982-2.981-7.815-2.981-10.797 0-2.981 2.981-2.981 7.815 0 10.796l31.557 31.557c2.638 2.557 7.442 3.241 10.797 0z"/><path d="m88.281 161.477-15.423-6.042c-3.925-1.538-8.355.398-9.892 4.323-1.538 3.926.398 8.355 4.324 9.893l15.423 6.042c.915.358 1.856.528 2.782.528 3.05 0 5.93-1.84 7.11-4.851 1.537-3.926-.398-8.355-4.324-9.893z"/></g></g></svg>