<?xml version="1.0" encoding="iso-8859-1"?>
<!-- Generator: Adobe Illustrator 19.0.0, SVG Export Plug-In . SVG Version: 6.00 Build 0)  -->
<svg version="1.1" id="Capa_1" xmlns="http://www.w3.org/2000/svg" xmlns:xlink="http://www.w3.org/1999/xlink" x="0px" y="0px"
	 viewBox="0 0 512 512" style="enable-background:new 0 0 512 512;" xml:space="preserve">
<path style="fill:#2DE8E8;" d="M90.089,218.466h321.967c10.126,0,19.579,2.873,27.599,7.838l-33.782-106.448
	c-4.073-12.835-15.988-21.554-29.454-21.554H125.726c-13.465,0-25.38,8.719-29.454,21.554L62.49,226.304
	C70.511,221.339,79.963,218.466,90.089,218.466z"/>
<g>
	<path style="fill:#2C5871;" d="M61.627,364.451c-0.425,0-0.846-0.012-1.266-0.033v37.942c0,10.404,8.434,18.838,18.838,18.838
		h27.924c10.404,0,18.838-8.434,18.838-18.838v-37.909H61.627z"/>
	<path style="fill:#2C5871;" d="M440.518,364.451h-64.335v37.909c0,10.404,8.434,18.838,18.838,18.838h27.924
		c10.404,0,18.838-8.434,18.838-18.838v-37.942C441.365,364.439,440.943,364.451,440.518,364.451z"/>
</g>
<path style="fill:#55A2F0;" d="M440.518,365.645H61.627c-13.287,0-24.058-10.771-24.058-24.058v-70.599
	c0-29.006,23.514-52.52,52.52-52.52h321.967c29.006,0,52.52,23.514,52.52,52.52v70.599
	C464.577,354.873,453.805,365.645,440.518,365.645z"/>
<g>
	<path style="fill:#61AFF7;" d="M357.044,297.126H145.102c-4.143,0-7.5,3.358-7.5,7.5s3.357,7.5,7.5,7.5h211.942
		c4.143,0,7.5-3.358,7.5-7.5S361.187,297.126,357.044,297.126z"/>
	<path style="fill:#61AFF7;" d="M357.044,365.645v-8.54c0-11.386-9.23-20.616-20.616-20.616H165.717
		c-11.386,0-20.616,9.23-20.616,20.616v8.54H357.044z"/>
</g>
<g>
	<path style="fill:#FEE570;" d="M74.01,289.956l40.232,10.519c1.998,0.522,3.574,2.057,4.149,4.04l6.573,22.645
		c1.259,4.338-2.652,8.412-7.038,7.33L74.17,323.697c-2.335-0.576-4.082-2.52-4.407-4.903l-3.049-22.372
		C66.15,292.285,69.969,288.9,74.01,289.956z"/>
	<path style="fill:#FEE570;" d="M428.135,289.956l-40.232,10.519c-1.998,0.522-3.574,2.057-4.149,4.04l-6.573,22.645
		c-1.259,4.338,2.652,8.412,7.038,7.33l43.756-10.793c2.335-0.576,4.082-2.52,4.407-4.903l3.049-22.372
		C435.995,292.285,432.176,288.9,428.135,289.956z"/>
</g>
<path style="fill:#61AFF7;" d="M412.056,218.467H90.089c-12.586,0-24.134,4.432-33.18,11.814
	c15.289,26.706,43.965,44.062,75.968,44.062h236.392c32.003,0,60.679-17.356,75.968-44.062
	C436.191,222.899,424.642,218.467,412.056,218.467z"/>
<g>
	<path style="fill:#55A2F0;" d="M439.653,233.806c-3.181,0-6.133-2.04-7.146-5.233l-33.782-106.448
		c-3.099-9.763-12.063-16.323-22.305-16.323H125.726c-10.243,0-19.207,6.56-22.305,16.322L69.639,228.573
		c-1.253,3.949-5.467,6.134-9.417,4.88c-3.948-1.253-6.133-5.469-4.88-9.417l33.782-106.448
		c5.083-16.021,19.792-26.786,36.602-26.786H376.42c16.808,0,31.518,10.764,36.602,26.786l33.782,106.448
		c1.253,3.948-0.932,8.164-4.88,9.417C441.17,233.693,440.405,233.806,439.653,233.806z"/>
	<path style="fill:#55A2F0;" d="M66.643,220.059L48.91,208.27c-3.449-2.293-8.104-1.356-10.398,2.093
		c-2.293,3.45-1.355,8.105,2.094,10.398l17.732,11.789c1.277,0.849,2.719,1.255,4.146,1.255c2.427,0,4.809-1.176,6.253-3.349
		C71.029,227.007,70.092,222.352,66.643,220.059z"/>
	<path style="fill:#55A2F0;" d="M463.634,210.363c-2.293-3.449-6.95-4.388-10.398-2.093l-17.732,11.789
		c-3.449,2.293-4.387,6.948-2.094,10.398c1.444,2.172,3.826,3.349,6.253,3.349c1.426,0,2.869-0.406,4.146-1.255l17.732-11.789
		C464.989,218.468,465.927,213.813,463.634,210.363z"/>
</g>
<path style="fill:#61AFF7;" d="M412.056,218.467H90.089c-12.586,0-24.134,4.432-33.18,11.814
	c15.289,26.706,43.965,44.062,75.968,44.062h236.392c32.003,0,60.679-17.356,75.968-44.062
	C436.191,222.899,424.642,218.467,412.056,218.467z"/>
<g>
	<path style="fill:#FF901D;" d="M499.545,222.877h-30.432c-6.879,0-12.455-5.576-12.455-12.455v-15.297
		c0-6.879,5.576-12.455,12.455-12.455h30.432c6.879,0,12.455,5.576,12.455,12.455v15.297
		C512,217.301,506.424,222.877,499.545,222.877z"/>
	<path style="fill:#FF901D;" d="M42.887,222.877H12.455C5.576,222.877,0,217.301,0,210.423v-15.297
		c0-6.879,5.576-12.455,12.455-12.455h30.432c6.879,0,12.455,5.576,12.455,12.455v15.297
		C55.342,217.301,49.766,222.877,42.887,222.877z"/>
	<path style="fill:#FF901D;" d="M499.545,222.877h-30.432c-6.879,0-12.455-5.576-12.455-12.455v-15.297
		c0-6.879,5.576-12.455,12.455-12.455h30.432c6.879,0,12.455,5.576,12.455,12.455v15.297
		C512,217.301,506.424,222.877,499.545,222.877z"/>
</g>
<path style="fill:#CCDFED;" d="M468.955,329.481v-75.973c0-25.167-20.476-45.643-45.644-45.643
	c-25.167,0-45.643,20.476-45.643,45.643v75.973h-21.885v-75.973c0-37.235,30.293-67.527,67.527-67.527s67.527,30.292,67.527,67.527
	v75.973H468.955z"/>
<path style="fill:#FF901D;" d="M504.549,421.198H342.074c-4.115,0-7.451-3.336-7.451-7.451V293.925c0-4.115,3.336-4.451,7.451-4.451
	h162.475c4.115,0,7.451,0.336,7.451,4.451v119.822C512,417.862,508.664,421.198,504.549,421.198z"/>
<path style="fill:#ED5729;" d="M507.549,289.475h-48.333c4.115,0,7.451,0.336,7.451,4.451V397.74
	c0,6.696-5.428,12.125-12.125,12.125H342.074c-4.115,0-7.451-3.336-7.451-7.451v11.333c0,4.115,3.336,7.451,7.451,7.451h162.475
	c4.115,0,7.451-3.336,7.451-7.451v-11.333V293.925C512,291.467,510.007,289.475,507.549,289.475z"/>
<path style="fill:#193D4B;" d="M440.291,348.666c0-9.377-7.602-16.979-16.979-16.979s-16.979,7.602-16.979,16.979
	c0,6.757,3.957,12.575,9.672,15.308c-0.123,0.538-0.193,1.095-0.193,1.671v22.129c0,4.142,3.357,7.5,7.5,7.5s7.5-3.358,7.5-7.5
	v-22.129c0-0.575-0.071-1.133-0.193-1.67C436.333,361.241,440.291,355.423,440.291,348.666z"/>
<g>
</g>
<g>
</g>
<g>
</g>
<g>
</g>
<g>
</g>
<g>
</g>
<g>
</g>
<g>
</g>
<g>
</g>
<g>
</g>
<g>
</g>
<g>
</g>
<g>
</g>
<g>
</g>
<g>
</g>
</svg>
