<?xml version="1.0" encoding="UTF-8" standalone="no"?>
<!-- Created with Inkscape (http://www.inkscape.org/) -->

<svg
   xmlns:dc="http://purl.org/dc/elements/1.1/"
   xmlns:cc="http://creativecommons.org/ns#"
   xmlns:rdf="http://www.w3.org/1999/02/22-rdf-syntax-ns#"
   xmlns:svg="http://www.w3.org/2000/svg"
   xmlns="http://www.w3.org/2000/svg"
   xmlns:sodipodi="http://sodipodi.sourceforge.net/DTD/sodipodi-0.dtd"
   xmlns:inkscape="http://www.inkscape.org/namespaces/inkscape"
   width="180.62222mm"
   height="180.46237mm"
   viewBox="0 0 180.62222 180.46237"
   version="1.1"
   id="svg8"
   inkscape:version="0.92.4 (5da689c313, 2019-01-14)"
   sodipodi:docname="prevention.svg">
  <defs
     id="defs2" />
  <sodipodi:namedview
     id="base"
     pagecolor="#ffffff"
     bordercolor="#666666"
     borderopacity="1.0"
     inkscape:pageopacity="0.0"
     inkscape:pageshadow="2"
     inkscape:zoom="0.35"
     inkscape:cx="-70.572078"
     inkscape:cy="115.80201"
     inkscape:document-units="mm"
     inkscape:current-layer="g907"
     showgrid="false"
     fit-margin-top="0"
     fit-margin-left="0"
     fit-margin-right="0"
     fit-margin-bottom="0"
     inkscape:window-width="1920"
     inkscape:window-height="1017"
     inkscape:window-x="-8"
     inkscape:window-y="-8"
     inkscape:window-maximized="1" />
  <metadata
     id="metadata5">
    <rdf:RDF>
      <cc:Work
         rdf:about="">
        <dc:format>image/svg+xml</dc:format>
        <dc:type
           rdf:resource="http://purl.org/dc/dcmitype/StillImage" />
        <dc:title></dc:title>
      </cc:Work>
    </rdf:RDF>
  </metadata>
  <g
     inkscape:label="Layer 1"
     inkscape:groupmode="layer"
     id="layer1"
     transform="translate(-1.663267,0.98975831)">
    <g
       transform="matrix(0.66687408,0,0,0.66687408,17.02874,32.222106)"
       id="layer1-2"
       inkscape:label="Layer 1">
      <g
         inkscape:transform-center-y="-10.583333"
         inkscape:transform-center-x="41.577381"
         transform="matrix(0.35277778,0,0,0.35277778,-29.078972,43.439784)"
         id="g9037">
        <path
           style="fill:#e93234;stroke-width:0.56664044"
           inkscape:connector-curvature="0"
           d="m 292.16822,114.32972 54.04111,-53.970287 c 10.17297,-10.159681 15.78183,-23.674947 15.79068,-38.053448 0.009,-14.3785004 -5.58229,-27.9003995 -15.74198,-38.073363 -10.15969,-10.175179 -23.67495,-15.784035 -38.05345,-15.792892 -0.0133,0 -0.0244,0 -0.0376,0 -14.36522,0 -27.87163,5.591149 -38.03795,15.741979 l -54.04112,53.97029 c -0.0155,0.01547 -0.031,0.03542 -0.0465,0.05089 z m 0,0"
           id="path9007" />
        <path
           style="fill:#f9f1ef;stroke-width:0.56664044"
           inkscape:connector-curvature="0"
           d="m 216.0414,38.202906 c 0.0155,-0.01768 0.0288,-0.03542 0.0465,-0.05088 l -54.04333,53.970287 c -10.17297,10.161907 -15.78182,23.674937 -15.79067,38.053437 -0.011,14.38072 5.58007,27.90262 15.74198,38.07558 10.15968,10.17518 23.67494,15.78182 38.05344,15.79289 h 0.0354 c 14.36522,0 27.87383,-5.59115 38.04016,-15.74198 L 292.166,114.33195 c 0,-0.002 0,-0.002 0.002,-0.002 z m 0,0"
           id="path9009" />
        <path
           style="fill:#bf161c;stroke-width:0.56664044"
           inkscape:connector-curvature="0"
           d="m 362.00001,22.305985 c 0.009,-14.3785004 -5.58229,-27.9003995 -15.74198,-38.073363 -2.29534,-2.297551 -4.76332,-4.360474 -7.37075,-6.182138 6.25296,8.960002 9.61739,19.5977921 9.61075,30.7535253 -0.0111,14.3785007 -5.61771,27.8937587 -15.79289,38.0534477 l -54.0389,53.968073 13.50198,13.50419 54.04111,-53.970287 C 356.3823,50.199752 361.99116,36.684486 362.00001,22.305985 Z m 0,0"
           id="path9011" />
        <path
           style="fill:#cccccc;stroke-width:0.56664044"
           inkscape:connector-curvature="0"
           d="m 292.16822,114.32972 -13.50419,-13.50419 v 0.002 l -54.04333,53.97249 c -10.16633,10.15084 -23.67274,15.73977 -38.03796,15.73977 -0.0133,0 -0.0244,0 -0.0354,0 -11.13139,-0.007 -21.74483,-3.37106 -30.68491,-9.61075 1.80838,2.58972 3.8536,5.04222 6.13123,7.32206 10.1619,10.17518 23.67494,15.78403 38.05566,15.79289 h 0.0354 c 14.36522,0 27.87384,-5.58894 38.03795,-15.74198 L 292.166,114.33202 c 0,-0.002 0,-0.002 0.002,-0.002 z m 0,0"
           id="path9013" />
        <g
           transform="matrix(-0.56166286,0,0,0.56166286,651.68646,-105.33196)"
           id="g9071">
          <path
             style="fill:#dff6fd"
             inkscape:connector-curvature="0"
             d="M 132.021,432.91 79.09,379.979 c -5.214,-5.214 -5.214,-13.668 0,-18.882 L 338.922,101.265 410.735,173.078 150.903,432.91 c -5.214,5.214 -13.667,5.214 -18.882,0 z"
             id="path9039" />
          <path
             style="fill:#c8effe"
             inkscape:connector-curvature="0"
             d="M 410.737,173.075 150.901,432.911 c -5.216,5.216 -13.66,5.216 -18.876,0 l -14.157,-14.157 c 5.216,5.216 13.67,5.216 18.876,0 L 396.58,158.918 Z"
             id="path9041" />
          <path
             style="fill:#ee6161"
             inkscape:connector-curvature="0"
             d="m 237.302,346.503 -86.403,86.403 c -5.208,5.217 -13.662,5.217 -18.88,0 L 79.093,379.98 c -5.217,-5.217 -5.217,-13.672 0,-18.88 l 86.403,-86.403 z"
             id="path9043" />
          <path
             style="fill:#e94444"
             inkscape:connector-curvature="0"
             d="M 237.306,346.506 150.9,432.912 c -5.206,5.216 -13.66,5.216 -18.876,0 L 120.12,421.008 c 5.105,2.669 11.559,1.867 15.852,-2.425 l 86.71,-86.7 z"
             id="path9045" />
          <g
             id="g9049">
            <path
               style="fill:#7a8c98"
               inkscape:connector-curvature="0"
               d="m 7.612,512 c -1.947,0 -3.896,-0.743 -5.383,-2.229 -2.972,-2.972 -2.972,-7.792 0,-10.764 l 68.018,-68.018 c 2.973,-2.972 7.792,-2.972 10.765,0 2.972,2.972 2.972,7.792 0,10.764 L 12.994,509.77 C 11.508,511.257 9.559,512 7.612,512 Z"
               id="path9047" />
          </g>
          <path
             style="fill:#c5d3dd"
             inkscape:connector-curvature="0"
             d="M 85.627,450.93 61.07,426.373 c -4.13,-4.13 -4.13,-10.826 0,-14.956 l 24.729,-24.729 39.513,39.513 -24.729,24.729 c -4.13,4.13 -10.826,4.13 -14.956,0 z"
             id="path9051" />
          <path
             style="fill:#b6c4cf"
             inkscape:connector-curvature="0"
             d="m 125.316,426.203 -24.732,24.732 c -4.131,4.12 -10.829,4.12 -14.959,0 l -8.332,-8.332 c 2.618,-0.142 5.196,-1.218 7.185,-3.217 l 27.016,-27.006 z"
             id="path9053" />
          <path
             style="fill:#c5d3dd"
             inkscape:connector-curvature="0"
             d="m 323.55,11.175 h 32.508 V 333.218 H 323.55 Z"
             transform="matrix(0.707,0.707,-0.707,0.707,221.288,-189.842)"
             id="path9055" />
          <path
             style="fill:#b6c4cf"
             inkscape:connector-curvature="0"
             d="m 333.748,15.4 h 20.559 v 322.043 h -20.559 z"
             transform="matrix(0.707,0.707,-0.707,0.707,225.512,-191.592)"
             id="path9057" />
          <path
             style="fill:#7a8c98"
             inkscape:connector-curvature="0"
             d="M 162.891,280.972 H 264.45 v 34.714 H 162.891 Z"
             transform="matrix(0.707,0.707,-0.707,0.707,273.534,-63.709)"
             id="path9059" />
          <path
             style="fill:#596c76"
             inkscape:connector-curvature="0"
             d="m 232.573,309.836 h 19.922 v 34.714 h -19.922 z"
             transform="matrix(0.707,0.707,-0.707,0.707,302.397,-75.665)"
             id="path9061" />
          <path
             style="fill:#7a8c98"
             inkscape:connector-curvature="0"
             d="M 485.005,89.68 422.32,26.995 c -2.521,-2.521 -2.521,-6.608 0,-9.129 L 438.295,1.891 c 2.521,-2.521 6.608,-2.521 9.129,0 l 62.684,62.684 c 2.521,2.521 2.521,6.608 0,9.129 L 494.134,89.68 c -2.521,2.521 -6.608,2.521 -9.129,0 z"
             id="path9063" />
          <path
             style="fill:#596c76"
             inkscape:connector-curvature="0"
             d="m 510.112,73.7 -15.974,15.984 c -2.527,2.517 -6.617,2.517 -9.134,0 L 472.897,77.577 c 2.192,0.507 4.597,-0.112 6.312,-1.827 l 16.877,-16.877 c 1.786,-1.776 2.375,-4.293 1.766,-6.556 l 12.26,12.26 c 2.517,2.516 2.517,6.606 0,9.123 z"
             id="path9065" />
          <path
             style="fill:#7a8c98"
             inkscape:connector-curvature="0"
             d="M 413.539,175.882 336.118,98.461 c -2.521,-2.521 -2.521,-6.608 0,-9.129 l 15.975,-15.975 c 2.521,-2.521 6.608,-2.521 9.129,0 l 77.421,77.421 c 2.521,2.521 2.521,6.608 0,9.129 l -15.975,15.975 c -2.521,2.521 -6.608,2.521 -9.129,0 z"
             id="path9067" />
          <path
             style="fill:#596c76"
             inkscape:connector-curvature="0"
             d="m 438.645,159.902 -15.974,15.984 c -2.527,2.517 -6.607,2.517 -9.134,0 L 400.7,163.048 c 2.476,1.228 5.572,0.812 7.642,-1.258 l 16.481,-16.481 c 1.817,-1.817 2.365,-4.425 1.634,-6.718 l 12.189,12.189 c 2.516,2.516 2.516,6.605 -0.001,9.122 z"
             id="path9069" />
        </g>
        <g
           transform="matrix(0.47776476,0,0,0.47776476,305.1208,87.467652)"
           id="g9143">
          <path
             style="fill:#ff8086"
             inkscape:connector-curvature="0"
             d="M 364.166,96.5 215.521,6.021 C 208.927,2.007 201.49,0 194.052,0 186.614,0 179.177,2.007 172.583,6.021 L 23.938,96.5 c -6.175,3.759 -11.142,8.996 -14.56,15.102 L 23.993,275.667 H 364.11 l 14.616,-164.062 c -3.417,-6.107 -8.385,-11.346 -14.56,-15.105 z"
             id="path9097" />
          <path
             style="fill:#db4655"
             inkscape:connector-curvature="0"
             d="M 23.994,351.438 C 11.653,343.953 4.117,330.567 4.117,316.134 V 131.77 c 0,-7.18 1.868,-14.104 5.262,-20.168 l 184.673,112.167 5.281,173.564 -5.281,50.25 c -7.417,0 -14.833,-1.995 -21.413,-5.986 z"
             id="path9099" />
          <path
             style="fill:#e5646e"
             inkscape:connector-curvature="0"
             d="m 364.11,351.438 c 12.341,-7.485 19.877,-20.871 19.877,-35.304 V 131.77 c 0,-7.18 -1.866,-14.101 -5.261,-20.165 L 194.052,223.769 v 223.814 c 7.417,0 14.833,-1.995 21.413,-5.986 z"
             id="path9101" />
          <path
             style="fill:#eceaec"
             inkscape:connector-curvature="0"
             d="m 260.142,231.226 h 214.709 c 18.243,0 33.032,14.789 33.032,33.032 v 214.709 c 0,6.017 -1.609,11.657 -4.419,16.516 L 474.851,503 H 267.667 c -18.243,0 -33.032,-14.789 -33.032,-33.032 v -205.71 l 8.969,-28.6 c 4.863,-2.818 10.512,-4.432 16.538,-4.432 z"
             id="path9103" />
          <ellipse
             style="fill:#ff9a9f"
             cx="94.981003"
             cy="280.77399"
             rx="15.414"
             ry="27.246"
             transform="matrix(0.92,-0.392,0.392,0.92,-102.354,59.608)"
             id="ellipse9105" />
          <ellipse
             style="fill:#ffffff"
             cx="194.24899"
             cy="107.011"
             rx="27.198999"
             ry="17.157"
             id="ellipse9107" />
          <ellipse
             style="fill:#ffffff"
             cx="278.73901"
             cy="107.011"
             rx="27.198999"
             ry="17.157"
             id="ellipse9109" />
          <ellipse
             style="fill:#ffffff"
             cx="109.76"
             cy="107.011"
             rx="27.198999"
             ry="17.157"
             id="ellipse9111" />
          <g
             style="fill:#e5646e"
             id="g9119">
            <circle
               cx="367.496"
               cy="371.61301"
               r="24.774"
               id="circle9113" />
            <circle
               cx="293.17401"
               cy="297.29099"
               r="24.774"
               id="circle9115" />
            <circle
               cx="441.819"
               cy="445.936"
               r="24.774"
               id="circle9117" />
          </g>
          <path
             style="fill:#dad8db"
             inkscape:connector-curvature="0"
             d="m 293.149,495.484 c -27.365,0 -49.548,-22.184 -49.548,-49.548 l 0.003,-210.277 c -9.818,5.726 -16.494,16.415 -16.494,28.6 v 214.709 c 0,18.243 14.789,33.032 33.032,33.032 h 214.709 c 12.196,0 22.892,-6.684 28.614,-16.516 z"
             id="path9121" />
        </g>
      </g>
    </g>
    <g
       id="g907"
       transform="matrix(0.35277779,0,0,0.35277779,1.663267,-1.1661472)">
      <path
         id="path893"
         d="M 256,0.5 C 114.61328,0.5 0,115.01563 0,256.27344 c 0,141.26172 114.61328,255.77343 256,255.77343 141.38672,0 256,-114.51171 256,-255.77343 C 512,115.01563 397.38672,0.5 256,0.5 Z M 56,256.27344 C 56,211.3125 70.867188,169.82031 95.953125,136.42969 l 279.996095,279.75 C 342.53125,441.24219 301.00391,456.09766 256,456.09766 145.54297,456.09766 56,366.63281 56,256.27344 Z M 415.61328,376.68359 135.48437,96.800781 C 169,71.476562 210.74219,56.449219 256,56.449219 c 110.45703,0 200,89.464841 200,199.824221 0,45.21875 -15.03906,86.92187 -40.38672,120.41015 z m 0,0"
         inkscape:connector-curvature="0"
         style="fill:#e5554e" />
      <path
         id="path895"
         d="m 256,0.5 c -5.07031,0 -10.10938,0.148438 -15.10547,0.441406 C 375.34375,8.648438 482,120.01172 482,256.27344 c 0,136.26562 -106.65625,247.625 -241.10547,255.33203 4.99609,0.29297 10.03516,0.4414 15.10547,0.4414 141.38672,0 256,-114.51171 256,-255.77343 C 512,115.01563 397.38672,0.5 256,0.5 Z m 0,0"
         inkscape:connector-curvature="0"
         style="fill:#e5554e;fill-opacity:1" />
    </g>
  </g>
</svg>
