<?xml version="1.0" encoding="UTF-8" standalone="no"?>
<!-- Created with Inkscape (http://www.inkscape.org/) -->

<svg
   xmlns:dc="http://purl.org/dc/elements/1.1/"
   xmlns:cc="http://creativecommons.org/ns#"
   xmlns:rdf="http://www.w3.org/1999/02/22-rdf-syntax-ns#"
   xmlns:svg="http://www.w3.org/2000/svg"
   xmlns="http://www.w3.org/2000/svg"
   xmlns:sodipodi="http://sodipodi.sourceforge.net/DTD/sodipodi-0.dtd"
   xmlns:inkscape="http://www.inkscape.org/namespaces/inkscape"
   width="633.43628"
   height="411.91669"
   viewBox="0 0 167.59668 108.98629"
   version="1.1"
   id="svg3250"
   inkscape:version="0.92.4 (5da689c313, 2019-01-14)"
   sodipodi:docname="services.svg">
  <defs
     id="defs3244" />
  <sodipodi:namedview
     id="base"
     pagecolor="#ffffff"
     bordercolor="#666666"
     borderopacity="1.0"
     inkscape:pageopacity="0.0"
     inkscape:pageshadow="2"
     inkscape:zoom="0.98994949"
     inkscape:cx="236.32207"
     inkscape:cy="113.35409"
     inkscape:document-units="mm"
     inkscape:current-layer="svg3250"
     showgrid="false"
     fit-margin-top="0"
     fit-margin-left="0"
     fit-margin-right="0"
     fit-margin-bottom="0"
     units="px"
     inkscape:window-width="1920"
     inkscape:window-height="1017"
     inkscape:window-x="-8"
     inkscape:window-y="-8"
     inkscape:window-maximized="1" />
  <metadata
     id="metadata3247">
    <rdf:RDF>
      <cc:Work
         rdf:about="">
        <dc:format>image/svg+xml</dc:format>
        <dc:type
           rdf:resource="http://purl.org/dc/dcmitype/StillImage" />
        <dc:title></dc:title>
      </cc:Work>
    </rdf:RDF>
  </metadata>
  <path
     sodipodi:type="star"
     style="fill:#2eb8da;fill-opacity:1;stroke:none;stroke-width:0.26458332;stroke-miterlimit:4;stroke-dasharray:none;stroke-opacity:1"
     id="path3439"
     sodipodi:sides="3"
     sodipodi:cx="155.55086"
     sodipodi:cy="44.697567"
     sodipodi:r1="26.222397"
     sodipodi:r2="13.111198"
     sodipodi:arg1="2.6186539"
     sodipodi:arg2="3.6658514"
     inkscape:flatsided="true"
     inkscape:rounded="1"
     inkscape:randomized="0.5"
     d="M 139.30817,45.729015 C 101.77375,12.91387 108.69889,32.011048 146.79892,20.221517 184.89894,8.4319855 224.04169,39.512675 186.82946,62.539186 149.61722,85.565698 176.84259,78.54416 139.30817,45.729015 Z"
     inkscape:transform-center-x="-10.30717"
     inkscape:transform-center-y="-14.255539"
     transform="matrix(-1.6126222,0.59744169,-0.59744169,-1.6126222,364.62003,24.262875)" />
  <g
     inkscape:label="Layer 1"
     inkscape:groupmode="layer"
     id="layer1"
     transform="translate(-20.176312,-5.2914361)">
    <g
       id="g3473">
      <path
         inkscape:connector-curvature="0"
         id="path902"
         style="fill:#b8d1ff;fill-opacity:1;fill-rule:nonzero;stroke:none;stroke-width:0.12075341"
         d="m 38.448955,35.9286 h -7.519312 v -2.62035 h 7.519312 v 2.62035" />
      <path
         inkscape:connector-curvature="0"
         id="path904"
         style="fill:#ffbd95;fill-opacity:1;fill-rule:nonzero;stroke:none;stroke-width:0.12075341"
         d="M 42.151738,49.704146 C 43.485216,45.605775 46.937073,38.581552 44.915782,37.35832 42.281909,35.764374 34.70415,34.787481 34.70415,34.787481 v 0.130412 c 0,0 -7.642361,0.638788 -10.276835,2.23273 -2.021159,1.222024 1.495772,8.585566 2.829249,12.683937 0.319771,0.982932 0.284857,5.391639 0.162762,9.300423 -0.03012,0.964822 -0.813275,5.398884 -0.679719,7.231924 0.04008,0.548219 6.230148,3.934144 7.964528,4.021087 V 70.25758 c 1.734383,-0.08694 7.924927,-3.472867 7.964533,-4.019883 0.133426,-1.833032 -0.649048,-6.268305 -0.679238,-7.231918 -0.122678,-3.909994 -0.157592,-8.318701 0.16228,-9.301633" />
      <path
         inkscape:connector-curvature="0"
         id="path906"
         style="fill:#b8d1ff;fill-opacity:1;fill-rule:nonzero;stroke:none;stroke-width:0.12075341"
         d="m 21.744367,55.846868 c 0.08917,-1.45749 0.936311,-2.610686 5.074953,-2.572044 4.138579,0.03865 12.081975,1.325872 12.081975,1.325872 l -0.144892,2.358313 c 0,0 -6.582867,1.852357 -8.830452,1.929639 -2.248184,0.07849 -8.416004,0.775237 -8.181571,-3.04178" />
      <path
         inkscape:connector-curvature="0"
         id="path908"
         style="fill:#b8d1ff;fill-opacity:1;fill-rule:nonzero;stroke:none;stroke-width:0.12075341"
         d="m 23.867926,37.201341 c 1.720795,0.06158 3.02831,2.098694 2.86276,5.301072 -0.166046,3.20359 -0.630213,5.368696 -0.694335,6.200686 -0.06606,0.857352 -0.07886,5.857747 -0.297178,7.190866 -0.218452,1.333114 -1.148606,2.480272 -2.514169,2.409028 -1.142438,-0.05919 -2.426855,-2.168732 -2.7561,-4.473912 -0.329252,-2.306391 -1.222629,-16.791965 3.399015,-16.62774" />
      <path
         inkscape:connector-curvature="0"
         id="path910"
         style="fill:#ffbd95;fill-opacity:1;fill-rule:nonzero;stroke:none;stroke-width:0.12075341"
         d="m 53.857208,42.84777 c 0,0 0.809894,-2.119222 0.568867,-2.347446 -0.707491,-0.672595 -0.933423,-2.132507 -1.205117,-2.306391 -0.272191,-0.172687 -0.809892,-0.346562 -0.834528,-0.537352 -0.02499,-0.191992 0.370834,-0.212531 1.167928,-0.231835 0.531677,-0.01198 1.415593,1.566171 1.774111,1.566171 0.173026,0 1.044273,0.235464 2.26171,-0.388827 0.731158,-0.374335 2.917403,-1.276363 3.140072,-1.276363 0.222661,0 0.865076,-0.07367 0.989087,0 0.123636,0.07366 0.142021,0.288587 -0.148515,0.381581 -0.65521,0.208902 -2.546687,1.4261 -2.917403,1.822171 -0.370724,0.394862 -2.472188,4.158743 -2.472188,4.158743 l -2.324024,-0.840443" />
      <path
         inkscape:connector-curvature="0"
         id="path912"
         style="fill:#cee0ff;fill-opacity:1;fill-rule:nonzero;stroke:none;stroke-width:0.12075341"
         d="m 43.752201,36.750932 c 0,0 1.57209,0.05192 2.457938,1.393492 1.970212,2.981403 2.446704,10.841238 2.753778,10.389621 0.369266,-0.542182 1.002255,-1.707451 2.06271,-2.795439 1.273587,-1.307759 3.235347,-4.293991 3.235347,-4.293991 l 2.683866,1.554096 c 0,0 -0.696626,2.36073 -2.964618,6.969884 -2.14893,4.366444 -4.487195,6.378192 -5.93334,6.378192 -1.824582,0 -5.830215,-9.195367 -5.830215,-9.195367 0,0 0.411891,-9.697703 1.534534,-10.400488" />
      <path
         inkscape:connector-curvature="0"
         id="path914"
         style="fill:#ffbd95;fill-opacity:1;fill-rule:nonzero;stroke:none;stroke-width:0.12075341"
         d="M 37.869703,33.572702 C 37.696058,32.792634 37.262554,28.933359 37.262554,28.933359 H 34.70415 v 0.130413 h -2.558521 c 0,0 -0.433504,3.859276 -0.607025,4.639344 -0.173646,0.781274 -2.278738,1.958619 -2.278738,1.958619 h 5.444284 v -0.130414 h 5.444769 c 0,0 -2.105694,-1.177345 -2.279216,-1.958619" />
      <path
         inkscape:connector-curvature="0"
         id="path916"
         style="fill:#ffa47c;fill-opacity:1;fill-rule:nonzero;stroke:none;stroke-width:0.12075341"
         d="m 37.697023,32.483505 c -0.162282,-1.182173 -0.356584,-2.86427 -0.415995,-3.388338 l -0.164711,-0.161801 h -2.412171 v 0.130414 h -2.55852 c 0,0 -0.433505,3.859279 -0.607026,4.639343 -0.173646,0.781274 -2.278738,1.958617 -2.278738,1.958617 h 0.257097 c 2.429678,-0.647237 4.845713,-1.293267 5.171144,-1.387453 0.679235,-0.194423 3.008931,-1.789566 3.008931,-1.789566 v -0.0011" />
      <path
         inkscape:connector-curvature="0"
         id="path918"
         style="fill:#ffbd95;fill-opacity:1;fill-rule:nonzero;stroke:none;stroke-width:0.12075341"
         d="m 40.321477,25.470151 c -0.203221,3.251886 -1.75696,6.457889 -3.84708,6.50136 -1.996657,0.04227 -5.570235,-2.963286 -5.639063,-6.220006 -0.06894,-3.257925 1.823495,-5.937443 4.810331,-6.082346 2.511307,-0.121959 4.885319,2.4525 4.675812,5.800992" />
      <path
         inkscape:connector-curvature="0"
         id="path920"
         style="fill:#191919;fill-opacity:1;fill-rule:nonzero;stroke:none;stroke-width:0.12075341"
         d="m 27.240504,60.7241 c 0,0 -1.122159,5.501522 -1.295681,8.493792 -0.173646,2.991059 1.968401,16.069865 1.973593,17.509245 0.0051,1.43937 -0.09201,5.862569 0,10.198819 0.09139,4.336254 1.210793,12.872324 1.210793,12.872324 l 5.550429,-0.13767 c 0,0 0.0086,-18.332794 0.0086,-21.213963 0,-2.88238 0.01609,-18.058669 0.01609,-18.058669 v -9.430835 l -7.46361,-0.233071" />
      <path
         inkscape:connector-curvature="0"
         id="path922"
         style="fill:#cee0ff;fill-opacity:1;fill-rule:nonzero;stroke:none;stroke-width:0.12075341"
         d="M 45.577146,37.438016 C 45.286608,36.839083 43.389942,36.398331 41.69082,35.871848 40.193723,35.408153 38.853118,34.820084 38.853118,34.820084 l -4.156574,2.380049 -4.15742,-2.381257 c 0,0 -1.340601,0.588069 -2.837701,1.052972 -1.699123,0.525275 -3.595796,0.967235 -3.886327,1.566168 -0.295262,0.608597 2.750882,12.278206 3.092853,13.270798 0.341472,0.993799 -0.533969,7.938327 0.332572,10.015286 l 7.447589,0.231832 v 0.0015 h 0.01404 0.0019 v 0 l 7.447602,-0.231805 c 0.680071,-2.382465 -0.01848,-9.153108 0.323501,-10.145699 0.341507,-0.992592 3.397157,-12.532995 3.101915,-13.141592" />
      <path
         inkscape:connector-curvature="0"
         id="path924"
         style="fill:#191919;fill-opacity:1;fill-rule:nonzero;stroke:none;stroke-width:0.12075341"
         d="m 42.151738,60.725307 c 0,0 1.12216,5.506349 1.295199,8.502245 0.173645,2.995889 -1.903676,16.087965 -1.908869,17.529765 -0.0051,1.44058 0.09191,5.869829 0,10.209699 -0.09201,4.342304 -1.227336,12.886804 -1.227336,12.886804 l -5.550429,-0.13767 c 0,0 0.0079,-18.353304 0.0079,-21.238113 0,-2.88479 -0.08017,-18.077983 -0.08017,-18.077983 v -9.442911 l 7.463645,-0.231836" />
      <path
         inkscape:connector-curvature="0"
         id="path926"
         style="fill:#8d3b26;fill-opacity:1;fill-rule:nonzero;stroke:none;stroke-width:0.12075341"
         d="m 40.088543,23.110629 c 0,0 -2.673601,-1.77266 -5.781549,0.515616 -0.668855,0.492676 -0.137294,3.014007 -0.313233,3.209627 -0.188603,0.208902 -0.731162,-1.988807 -0.86556,-1.735227 -0.971701,1.836659 -0.568384,4.314518 -0.817861,4.301235 -0.756642,-0.03865 -2.6189,-4.255347 -1.108516,-7.295919 1.509899,-3.041777 4.860805,-2.956043 5.634352,-2.68797 0.773545,0.266853 2.939138,0.939462 3.252371,3.692638" />
      <path
         inkscape:connector-curvature="0"
         id="path928"
         style="fill:#ffbd95;fill-opacity:1;fill-rule:nonzero;stroke:none;stroke-width:0.12075341"
         d="m 33.600344,26.084785 c 0.162759,0.920143 0.149137,2.131298 -0.334352,2.217032 -0.483495,0.08574 -1.007082,-0.590483 -1.169859,-1.510624 -0.162658,-0.918934 0.09769,-1.734019 0.580704,-1.819753 0.483496,-0.08574 0.761229,0.193224 0.923521,1.113345" />
      <path
         inkscape:connector-curvature="0"
         id="path930"
         style="fill:#191919;fill-opacity:1;fill-rule:nonzero;stroke:none;stroke-width:0.12075341"
         d="m 29.711724,109.78379 c 0,0 -1.894258,2.21944 -1.793308,2.80388 0.05699,0.33331 0.858436,1.53961 2.312186,1.62656 1.105134,0.0664 2.906051,-0.9443 3.187162,-0.97328 0.650501,-0.0676 0.643497,-3.56464 0.643497,-3.56464 l -4.349537,0.10744" />
      <path
         inkscape:connector-curvature="0"
         id="path932"
         style="fill:#191919;fill-opacity:1;fill-rule:nonzero;stroke:none;stroke-width:0.12075341"
         d="m 39.531872,109.83933 c 0,0 1.894379,2.22186 1.793426,2.80751 -0.05761,0.33329 -0.858915,1.54083 -2.312301,1.62776 -1.105138,0.0664 -2.906538,-0.9455 -3.187167,-0.97447 -0.650501,-0.0676 -0.643374,-3.56828 -0.643374,-3.56828 l 4.349416,0.10744" />
      <path
         inkscape:connector-curvature="0"
         id="path934"
         style="fill:#cee0ff;fill-opacity:1;fill-rule:nonzero;stroke:none;stroke-width:0.12075341"
         d="m 57.590179,42.064079 -3.7471,-1.335531 -1.308001,3.073172 3.782478,1.522701 1.272623,-3.260342" />
      <path
         inkscape:connector-curvature="0"
         id="path936"
         style="fill:#b8d1ff;fill-opacity:1;fill-rule:nonzero;stroke:none;stroke-width:0.12075341"
         d="m 34.361696,35.78611 0.334864,1.414023 -2.530626,-0.955159 1.460389,-0.688293 0.735389,0.229439" />
      <path
         inkscape:connector-curvature="0"
         id="path938"
         style="fill:#b8d1ff;fill-opacity:1;fill-rule:nonzero;stroke:none;stroke-width:0.12075341"
         d="m 35.920139,59.960936 c -0.71643,-0.447992 -1.790532,-0.89599 -2.441998,-1.298098 -0.651342,-0.403317 -0.01986,-1.790771 -0.02773,-2.506841 -0.0079,-0.716067 1.977339,-2.058845 3.319753,-2.551517 1.342898,-0.492674 3.670299,-0.312754 4.207531,-1.253419 0.536751,-0.939462 -0.895263,-1.834243 -1.522217,-1.834243 -0.626345,0 -4.65456,-1.164063 -5.281028,-1.074707 -0.626347,0.09057 -5.370625,0.582031 -6.131495,0 -0.760863,-0.582033 -4.54432,-11.527116 -4.54432,-11.527116 0.849513,3.675731 3.192005,12.162277 3.409362,12.793819 0.341472,0.993799 -0.533971,7.938327 0.332572,10.015286 l 7.447587,0.231832 v 0.0015 h 0.01404 0.0019 v 0 l 7.447589,-0.231838 c 0,0 -1.62172,-0.227008 -2.29347,-0.431091 -0.671148,-0.202877 -3.222063,0.113505 -3.93813,-0.33329" />
      <path
         inkscape:connector-curvature="0"
         id="path940"
         style="fill:#e0f2ff;fill-opacity:1;fill-rule:nonzero;stroke:none;stroke-width:0.12075341"
         d="m 29.463574,35.030197 1.466069,-1.721947 3.432053,2.47786 -1.239174,2.332957 -3.658948,-3.08887" />
      <path
         inkscape:connector-curvature="0"
         id="path942"
         style="fill:#b8d1ff;fill-opacity:1;fill-rule:nonzero;stroke:none;stroke-width:0.12075341"
         d="m 34.997581,35.795773 -0.322167,1.40436 2.530631,-0.955159 -1.460394,-0.688293 -0.748066,0.239092" />
      <path
         inkscape:connector-curvature="0"
         id="path944"
         style="fill:#e0f2ff;fill-opacity:1;fill-rule:nonzero;stroke:none;stroke-width:0.12075341"
         d="m 39.90826,35.030197 -1.465945,-1.721947 -3.444734,2.487523 1.251851,2.323294 3.658828,-3.08887" />
      <path
         inkscape:connector-curvature="0"
         id="path946"
         style="fill:#303030;fill-opacity:1;fill-rule:nonzero;stroke:none;stroke-width:0.12075341"
         d="m 40.334277,71.820126 c 0.106147,1.985191 -1.531151,15.137631 -1.556149,15.887521 -0.02465,0.73177 -0.282563,21.157203 -0.294748,22.101493 l 1.827362,0.0447 c 0,0 1.135321,-8.54451 1.227336,-12.886804 0.0919,-4.33987 -0.0051,-8.769109 0,-10.209689 0.0051,-1.4418 2.082512,-14.533883 1.908869,-17.529772 -0.173029,-2.995889 -1.295199,-8.502239 -1.295199,-8.502239 l -3.520806,0.108673 -0.181962,0.123157 c 0,0 1.779177,8.878997 1.885322,10.862975" />
      <path
         inkscape:connector-curvature="0"
         id="path948"
         style="fill:#303030;fill-opacity:1;fill-rule:nonzero;stroke:none;stroke-width:0.12075341"
         d="m 33.830501,66.742445 c -1.031958,-1.813712 -3.784775,-1.197871 -3.96071,0.881506 -0.181142,2.136126 -0.225092,3.615356 -0.03682,4.59949 0.473111,2.476656 1.841007,14.583386 1.751891,14.900976 -0.08962,0.31638 0.0061,22.551893 0.0061,22.551893 l 0.09854,0.0591 2.990093,-0.0749 c 0,0 0.0086,-18.332784 0.0086,-21.213963 0,-2.88238 0.01609,-18.058663 0.01609,-18.058663 V 69.56434 l 0.05614,-1.189414 -0.929801,-1.632591" />
      <path
         inkscape:connector-curvature="0"
         id="path950"
         style="fill:#540000;fill-opacity:1;fill-rule:nonzero;stroke:none;stroke-width:0.12075341"
         d="m 29.259866,35.333287 -5.761279,1.741263 c 0,0 2.449494,4.394217 2.743894,7.009732 0.294269,2.61552 0.561261,6.285217 0.561261,6.285217 0,0 0.09057,8.556583 0.124493,8.850014 0.03389,0.294646 0.135855,2.402992 0.135855,2.402992 l 6.100943,1.711075 1.539124,-2.376429 V 46.21075 c 0,0 -4.355576,-1.777489 -5.444288,-10.877463" />
      <path
         inkscape:connector-curvature="0"
         id="path952"
         style="fill:#6d0000;fill-opacity:1;fill-rule:nonzero;stroke:none;stroke-width:0.12075341"
         d="m 39.90826,35.248758 5.524949,1.68451 c 0,0 -1.972624,4.535499 -2.267387,7.151014 -0.29427,2.61552 -0.561262,6.285217 -0.561262,6.285217 0,0 -0.09057,8.556583 -0.124628,8.850014 -0.03389,0.294646 -0.135856,2.402992 -0.135856,2.402992 L 36.243739,63.33358 34.704132,60.957151 V 46.21075 c 0,0 4.115037,-1.863223 5.204111,-10.961992" />
      <path
         inkscape:connector-curvature="0"
         id="path954"
         style="fill:#303030;fill-opacity:1;fill-rule:nonzero;stroke:none;stroke-width:0.12075341"
         d="m 34.696544,36.85961 2.189138,-1.302929 v 2.860645 L 34.696544,37.359529 V 36.85961" />
      <path
         inkscape:connector-curvature="0"
         id="path956"
         style="fill:#303030;fill-opacity:1;fill-rule:nonzero;stroke:none;stroke-width:0.12075341"
         d="m 34.70415,36.85961 -2.189136,-1.302929 v 2.860645 L 34.70415,37.359529 V 36.85961" />
      <path
         inkscape:connector-curvature="0"
         id="path958"
         style="fill:#99a2a9;fill-opacity:1;fill-rule:nonzero;stroke:none;stroke-width:0.12075341"
         d="M 48.455909,37.424735 H 66.724572 V 36.975206 H 48.455909 Z" />
      <path
         inkscape:connector-curvature="0"
         id="path960"
         style="fill:#99a2a9;fill-opacity:1;fill-rule:nonzero;stroke:none;stroke-width:0.12075341"
         d="m 57.510965,30.090175 c -4.379242,0 -7.929151,3.087663 -7.929151,6.896226 h 15.857818 c 0,-3.808563 -3.549422,-6.896226 -7.928667,-6.896226" />
      <path
         inkscape:connector-curvature="0"
         id="path962"
         style="fill:#99a2a9;fill-opacity:1;fill-rule:nonzero;stroke:none;stroke-width:0.12075341"
         d="m 58.172209,29.595086 c 0,0.364676 -0.296217,0.661728 -0.661244,0.661728 -0.365525,0 -0.66185,-0.297042 -0.66185,-0.661728 0,-0.365884 0.296325,-0.661727 0.66185,-0.661727 0.365035,0 0.661244,0.295843 0.661244,0.661727" />
      <path
         inkscape:connector-curvature="0"
         id="path964"
         style="fill:#c6cbd0;fill-opacity:1;fill-rule:nonzero;stroke:none;stroke-width:0.12075341"
         d="m 64.837314,36.986401 v 0 l -2.027334,-0.01093 c 0,0 -0.2967,-2.549104 -1.483454,-4.229993 -1.186884,-1.680888 -3.51042,-2.488727 -3.51042,-2.488727 0,0 2.076471,0.461277 4.400497,2.040731 2.324019,1.579456 2.620711,4.688857 2.620711,4.688857" />
    </g>
  </g>
  <g
     transform="matrix(0.0389255,0,0,-0.0389255,-111.95055,210.13928)"
     id="g8897">
    <path
       inkscape:connector-curvature="0"
       id="path4920"
       style="fill:#c97162;fill-opacity:1;fill-rule:nonzero;stroke:none"
       d="m 6888.54,3525.76 c 0,0 -12.93,499.92 -189.66,555.96 -180.27,57.16 -372.89,52.33 -559.57,43.87 -176.09,-7.98 -353.55,-3.13 -529.19,-14.75 -193.38,-12.79 -264.99,-101.55 -307.63,-280.35 -23.62,-99.03 -36.06,-202.91 -38.69,-304.73 l -43.1,-129.29 h 780.05 150.84 780.05 l -43.1,129.29" />
    <path
       inkscape:connector-curvature="0"
       id="path4922"
       style="fill:#bf584a;fill-opacity:1;fill-rule:nonzero;stroke:none"
       d="m 5410.33,3465.43 v 112.05 c 0,0 -4.31,81.88 -99.12,90.5 -94.82,8.62 -353.39,-193.94 -349.08,-237.03 4.3,-43.1 51.71,-349.08 81.88,-362.01 30.17,-12.93 107.74,-73.26 176.69,-38.79 68.95,34.48 189.63,435.28 189.63,435.28" />
    <path
       inkscape:connector-curvature="0"
       id="path4924"
       style="fill:#bf584a;fill-opacity:1;fill-rule:nonzero;stroke:none"
       d="m 6707.53,3465.43 v 112.05 c 0,0 4.31,81.88 99.13,90.5 94.81,8.62 353.38,-193.94 349.08,-237.03 -4.31,-43.1 -51.71,-349.08 -81.89,-362.01 -30.16,-12.93 -107.73,-73.26 -176.69,-38.79 -68.95,34.48 -189.63,435.28 -189.63,435.28" />
    <path
       inkscape:connector-curvature="0"
       id="path4926"
       style="fill:#bf584a;fill-opacity:1;fill-rule:nonzero;stroke:none"
       d="m 5410.33,3465.43 c -1.55,-2.33 -9.95,-9.69 -22.68,-20.19 -57.96,-47.82 -205.73,-160.82 -205.73,-160.82 h 1762.65 l -237.04,193.94 -1297.2,-12.93" />
    <path
       inkscape:connector-curvature="0"
       id="path4928"
       style="fill:#c56558;fill-opacity:1;fill-rule:nonzero;stroke:none"
       d="m 5181.92,3284.42 v -178.13 h 1761.44 l 1.21,178.13 H 5181.92" />
    <path
       inkscape:connector-curvature="0"
       id="path4930"
       style="fill:#bf584a;fill-opacity:1;fill-rule:nonzero;stroke:none"
       d="m 5125.89,2931.03 -55.16,-172.84 c -4.69,-14.7 6.28,-29.72 21.71,-29.72 v 0 c 7.46,0 14.44,3.66 18.7,9.78 l 131.11,188.47 -116.36,4.31" />
    <path
       inkscape:connector-curvature="0"
       id="path4932"
       style="fill:#bf584a;fill-opacity:1;fill-rule:nonzero;stroke:none"
       d="m 7000.36,2931.03 55.16,-172.84 c 4.69,-14.7 -6.28,-29.72 -21.71,-29.72 v 0 c -7.46,0 -14.44,3.66 -18.7,9.78 l -131.11,188.47 116.36,4.31" />
    <path
       inkscape:connector-curvature="0"
       id="path4934"
       style="fill:#c97162;fill-opacity:1;fill-rule:nonzero;stroke:none"
       d="m 7111.98,3481.59 c -28.56,14 -60.88,16.16 -99.67,-3.23 -77.57,-38.79 -68.95,-193.94 -68.95,-193.94 v -172.39 h -834.87 -91.71 -834.86 v 172.39 c 0,0 8.61,155.15 -68.95,193.94 -38.79,19.39 -71.12,17.23 -99.66,3.23 -49.59,-24.33 -75.79,-79.9 -68.39,-134.64 12.14,-89.8 35.1,-245.5 55.99,-308.18 30.17,-90.5 30.17,-107.74 94.82,-129.29 56.07,-18.69 776.77,-4.96 966.91,-0.99 190.14,-3.97 910.84,-17.7 966.92,0.99 64.63,21.55 64.63,38.79 94.81,129.29 20.89,62.68 43.85,218.38 55.99,308.18 7.4,54.74 -18.8,110.31 -68.38,134.64" />
    <path
       inkscape:connector-curvature="0"
       id="path4936"
       style="fill:#bf584a;fill-opacity:1;fill-rule:nonzero;stroke:none"
       d="m 5844.55,2791.48 c 0,0 44.74,-91.36 74.58,-111.87 29.83,-20.51 87.63,-37.29 76.44,-1.86 -11.18,35.42 -83.89,132.38 -83.89,132.38 l -67.13,-18.65" />
    <path
       inkscape:connector-curvature="0"
       id="path4938"
       style="fill:#bf584a;fill-opacity:1;fill-rule:nonzero;stroke:none"
       d="m 5997.44,2813.86 c 0,0 39.16,-143.57 72.72,-130.52 33.56,13.05 13.05,134.24 -13.05,177.13 -26.11,42.89 -63.4,-14.92 -59.67,-46.61" />
    <path
       inkscape:connector-curvature="0"
       id="path4940"
       style="fill:#f89d87;fill-opacity:1;fill-rule:nonzero;stroke:none"
       d="m 6001.17,2826.91 31.7,-76.45 41.01,13.05 c 0,0 -9.31,67.13 -16.77,87.64 -7.47,20.51 -54.08,3.72 -55.94,-24.24" />
    <path
       inkscape:connector-curvature="0"
       id="path4942"
       style="fill:#f89d87;fill-opacity:1;fill-rule:nonzero;stroke:none"
       d="m 5846.41,2798.94 54.07,-78.31 54.08,16.78 -55.94,70.85 -52.21,-9.32" />
    <path
       inkscape:connector-curvature="0"
       id="path4944"
       style="fill:#bf584a;fill-opacity:1;fill-rule:nonzero;stroke:none"
       d="m 5553.68,4355.84 c 0,0 -26.11,0 -44.75,1.86 -18.65,1.87 -29.83,48.48 -83.9,26.1 -54.08,-22.37 -110.01,-106.27 -89.51,-147.29 20.52,-41.03 72.73,-65.26 63.4,-106.28 -9.32,-41.02 -59.67,-59.67 -55.94,-119.34 3.73,-59.66 37.3,-82.04 44.75,-83.9 7.46,-1.86 177.14,-80.17 164.08,-123.06 -13.04,-42.88 -13.04,-93.23 72.72,-162.21 85.77,-68.99 218.15,-78.31 298.33,14.91 80.17,93.23 70.85,218.15 -3.73,272.22 -74.58,54.08 -91.36,67.13 -83.91,126.79 7.46,59.67 -65.25,50.35 -104.41,93.24 -39.15,42.87 -3.72,115.59 -59.66,171.53 -55.94,55.94 -117.47,35.43 -117.47,35.43" />
    <path
       inkscape:connector-curvature="0"
       id="path4946"
       style="fill:#56afe5;fill-opacity:1;fill-rule:nonzero;stroke:none"
       d="m 5480.96,3971.74 c 0,0 -41.02,-3.73 -87.63,7.46 -46.62,11.19 -72.72,7.46 -87.64,-26.11 -14.91,-33.56 -203.47,-319.83 -203.47,-319.83 h 87.64 c 0,0 102.78,161.35 121.42,185.59 18.65,24.24 41.03,44.75 41.03,44.75 0,0 13.05,-70.85 22.37,-145.44 9.32,-74.58 54.08,-132.38 54.08,-132.38 0,0 -100.69,-197.64 -74.58,-238.66 26.1,-41.02 184.59,-89.5 184.59,-89.5 0,0 95.08,-255.45 175.26,-361.72 80.17,-106.28 91.36,-130.52 111.87,-128.66 20.51,1.87 100.69,35.43 100.69,35.43 0,0 -35.43,54.07 -61.54,106.28 -26.1,52.2 -100.68,186.45 -100.68,186.45 0,0 117.47,-152.89 162.22,-218.15 44.74,-65.26 50.34,-76.44 50.34,-76.44 0,0 41.02,3.72 72.71,20.51 31.7,16.78 39.16,46.61 39.16,46.61 0,0 -128.65,244.25 -199.51,350.53 -70.85,106.28 -82.04,124.93 -82.04,124.93 0,0 55.94,1.86 91.37,80.18 35.43,78.31 -31.7,117.46 -74.58,147.29 -42.89,29.84 -152.89,134.25 -152.89,165.95 0,31.69 26.1,50.34 33.55,61.53 l 69,-132.39 h 93.22 c 0,0 -80.18,179 -96.95,244.26 -16.79,65.26 -22.38,76.45 -55.94,72.72 -33.57,-3.73 -100.68,-18.65 -119.33,-20.51 -18.65,-1.87 -113.74,9.32 -113.74,9.32" />
    <path
       inkscape:connector-curvature="0"
       id="path4948"
       style="fill:#f7973e;fill-opacity:1;fill-rule:nonzero;stroke:none"
       d="m 5631.99,3550.35 c 92.86,17.89 162.88,15.09 211.83,6.84 -6.84,4.8 -13.57,9.35 -19.78,13.67 -42.89,29.84 -152.89,134.25 -152.89,165.95 0,31.7 26.1,50.34 33.55,61.53 l 69,-132.39 h 93.22 c 0,0 -80.18,179 -96.95,244.26 -16.79,65.26 -22.38,76.45 -55.94,72.72 -33.57,-3.73 -100.68,-18.65 -119.33,-20.51 -18.65,-1.87 -113.74,9.32 -113.74,9.32 0,0 -41.02,-3.73 -87.63,7.46 -46.62,11.19 -72.72,7.46 -87.64,-26.11 -14.91,-33.56 -203.29,-320.13 -203.29,-320.13 l 108.55,-2.05 c 0,0 82.19,132.87 100.83,157.1 18.65,24.24 40.53,75.59 40.53,75.59 0,0 13.05,-70.85 22.37,-145.44 9.32,-74.58 54.08,-132.38 54.08,-132.38 0,0 -34.35,-67.46 -57.73,-131.74 22.17,16.93 96.23,64.58 260.96,96.31" />
    <path
       inkscape:connector-curvature="0"
       id="path4950"
       style="fill:#f47165;fill-opacity:1;fill-rule:nonzero;stroke:none"
       d="m 5495.87,4066.83 c 0,0 -1.86,-48.47 -5.59,-72.72 -3.72,-24.24 -52.21,-16.77 -50.34,-22.37 1.86,-5.59 85.77,-104.41 100.69,-96.96 14.91,7.46 100.68,87.64 91.36,93.23 -9.33,5.6 -42.88,16.78 -50.34,24.24 -7.46,7.46 -9.33,63.39 -11.2,87.64 -1.86,24.24 -74.58,-13.06 -74.58,-13.06" />
    <path
       inkscape:connector-curvature="0"
       id="path4952"
       style="fill:#f89d87;fill-opacity:1;fill-rule:nonzero;stroke:none"
       d="m 5546.22,4193.62 c 0,0 20.51,37.29 0,67.13 -20.51,29.83 -82.04,35.43 -115.6,-13.06 -33.56,-48.48 3.73,-165.94 27.97,-192.05 24.24,-26.1 111.86,16.79 128.65,37.3 16.78,20.51 5.6,42.88 -16.79,59.67 -22.37,16.77 -24.23,41.01 -24.23,41.01" />
    <path
       inkscape:connector-curvature="0"
       id="path4954"
       style="fill:#f89d87;fill-opacity:1;fill-rule:nonzero;stroke:none"
       d="m 5479.1,3731.21 c 0,0 31.7,3.73 44.74,-3.72 13.06,-7.46 95.1,-67.13 100.69,-85.77 5.59,-18.65 -35.41,-22.38 -54.07,-20.52 -24.99,2.5 -58.06,36.86 -78,50.66 -21.58,14.93 -21.4,10.36 -42.34,1.26 0,0 -142.16,-61.93 -229.78,-65.65 -87.64,-3.73 -133.61,3.69 -122.41,24.21 11.19,20.5 80.17,67.23 152.89,67.23 72.71,0 228.28,32.3 228.28,32.3" />
    <path
       inkscape:connector-curvature="0"
       id="path4956"
       style="fill:#f89d87;fill-opacity:1;fill-rule:nonzero;stroke:none"
       d="m 5867.1,3665.99 c -5.56,22.95 -27.44,47.89 -46.79,50.31 -29.84,3.73 -65.27,-20.51 -93.22,-29.83 -27.97,-9.33 -52.22,-1.87 -80.18,13.05 -27.97,14.92 -37.3,18.64 -55.94,18.64 -18.65,0 -76.44,-7.46 -76.44,-16.78 0,-9.32 29.82,-29.83 42.88,-29.83 13.04,0 35.43,5.59 46.61,-11.19 11.19,-16.78 27.97,-26.1 44.75,-27.97 16.78,-1.86 67.12,9.33 67.12,9.33 26,-6.19 139.61,-35.11 151.37,5.06 1.7,5.81 1.49,12.42 -0.16,19.21" />
    <path
       inkscape:connector-curvature="0"
       id="path4958"
       style="fill:none;stroke:#3c3565;stroke-width:5;stroke-linecap:butt;stroke-linejoin:miter;stroke-miterlimit:10;stroke-dasharray:none;stroke-opacity:1"
       d="m 5712.16,3541.03 c 0,0 -87.63,-91.36 -68.98,-195.78 18.64,-104.41 121.19,-249.85 121.19,-249.85" />
    <path
       inkscape:connector-curvature="0"
       id="path4960"
       style="fill:none;stroke:#3c3565;stroke-width:5;stroke-linecap:butt;stroke-linejoin:miter;stroke-miterlimit:10;stroke-dasharray:none;stroke-opacity:1"
       d="m 5646.91,3427.29 c 0,0 -39.16,67.13 -171.54,35.43" />
  </g>
</svg>
