<svg id="Layer_3" enable-background="new 0 0 64 64" height="512" viewBox="0 0 64 64" width="512" xmlns="http://www.w3.org/2000/svg"><path d="m40 14c0-5.523 4.477-10 10-10 1.498 0 2.914.339 4.19.929l7.81-2.929-2.592 8.638c.376 1.052.592 2.181.592 3.362 0 5.523-4.477 10-10 10s-10-4.477-10-10z" fill="#4472b2"/><path d="m39 15c-5.523 0-10 4.477-10 10 0 1.498.339 2.914.929 4.19l-2.929 7.81 8.638-2.592c1.052.376 2.181.592 3.362.592 5.523 0 10-4.477 10-10s-4.477-10-10-10z" fill="#78b75b"/><path d="m42 53-4.757 4.757c-2.717 2.717-6.401 4.243-10.243 4.243-3.842 0-7.526-1.526-10.243-4.243l-10.514-10.514c-2.717-2.717-4.243-6.401-4.243-10.243 0-3.842 1.526-7.526 4.243-10.243l4.757-4.757 10 10-11 7 15 15 7-11z" fill="#f5b953"/><path d="m38 57 4-4-10-10-3.111 4.889z" fill="#f9d18b"/><path d="m16.111 35.111 4.889-3.111-10-10-4 4z" fill="#f9d18b"/><g fill="#fff"><path d="m34 24h2v2h-2z"/><path d="m38 24h2v2h-2z"/><path d="m42 24h2v2h-2z"/><path d="m45 13h2v2h-2z"/><path d="m49 13h2v2h-2z"/><path d="m53 13h2v2h-2z"/></g></svg>