<?xml version="1.0" encoding="iso-8859-1"?>
<!-- Generator: Adobe Illustrator 19.0.0, SVG Export Plug-In . SVG Version: 6.00 Build 0)  -->
<svg version="1.1" id="Capa_1" xmlns="http://www.w3.org/2000/svg" xmlns:xlink="http://www.w3.org/1999/xlink" x="0px" y="0px"
	 viewBox="0 0 512 512" style="enable-background:new 0 0 512 512;" xml:space="preserve">
<path style="fill:#BCDDE2;" d="M512,131.466V403.09c0,10.313-8.37,18.683-18.683,18.683h-56.026L413.1,461.22
	c-5.647,9.213-19.024,9.213-24.672,0l-24.191-39.447H18.672C8.359,421.772,0,413.402,0,403.09V131.466
	c0-10.324,8.359-18.683,18.672-18.683h474.645C503.63,112.783,512,121.142,512,131.466z"/>
<g>
	<path style="fill:#8BC1C6;" d="M469.115,112.783v26.273c0,20.124-16.366,36.5-36.49,36.5H79.364c-20.124,0-36.49-16.376-36.49-36.5
		v-26.273H469.115z"/>
	<path style="fill:#8BC1C6;" d="M511.996,131.462v271.625c0,10.32-8.361,18.681-18.681,18.681h-20.552
		c10.32,0,18.681-8.361,18.681-18.681V131.462c0-10.32-8.361-18.681-18.681-18.681h20.552
		C503.635,112.781,511.996,121.141,511.996,131.462z"/>
</g>
<g>
	<path style="fill:#61989B;" d="M110.501,203.214H57.482c-4.268,0-7.726-3.459-7.726-7.726s3.459-7.726,7.726-7.726h53.019
		c4.268,0,7.726,3.459,7.726,7.726S114.769,203.214,110.501,203.214z"/>
	<path style="fill:#61989B;" d="M362.882,236.135h-305.4c-4.268,0-7.726-3.459-7.726-7.726c0-4.268,3.459-7.726,7.726-7.726h305.399
		c4.268,0,7.726,3.459,7.726,7.726C370.608,232.677,367.149,236.135,362.882,236.135z"/>
	<path style="fill:#61989B;" d="M265.719,296.567H93.274c-4.268,0-7.726-3.459-7.726-7.726c0-4.268,3.459-7.726,7.726-7.726H265.72
		c4.268,0,7.726,3.459,7.726,7.726C273.446,293.108,269.987,296.567,265.719,296.567z"/>
	<path style="fill:#61989B;" d="M366.157,335.538H93.274c-4.268,0-7.726-3.459-7.726-7.726c0-4.268,3.459-7.726,7.726-7.726h272.884
		c4.268,0,7.726,3.459,7.726,7.726C373.884,332.079,370.425,335.538,366.157,335.538z"/>
	<path style="fill:#61989B;" d="M436.451,374.509H93.274c-4.268,0-7.726-3.459-7.726-7.726c0-4.268,3.459-7.726,7.726-7.726h343.177
		c4.268,0,7.726,3.459,7.726,7.726C444.177,371.051,440.718,374.509,436.451,374.509z"/>
	<path style="fill:#61989B;" d="M362.882,203.214h-217.29c-4.268,0-7.726-3.459-7.726-7.726s3.459-7.726,7.726-7.726h217.289
		c4.268,0,7.726,3.459,7.726,7.726S367.149,203.214,362.882,203.214z"/>
	<path style="fill:#61989B;" d="M47.998,303.531c-4.268,0-7.726-3.459-7.726-7.726v-14.441c0-4.268,3.459-7.726,7.726-7.726
		s7.726,3.459,7.726,7.726v14.441C55.725,300.072,52.266,303.531,47.998,303.531z"/>
	<path style="fill:#61989B;" d="M66.965,303.531c-4.268,0-7.726-3.459-7.726-7.726v-14.441c0-4.268,3.459-7.726,7.726-7.726
		c4.268,0,7.726,3.459,7.726,7.726v14.441C74.692,300.072,71.233,303.531,66.965,303.531z"/>
	<path style="fill:#61989B;" d="M462.749,378.273c-4.268,0-7.726-3.459-7.726-7.726v-14.441c0-4.268,3.459-7.726,7.726-7.726
		s7.726,3.459,7.726,7.726v14.441C470.475,374.814,467.017,378.273,462.749,378.273z"/>
	<path style="fill:#61989B;" d="M481.715,378.273c-4.268,0-7.726-3.459-7.726-7.726v-14.441c0-4.268,3.459-7.726,7.726-7.726
		c4.268,0,7.726,3.459,7.726,7.726v14.441C489.441,374.814,485.983,378.273,481.715,378.273z"/>
	<path style="fill:#61989B;" d="M333.612,296.567h-33.939c-4.268,0-7.726-3.459-7.726-7.726c0-4.268,3.459-7.726,7.726-7.726h33.939
		c4.268,0,7.726,3.459,7.726,7.726C341.338,293.108,337.879,296.567,333.612,296.567z"/>
</g>
<path style="fill:#FF5D49;" d="M432.623,159.539H79.366c-11.311,0-20.481-9.169-20.481-20.481V64.352
	c0-11.311,9.169-20.481,20.481-20.481h353.257c11.311,0,20.481,9.169,20.481,20.481v74.707
	C453.104,150.37,443.934,159.539,432.623,159.539z"/>
<g>
	<path style="fill:#FFBF00;" d="M219.733,82.492l4.88,9.888l10.912,1.586c4.225,0.614,5.912,5.806,2.855,8.786l-7.896,7.697
		l1.864,10.868c0.722,4.208-3.695,7.417-7.474,5.43l-9.76-5.131l-9.76,5.131c-3.779,1.987-8.195-1.222-7.474-5.43l1.864-10.868
		l-7.896-7.697c-3.057-2.98-1.37-8.172,2.855-8.786l10.912-1.586l4.88-9.888C212.384,78.663,217.843,78.663,219.733,82.492z"/>
	<path style="fill:#FFBF00;" d="M300.786,82.492l4.88,9.888l10.912,1.586c4.225,0.614,5.912,5.806,2.855,8.786l-7.896,7.697
		l1.864,10.868c0.722,4.208-3.695,7.417-7.474,5.43l-9.76-5.131l-9.76,5.131c-3.779,1.987-8.195-1.222-7.474-5.43l1.864-10.868
		l-7.896-7.697c-3.057-2.98-1.37-8.172,2.855-8.786l10.912-1.586l4.88-9.888C293.438,78.663,298.897,78.663,300.786,82.492z"/>
	<path style="fill:#FFBF00;" d="M139.388,82.492l4.88,9.888l10.912,1.586c4.225,0.614,5.912,5.806,2.855,8.786l-7.896,7.697
		l1.864,10.868c0.722,4.208-3.695,7.417-7.474,5.43l-9.76-5.131l-9.76,5.131c-3.779,1.987-8.196-1.222-7.474-5.43l1.864-10.868
		l-7.896-7.697c-3.057-2.98-1.37-8.172,2.855-8.786l10.912-1.586l4.88-9.888C132.039,78.663,137.498,78.663,139.388,82.492z"/>
	<path style="fill:#FFBF00;" d="M381.84,82.492l4.88,9.888l10.912,1.586c4.225,0.614,5.912,5.806,2.855,8.786l-7.896,7.697
		l1.864,10.868c0.722,4.208-3.695,7.417-7.474,5.43l-9.76-5.131l-9.76,5.131c-3.779,1.987-8.195-1.222-7.474-5.43l1.864-10.868
		l-7.896-7.697c-3.057-2.98-1.37-8.172,2.855-8.786l10.912-1.586l4.88-9.888C374.491,78.663,379.95,78.663,381.84,82.492z"/>
</g>
<g>
</g>
<g>
</g>
<g>
</g>
<g>
</g>
<g>
</g>
<g>
</g>
<g>
</g>
<g>
</g>
<g>
</g>
<g>
</g>
<g>
</g>
<g>
</g>
<g>
</g>
<g>
</g>
<g>
</g>
</svg>
