<svg height="512" viewBox="0 0 58 58" width="512" xmlns="http://www.w3.org/2000/svg"><g id="Page-1" fill="none" fill-rule="evenodd"><g id="045---Dog-Biscuit" fill-rule="nonzero" transform="translate(-1 -1)"><path id="Shape" d="m15.919 34.267 18.348-18.348c.6702402-.6694568.7756547-1.7185825.252-2.508-2.0424147-3.0855497-1.7022524-7.16914952.8225215-9.87425418s6.5752447-3.32573677 9.7941473-1.50070512c3.2189026 1.82503166 4.7661688 5.61943087 3.7413312 9.1749593 3.5553867-1.0242694 7.349297.5231859 9.1740593 3.7419038 1.8247624 3.2187179 1.2042302 7.2688183-1.5005095 9.793553-2.7047398 2.5247347-6.7879227 2.865309-9.8735498.8235432-.7894175-.5236547-1.8385432-.4182402-2.508.252l-18.351 18.344c-.6702402.6694568-.7756547 1.7185825-.252 2.508 2.0417658 3.0856271 1.7011915 7.16881-.8235432 9.8735498-2.5247347 2.7047397-6.5748351 3.3252719-9.793553 1.5005095-3.2187179-1.8247623-4.7661732-5.6186726-3.7419038-9.1740593-3.55552843 1.0248376-7.34992764-.5224286-9.1749593-3.7413312-1.82503165-3.2189026-1.20439954-7.2693734 1.50070512-9.7941473s6.78870448-2.8649362 9.87425418-.8225215c.7895751.5266488 1.8411814.4224092 2.512-.249z" fill="#cb8252"/><g fill="#805333"><circle id="Oval" cx="41" cy="8" r="1"/><circle id="Oval" cx="51" cy="19" r="1"/><circle id="Oval" cx="9" cy="41" r="1"/><circle id="Oval" cx="19" cy="52" r="1"/><circle id="Oval" cx="30" cy="30" r="1"/><circle id="Oval" cx="23" cy="37" r="1"/><circle id="Oval" cx="37" cy="23" r="1"/></g></g></g></svg>